<svg xmlns="http://www.w3.org/2000/svg" width="60.014" height="60" viewBox="0 0 60.014 60">
  <g id="Attractive-employment-conditions" transform="translate(-19.993 -20)">
    <g id="Group_2449" data-name="Group 2449">
      <g id="Group_2393" data-name="Group 2393">
        <path id="Path_24828" data-name="Path 24828" d="M69.031,79.342a.673.673,0,0,1,.59-.753h0a.677.677,0,0,1,.753.59h0a.67.67,0,0,1-.59.753h0a.325.325,0,0,1-.082.007h0A.675.675,0,0,1,69.031,79.342Zm-2.171.583a.677.677,0,0,1-.591-.752h0a.681.681,0,0,1,.76-.591h0a.68.68,0,0,1,.591.76h0a.686.686,0,0,1-.672.59h0A.374.374,0,0,1,66.86,79.925Zm4.884-1.092a.681.681,0,0,1,.38-.882h0a.682.682,0,0,1,.882.38h0a.681.681,0,0,1-.38.882h0a.661.661,0,0,1-.251.048h0A.676.676,0,0,1,71.744,78.833Zm-7.72.359a.675.675,0,0,1-.379-.875h0a.674.674,0,0,1,.882-.379h0a.675.675,0,0,1,.379.882h0a.681.681,0,0,1-.631.427h0A.654.654,0,0,1,64.024,79.192Zm10.223-1.539a.668.668,0,0,1,.149-.943h0a.667.667,0,0,1,.943.149h0a.676.676,0,0,1-.149.95h0a.723.723,0,0,1-.4.129h0A.683.683,0,0,1,74.247,77.653Zm-12.78.128a.675.675,0,0,1-.149-.949h0a.681.681,0,0,1,.95-.149h0a.689.689,0,0,1,.149.949h0a.678.678,0,0,1-.55.279h0A.666.666,0,0,1,61.467,77.781ZM76.37,75.9a.684.684,0,0,1-.088-.956h0a.686.686,0,0,1,.957-.089h0a.686.686,0,0,1,.088.957h0a.675.675,0,0,1-.523.244h0A.668.668,0,0,1,76.37,75.9Zm-17.033-.122a.678.678,0,0,1,.088-.956h0a.679.679,0,0,1,.957.094h0a.678.678,0,0,1-.088.95h0a.676.676,0,0,1-.434.156h0A.672.672,0,0,1,59.337,75.774ZM78,73.664a.679.679,0,0,1-.319-.9h0a.675.675,0,0,1,.9-.319h0a.682.682,0,0,1,.326.9h0a.688.688,0,0,1-.618.386h0A.663.663,0,0,1,78,73.664ZM57.77,73.305A.683.683,0,0,1,58.1,72.4h0a.684.684,0,0,1,.9.332h0a.685.685,0,0,1-.325.9h0a.747.747,0,0,1-.293.061h0A.677.677,0,0,1,57.77,73.305ZM79.023,71.1a.677.677,0,0,1-.536-.794H78.48a.68.68,0,0,1,.8-.535h0a.672.672,0,0,1,.535.793h0a.68.68,0,0,1-.665.55h0A.8.8,0,0,1,79.023,71.1Zm-22.155-.584h0a.674.674,0,0,1,.543-.793h0a.687.687,0,0,1,.793.543h0a.688.688,0,0,1-.542.794h0a.935.935,0,0,1-.13.006h0A.675.675,0,0,1,56.868,70.516Zm21.788-2.794h-.007A.686.686,0,0,1,79.287,67h0a.677.677,0,0,1,.719.638h0a.678.678,0,0,1-.637.719h-.041A.672.672,0,0,1,78.656,67.722Zm-21.334.6a.678.678,0,0,1-.63-.726h0a.672.672,0,0,1,.719-.631h0a.671.671,0,0,1,.63.719h0a.676.676,0,0,1-.678.638h-.041Zm20.853-3.134a.681.681,0,0,1,.44-.854h0a.679.679,0,0,1,.856.433h0a.678.678,0,0,1-.442.855h0a.68.68,0,0,1-.2.034h0A.683.683,0,0,1,78.175,65.185Zm-20.5.394a.676.676,0,0,1-.434-.856h-.007a.675.675,0,0,1,.855-.434h0a.674.674,0,0,1,.441.848h0a.687.687,0,0,1-.651.475h0A.762.762,0,0,1,57.675,65.579Zm19.408-2.741a.679.679,0,0,1,.21-.936h0a.68.68,0,0,1,.936.217v-.007a.673.673,0,0,1-.21.936h0a.638.638,0,0,1-.36.109h0A.689.689,0,0,1,77.083,62.838Zm-18.391.17a.671.671,0,0,1-.2-.93h0a.673.673,0,0,1,.936-.21h0a.679.679,0,0,1,.2.936h0a.669.669,0,0,1-.57.312h0A.684.684,0,0,1,58.692,63.008Zm16.749-2.171a.676.676,0,0,1-.027-.957h0a.684.684,0,0,1,.963-.027h0a.684.684,0,0,1,.021.957h0a.669.669,0,0,1-.489.217h0A.657.657,0,0,1,75.441,60.837Zm-15.12-.055a.683.683,0,0,1,.033-.956h0a.677.677,0,0,1,.957.027h0a.676.676,0,0,1-.027.957h0a.69.69,0,0,1-.468.182h0A.678.678,0,0,1,60.321,60.782Zm13.031-1.471a.678.678,0,0,1-.258-.923h0a.67.67,0,0,1,.915-.265h.008a.679.679,0,0,1,.257.923h0a.674.674,0,0,1-.59.353h0A.669.669,0,0,1,73.352,59.311Zm-10.9-.292a.674.674,0,0,1,.272-.916h0a.681.681,0,0,1,.923.265h0a.682.682,0,0,1-.272.922h0a.705.705,0,0,1-.326.081h0A.679.679,0,0,1,62.45,59.019Zm8.507-.672a.675.675,0,0,1-.488-.827h0a.676.676,0,0,1,.827-.482h0a.673.673,0,0,1,.482.828h0a.667.667,0,0,1-.652.5h0A.7.7,0,0,1,70.957,58.347Zm-6-.5a.669.669,0,0,1,.488-.821h0a.681.681,0,0,1,.827.489h0a.689.689,0,0,1-.488.828h0a.8.8,0,0,1-.169.02h0A.678.678,0,0,1,64.954,57.845Zm3.432.17h-.04a.682.682,0,0,1-.679-.679h0a.681.681,0,0,1,.679-.678h.047a.683.683,0,0,1,.679.685h0a.68.68,0,0,1-.679.672h-.007Z" fill="#ffa500"/>
      </g>
      <g id="Group_2407" data-name="Group 2407">
        <g id="Group_2394" data-name="Group 2394">
          <path id="Path_24829" data-name="Path 24829" d="M68.346,62.906a.642.642,0,0,1-.475-.2.65.65,0,0,1-.2-.482.67.67,0,0,1,.055-.257.586.586,0,0,1,.149-.218.444.444,0,0,1,.1-.088.374.374,0,0,1,.115-.061.391.391,0,0,1,.128-.04.635.635,0,0,1,.387.04.624.624,0,0,1,.224.149.7.7,0,0,1,.2.475.673.673,0,0,1-.678.679Z" fill="#ffa500"/>
        </g>
        <g id="Group_2395" data-name="Group 2395">
          <path id="Path_24830" data-name="Path 24830" d="M72.409,68.163a.678.678,0,0,1,.088-.957h0a.686.686,0,0,1,.957.088h0a.687.687,0,0,1-.088.957h0a.7.7,0,0,1-.435.156h0A.669.669,0,0,1,72.409,68.163Zm-1.526-1.832a.67.67,0,0,1,.088-.956h0a.669.669,0,0,1,.949.088h0a.671.671,0,0,1-.088.956h0a.676.676,0,0,1-.427.157h0A.693.693,0,0,1,70.883,66.331Zm-1.527-1.838a.668.668,0,0,1,.082-.949h0a.676.676,0,0,1,.956.081h0a.671.671,0,0,1-.088.956h0a.652.652,0,0,1-.434.163h0A.666.666,0,0,1,69.356,64.493Z" fill="#ffa500"/>
        </g>
        <g id="Group_2396" data-name="Group 2396">
          <path id="Path_24831" data-name="Path 24831" d="M74.457,70.246a.679.679,0,0,1-.624-.944.4.4,0,0,1,.061-.115,1.088,1.088,0,0,1,.082-.1.782.782,0,0,1,.224-.149.642.642,0,0,1,.393-.042l.122.042c.048.019.081.04.122.06a1.352,1.352,0,0,1,.1.089.368.368,0,0,1,.081.1.375.375,0,0,1,.061.115.709.709,0,0,1,.055.259.681.681,0,0,1-.048.264.694.694,0,0,1-.149.217.62.62,0,0,1-.224.149A.679.679,0,0,1,74.457,70.246Z" fill="#ffa500"/>
        </g>
        <g id="Group_2397" data-name="Group 2397">
          <path id="Path_24832" data-name="Path 24832" d="M71.337,69.567a.677.677,0,0,1,.678-.685h0a.682.682,0,0,1,.679.685h0a.682.682,0,0,1-.679.679h0A.676.676,0,0,1,71.337,69.567Z" fill="#ffa500"/>
        </g>
        <g id="Group_2398" data-name="Group 2398">
          <path id="Path_24833" data-name="Path 24833" d="M69.573,70.246a.7.7,0,0,1-.685-.685.728.728,0,0,1,.054-.259c.021-.04.041-.081.061-.115a.716.716,0,0,1,.088-.1.682.682,0,0,1,.611-.191l.129.042c.041.019.081.04.116.06a.714.714,0,0,1,.1.089.608.608,0,0,1,.088.1c.021.034.041.075.061.115a.678.678,0,0,1,.048.259.663.663,0,0,1-.048.264.694.694,0,0,1-.149.217.594.594,0,0,1-.217.149A.675.675,0,0,1,69.573,70.246Z" fill="#ffa500"/>
        </g>
        <g id="Group_2399" data-name="Group 2399">
          <path id="Path_24834" data-name="Path 24834" d="M68.895,72.009a.674.674,0,0,1,.671-.678h0a.681.681,0,0,1,.685.678h0a.681.681,0,0,1-.685.678h0A.674.674,0,0,1,68.895,72.009Z" fill="#ffa500"/>
        </g>
        <g id="Group_2400" data-name="Group 2400">
          <path id="Path_24835" data-name="Path 24835" d="M69.566,75.13a.652.652,0,0,1-.475-.2.7.7,0,0,1-.149-.739.7.7,0,0,1,.149-.218.466.466,0,0,1,.1-.088c.034-.02.075-.041.116-.061a.714.714,0,0,1,.393-.041,1.069,1.069,0,0,1,.129.041c.041.02.081.041.116.061a.708.708,0,0,1,.1.088.687.687,0,0,1,.149.218.642.642,0,0,1,.048.257.673.673,0,0,1-.679.679Z" fill="#ffa500"/>
        </g>
        <g id="Group_2401" data-name="Group 2401">
          <path id="Path_24836" data-name="Path 24836" d="M67.125,75.13a.673.673,0,0,1-.679-.679.559.559,0,0,1,.055-.257.653.653,0,0,1,.142-.218c.034-.033.068-.061.1-.088l.123-.061a.681.681,0,0,1,.739.149.7.7,0,0,1,.2.475.729.729,0,0,1-.054.265.677.677,0,0,1-.143.217.8.8,0,0,1-.224.149A.663.663,0,0,1,67.125,75.13Z" fill="#ffa500"/>
        </g>
        <g id="Group_2402" data-name="Group 2402">
          <path id="Path_24837" data-name="Path 24837" d="M66.446,72.009a.681.681,0,0,1,.679-.678h0a.68.68,0,0,1,.678.678h0a.68.68,0,0,1-.678.678h0A.681.681,0,0,1,66.446,72.009Z" fill="#ffa500"/>
        </g>
        <g id="Group_2403" data-name="Group 2403">
          <path id="Path_24838" data-name="Path 24838" d="M67.125,70.246a.677.677,0,0,1-.482-.2.714.714,0,0,1-.15-.217.7.7,0,0,1-.047-.264A.689.689,0,0,1,66.5,69.3a.355.355,0,0,1,.061-.115.57.57,0,0,1,.081-.1c.034-.034.068-.061.1-.089l.123-.06.122-.042a.643.643,0,0,1,.393.042.783.783,0,0,1,.224.149,1.279,1.279,0,0,1,.082.1.4.4,0,0,1,.061.115.5.5,0,0,1,.04.129.808.808,0,0,1,.014.13.672.672,0,0,1-.2.481A.7.7,0,0,1,67.125,70.246Z" fill="#ffa500"/>
        </g>
        <g id="Group_2404" data-name="Group 2404">
          <path id="Path_24839" data-name="Path 24839" d="M64,69.567a.683.683,0,0,1,.685-.685h0a.682.682,0,0,1,.679.685h0a.681.681,0,0,1-.679.679h0A.683.683,0,0,1,64,69.567Z" fill="#ffa500"/>
        </g>
        <g id="Group_2405" data-name="Group 2405">
          <path id="Path_24840" data-name="Path 24840" d="M62.234,70.246a.69.69,0,0,1-.482-.2.672.672,0,0,1-.2-.481.689.689,0,0,1,.055-.259.375.375,0,0,1,.061-.115.57.57,0,0,1,.081-.1.686.686,0,0,1,.61-.191c.048.014.088.028.13.042s.081.04.115.06a.721.721,0,0,1,.108.089,1.088,1.088,0,0,1,.082.1.4.4,0,0,1,.061.115.707.707,0,0,1,.054.259.672.672,0,0,1-.2.481.706.706,0,0,1-.481.2Z" fill="#ffa500"/>
        </g>
        <g id="Group_2406" data-name="Group 2406">
          <path id="Path_24841" data-name="Path 24841" d="M63.326,68.251a.678.678,0,0,1-.082-.957h0a.677.677,0,0,1,.95-.088h0a.679.679,0,0,1,.088.957h0a.67.67,0,0,1-.522.244h0A.667.667,0,0,1,63.326,68.251Zm1.526-1.838a.671.671,0,0,1-.082-.95h0a.665.665,0,0,1,.95-.088h0a.67.67,0,0,1,.088.956h0a.679.679,0,0,1-.515.245h0A.686.686,0,0,1,64.852,66.413Zm1.533-1.832a.677.677,0,0,1-.088-.956h0a.676.676,0,0,1,.956-.081h0a.675.675,0,0,1,.088.949h0a.669.669,0,0,1-.522.244h0A.655.655,0,0,1,66.385,64.581Z" fill="#ffa500"/>
        </g>
      </g>
      <g id="Group_2448" data-name="Group 2448">
        <g id="Group_2408" data-name="Group 2408">
          <path id="Path_24842" data-name="Path 24842" d="M56.847,79.96a.686.686,0,0,1-.481-.2.8.8,0,0,1-.143-.224.581.581,0,0,1-.054-.258.714.714,0,0,1,.2-.482.651.651,0,0,1,.224-.149.676.676,0,0,1,.515,0,.858.858,0,0,1,.224.149.647.647,0,0,1,.143.224.689.689,0,0,1,.054.258.7.7,0,0,1-.2.482.766.766,0,0,1-.224.142A.671.671,0,0,1,56.847,79.96Z" fill="#ffa500"/>
        </g>
        <g id="Group_2409" data-name="Group 2409">
          <path id="Path_24843" data-name="Path 24843" d="M54.195,80h0a.682.682,0,0,1-.658-.7h0a.679.679,0,0,1,.706-.658h0a.676.676,0,0,1,.651.7h0a.676.676,0,0,1-.678.658h-.021Zm-2.68-.2a.668.668,0,0,1-.589-.753h0a.673.673,0,0,1,.746-.6h0a.68.68,0,0,1,.6.753h0a.675.675,0,0,1-.672.6h-.082Zm-2.645-.42h0a.68.68,0,0,1-.536-.8h0a.683.683,0,0,1,.8-.529h0a.684.684,0,0,1,.536.8h0A.689.689,0,0,1,49,79.4h0A.943.943,0,0,1,48.87,79.383Zm-2.612-.658a.681.681,0,0,1-.454-.848h0a.686.686,0,0,1,.848-.455h0a.683.683,0,0,1,.454.848h0a.681.681,0,0,1-.651.482h0A.678.678,0,0,1,46.258,78.725Zm-2.536-.909h0a.682.682,0,0,1-.367-.889h0a.681.681,0,0,1,.889-.366h0a.689.689,0,0,1,.366.889h0a.681.681,0,0,1-.63.42h0A.7.7,0,0,1,43.722,77.816Zm-2.435-1.16h0a.688.688,0,0,1-.272-.923h0a.681.681,0,0,1,.923-.271h0a.685.685,0,0,1,.271.922h0a.685.685,0,0,1-.6.353h0A.7.7,0,0,1,41.287,76.656Zm-2.3-1.418h0a.674.674,0,0,1-.17-.943h0a.675.675,0,0,1,.943-.17h0a.676.676,0,0,1,.17.943h0a.668.668,0,0,1-.556.292h0A.672.672,0,0,1,38.987,75.238ZM36.85,73.59a.679.679,0,0,1-.068-.957h0a.677.677,0,0,1,.957-.074h0a.676.676,0,0,1,.067.956h0a.681.681,0,0,1-.515.237h0A.685.685,0,0,1,36.85,73.59ZM34.9,71.717a.675.675,0,0,1,.028-.956h0a.683.683,0,0,1,.963.027h0a.679.679,0,0,1-.034.963h0a.678.678,0,0,1-.462.184h0A.679.679,0,0,1,34.9,71.717ZM33.16,69.662a.672.672,0,0,1,.129-.949h0a.666.666,0,0,1,.949.128h0a.675.675,0,0,1-.128.95h0a.7.7,0,0,1-.408.136h0A.672.672,0,0,1,33.16,69.662Zm-1.526-2.218a.68.68,0,0,1,.217-.936h0a.68.68,0,0,1,.936.217v.007a.674.674,0,0,1-.217.929h0a.708.708,0,0,1-.36.1h0A.689.689,0,0,1,31.634,67.444ZM30.325,65.09a.685.685,0,0,1,.3-.909h0a.68.68,0,0,1,.909.305h0a.672.672,0,0,1-.306.909h0a.658.658,0,0,1-.3.075h0A.687.687,0,0,1,30.325,65.09Zm-1.093-2.455a.684.684,0,0,1,.387-.883h0a.69.69,0,0,1,.882.387h0a.681.681,0,0,1-.387.882h0a.781.781,0,0,1-.251.041h0A.68.68,0,0,1,29.232,62.635ZM28.364,60.1h0a.681.681,0,0,1,.454-.848h0a.681.681,0,0,1,.841.461h0a.675.675,0,0,1-.454.841h0a.65.65,0,0,1-.19.027h0A.67.67,0,0,1,28.364,60.1Z" fill="#ffa500"/>
        </g>
        <g id="Group_2410" data-name="Group 2410">
          <path id="Path_24844" data-name="Path 24844" d="M28.357,58.015a.674.674,0,0,1-.482-.2.861.861,0,0,1-.149-.217.7.7,0,0,1-.047-.265.717.717,0,0,1,.2-.481.711.711,0,0,1,.611-.183.431.431,0,0,1,.129.04.385.385,0,0,1,.115.061c.041.028.075.055.109.082a.685.685,0,0,1,.142.746.66.66,0,0,1-.624.414Z" fill="#ffa500"/>
        </g>
        <g id="Group_2411" data-name="Group 2411">
          <path id="Path_24845" data-name="Path 24845" d="M25.114,57.336a.681.681,0,0,1,.679-.678h0a.681.681,0,0,1,.678.678h0a.681.681,0,0,1-.678.679h0A.682.682,0,0,1,25.114,57.336Zm-2.563,0a.68.68,0,0,1,.678-.678h0a.676.676,0,0,1,.678.678h0a.676.676,0,0,1-.678.679h0A.68.68,0,0,1,22.551,57.336Z" fill="#ffa500"/>
        </g>
        <g id="Group_2412" data-name="Group 2412">
          <path id="Path_24846" data-name="Path 24846" d="M20.671,58.015a.672.672,0,0,1-.481-.2.694.694,0,0,1-.149-.217.707.707,0,0,1,.149-.746.69.69,0,0,1,.611-.183.416.416,0,0,1,.128.04.374.374,0,0,1,.115.061.713.713,0,0,1,.1.082.685.685,0,0,1,.2.481.71.71,0,0,1-.055.265.582.582,0,0,1-.149.217.683.683,0,0,1-.217.149A.647.647,0,0,1,20.671,58.015Z" fill="#ffa500"/>
        </g>
        <g id="Group_2413" data-name="Group 2413">
          <path id="Path_24847" data-name="Path 24847" d="M20.964,55.566a.688.688,0,0,1-.557-.787h0a.681.681,0,0,1,.78-.556h0a.676.676,0,0,1,.556.78h0a.683.683,0,0,1-.671.57h0C21.038,55.573,21,55.566,20.964,55.566Z" fill="#ffa500"/>
        </g>
        <g id="Group_2414" data-name="Group 2414">
          <path id="Path_24848" data-name="Path 24848" d="M21.486,53.124a.664.664,0,0,1-.265-.048A.694.694,0,0,1,21,52.927a.669.669,0,0,1-.2-.481.65.65,0,0,1,.048-.258A.683.683,0,0,1,21,51.971a.7.7,0,0,1,.957,0,.6.6,0,0,1,.149.217.658.658,0,0,1,0,.522.607.607,0,0,1-.149.217A.648.648,0,0,1,21.486,53.124Z" fill="#ffa500"/>
        </g>
        <g id="Group_2415" data-name="Group 2415">
          <path id="Path_24849" data-name="Path 24849" d="M23.9,52.446a.677.677,0,0,1,.679-.679h0a.681.681,0,0,1,.678.679h0a.681.681,0,0,1-.678.685h0A.678.678,0,0,1,23.9,52.446Z" fill="#ffa500"/>
        </g>
        <g id="Group_2416" data-name="Group 2416">
          <path id="Path_24850" data-name="Path 24850" d="M27.672,53.124a.656.656,0,0,1-.264-.048.673.673,0,0,1-.367-.888.686.686,0,0,1,.15-.217.567.567,0,0,1,.217-.149.693.693,0,0,1,.522,0,.721.721,0,0,1,.366.366.662.662,0,0,1-.149.739.694.694,0,0,1-.217.149A.653.653,0,0,1,27.672,53.124Z" fill="#ffa500"/>
        </g>
        <g id="Group_2417" data-name="Group 2417">
          <path id="Path_24851" data-name="Path 24851" d="M26.912,50a.686.686,0,0,1,.685-.678h0a.674.674,0,0,1,.672.678h0a.676.676,0,0,1-.678.678h0A.676.676,0,0,1,26.912,50Z" fill="#ffa500"/>
        </g>
        <g id="Group_2418" data-name="Group 2418">
          <path id="Path_24852" data-name="Path 24852" d="M27.685,48.233a.645.645,0,0,1-.257-.048.575.575,0,0,1-.217-.149.672.672,0,0,1-.2-.475.7.7,0,0,1,.054-.264.6.6,0,0,1,.15-.217.677.677,0,0,1,.732-.149.642.642,0,0,1,.224.149.7.7,0,0,1,.2.481.676.676,0,0,1-.421.624A.65.65,0,0,1,27.685,48.233Z" fill="#ffa500"/>
        </g>
        <g id="Group_2419" data-name="Group 2419">
          <path id="Path_24853" data-name="Path 24853" d="M24.314,47.561a.677.677,0,0,1,.679-.678h0a.677.677,0,0,1,.678.678h0a.675.675,0,0,1-.678.672h0A.676.676,0,0,1,24.314,47.561Z" fill="#ffa500"/>
        </g>
        <g id="Group_2420" data-name="Group 2420">
          <path id="Path_24854" data-name="Path 24854" d="M22.3,48.233a.673.673,0,0,1-.679-.672.709.709,0,0,1,.055-.264.658.658,0,0,1,.142-.217.71.71,0,0,1,.963,0,.677.677,0,0,1,.143.217.708.708,0,0,1,.054.264.676.676,0,0,1-.421.624A.645.645,0,0,1,22.3,48.233Z" fill="#ffa500"/>
        </g>
        <g id="Group_2421" data-name="Group 2421">
          <path id="Path_24855" data-name="Path 24855" d="M22.6,45.784a.68.68,0,0,1-.563-.78h0a.685.685,0,0,1,.78-.563h0a.688.688,0,0,1,.563.787h0a.689.689,0,0,1-.672.563h0A.565.565,0,0,1,22.6,45.784Z" fill="#ffa500"/>
        </g>
        <g id="Group_2422" data-name="Group 2422">
          <path id="Path_24856" data-name="Path 24856" d="M23.114,43.349a.679.679,0,0,1-.259-.054.709.709,0,0,1-.223-.149.669.669,0,0,1-.2-.475.713.713,0,0,1,.054-.265.675.675,0,0,1,.142-.217.7.7,0,0,1,.108-.088c.035-.021.075-.041.115-.061a.839.839,0,0,1,.123-.034.677.677,0,0,1,.617.183.694.694,0,0,1,.143.217.626.626,0,0,1,.054.265.67.67,0,0,1-.2.475.629.629,0,0,1-.223.149A.678.678,0,0,1,23.114,43.349Z" fill="#ffa500"/>
        </g>
        <g id="Group_2423" data-name="Group 2423">
          <path id="Path_24857" data-name="Path 24857" d="M25.081,42.671a.676.676,0,0,1,.678-.679h0a.676.676,0,0,1,.678.679h0a.68.68,0,0,1-.678.678h0A.68.68,0,0,1,25.081,42.671Z" fill="#ffa500"/>
        </g>
        <g id="Group_2424" data-name="Group 2424">
          <path id="Path_24858" data-name="Path 24858" d="M28.4,43.349a.67.67,0,0,1-.258-.054.724.724,0,0,1-.367-.367.687.687,0,0,1-.053-.257.678.678,0,0,1,.2-.482.669.669,0,0,1,.61-.183.806.806,0,0,1,.123.034c.047.02.081.04.122.061a1.3,1.3,0,0,1,.1.088.682.682,0,0,1-.482,1.16Z" fill="#ffa500"/>
        </g>
        <g id="Group_2425" data-name="Group 2425">
          <path id="Path_24859" data-name="Path 24859" d="M28.9,40.629a.678.678,0,0,1-.448-.848h0v.007h0a.682.682,0,0,1,.848-.455h0a.683.683,0,0,1,.448.848h0a.682.682,0,0,1-.652.482h0A.715.715,0,0,1,28.9,40.629Zm.868-2.639a.677.677,0,0,1-.373-.882h0a.667.667,0,0,1,.875-.373h0a.665.665,0,0,1,.38.875h0a.681.681,0,0,1-.631.427h0A.66.66,0,0,1,29.768,37.99Zm1.092-2.551a.676.676,0,0,1-.292-.915h0a.678.678,0,0,1,.91-.3h0a.685.685,0,0,1,.3.916h0a.679.679,0,0,1-.611.367h0A.708.708,0,0,1,30.86,35.439Zm1.323-2.448a.673.673,0,0,1-.21-.936h0a.687.687,0,0,1,.936-.211h0a.687.687,0,0,1,.21.936v.008a.683.683,0,0,1-.577.312h0A.643.643,0,0,1,32.183,32.991Zm1.547-2.3a.68.68,0,0,1-.109-.956h0a.672.672,0,0,1,.95-.109h0a.679.679,0,0,1,.115.95h0a.692.692,0,0,1-.536.257h0A.683.683,0,0,1,33.73,30.691Zm1.777-2.136A.676.676,0,0,1,35.5,27.6h0a.675.675,0,0,1,.957-.014h0a.683.683,0,0,1,.013.957h0a.7.7,0,0,1-.488.21h0A.682.682,0,0,1,35.507,28.555ZM37.5,26.628a.685.685,0,0,1,.1-.956h0a.679.679,0,0,1,.957.094h0a.685.685,0,0,1-.1.957h0a.686.686,0,0,1-.427.156h0A.7.7,0,0,1,37.5,26.628Zm2.205-1.7a.674.674,0,0,1,.2-.936h0V24h0a.674.674,0,0,1,.936.2h0a.679.679,0,0,1-.2.936h0a.726.726,0,0,1-.366.1h0A.669.669,0,0,1,39.706,24.932Zm2.381-1.425A.681.681,0,0,1,42.4,22.6h0a.681.681,0,0,1,.909.318h0a.675.675,0,0,1-.319.9h0a.651.651,0,0,1-.292.069h0A.67.67,0,0,1,42.087,23.507Zm2.53-1.139a.677.677,0,0,1,.414-.862h0a.672.672,0,0,1,.862.414h0a.672.672,0,0,1-.414.862h0a.654.654,0,0,1-.224.04h0A.676.676,0,0,1,44.617,22.368Zm19.645.258h0a.685.685,0,0,1-.5-.821h0a.68.68,0,0,1,.821-.5h0a.68.68,0,0,1,.495.821h0a.679.679,0,0,1-.658.522h0A.56.56,0,0,1,64.262,22.626Zm-2.679-.577a.675.675,0,0,1-.544-.793h0a.677.677,0,0,1,.787-.543h0a.678.678,0,0,1,.543.793h0a.681.681,0,0,1-.664.557h0A.713.713,0,0,1,61.583,22.049Zm-14.32-.529a.679.679,0,0,1,.5-.814h0a.678.678,0,0,1,.814.509h0a.675.675,0,0,1-.5.814h0a.7.7,0,0,1-.157.02h0A.665.665,0,0,1,47.263,21.52Zm11.613.109a.665.665,0,0,1-.584-.753h0a.671.671,0,0,1,.753-.591h0a.676.676,0,0,1,.591.753h0a.675.675,0,0,1-.672.6h0A.47.47,0,0,1,58.876,21.629Zm-8.893-.659a.674.674,0,0,1,.583-.759h0a.68.68,0,0,1,.76.59h0a.679.679,0,0,1-.59.759h-.082A.674.674,0,0,1,49.983,20.97Zm6.173.421h.007a.675.675,0,0,1-.645-.712h0a.682.682,0,0,1,.712-.645h0a.686.686,0,0,1,.645.713h0a.679.679,0,0,1-.679.644h-.04Zm-3.412-.7A.671.671,0,0,1,53.4,20h0a.669.669,0,0,1,.693.658h0a.665.665,0,0,1-.651.692h-.028A.673.673,0,0,1,52.744,20.693Z" fill="#ffa500"/>
        </g>
        <g id="Group_2426" data-name="Group 2426">
          <path id="Path_24860" data-name="Path 24860" d="M67.125,23.379a.693.693,0,0,1-.258-.054.614.614,0,0,1-.224-.15.7.7,0,0,1-.15-.217.681.681,0,0,1-.047-.257.676.676,0,0,1,1.154-.482.669.669,0,0,1,.2.482.688.688,0,0,1-.054.257.724.724,0,0,1-.367.367A.688.688,0,0,1,67.125,23.379Z" fill="#ffa500"/>
        </g>
        <g id="Group_2427" data-name="Group 2427">
          <path id="Path_24861" data-name="Path 24861" d="M65.714,28.514a.681.681,0,0,1-.5-.821h0a.678.678,0,0,1,.821-.5h0a.679.679,0,0,1,.495.821h0a.672.672,0,0,1-.657.515h0A.686.686,0,0,1,65.714,28.514Zm.63-2.578a.68.68,0,0,1-.5-.821h0a.68.68,0,0,1,.821-.5h0a.679.679,0,0,1,.495.821h0a.673.673,0,0,1-.657.516h0A.571.571,0,0,1,66.344,25.936Z" fill="#ffa500"/>
        </g>
        <g id="Group_2428" data-name="Group 2428">
          <path id="Path_24862" data-name="Path 24862" d="M65.252,31.1a.664.664,0,0,1-.474-.2.585.585,0,0,1-.15-.217.733.733,0,0,1-.054-.264.674.674,0,0,1,.054-.258.577.577,0,0,1,.15-.217.671.671,0,0,1,1.1.217.577.577,0,0,1,.053.258.623.623,0,0,1-.053.264.694.694,0,0,1-.143.217.635.635,0,0,1-.482.2Z" fill="#ffa500"/>
        </g>
        <g id="Group_2429" data-name="Group 2429">
          <path id="Path_24863" data-name="Path 24863" d="M41.375,40.771a.677.677,0,0,1-.408-.868h0a.678.678,0,0,1,.869-.407h0a.685.685,0,0,1,.407.875h0a.68.68,0,0,1-.638.441h0A.661.661,0,0,1,41.375,40.771Zm.97-2.449a.67.67,0,0,1-.306-.909h0a.678.678,0,0,1,.909-.3h0a.67.67,0,0,1,.3.909h0a.679.679,0,0,1-.6.373h0A.687.687,0,0,1,42.345,38.322Zm1.248-2.312a.684.684,0,0,1-.177-.944h0a.67.67,0,0,1,.943-.176h0a.676.676,0,0,1,.177.936h0a.669.669,0,0,1-.563.3h0A.659.659,0,0,1,43.593,36.01Zm1.56-2.124a.669.669,0,0,1-.034-.956h0a.669.669,0,0,1,.956-.034h0a.668.668,0,0,1,.034.956h0a.678.678,0,0,1-.5.217h0A.675.675,0,0,1,45.153,33.886Zm1.872-1.852a.681.681,0,0,1,.136-.95h0a.682.682,0,0,1,.95.136h0a.682.682,0,0,1-.136.95h0a.654.654,0,0,1-.407.136h0A.667.667,0,0,1,47.025,32.034ZM49.2,30.549a.677.677,0,0,1,.319-.9h0a.686.686,0,0,1,.909.32h0a.683.683,0,0,1-.319.9h0a.661.661,0,0,1-.292.067h0A.685.685,0,0,1,49.2,30.549Zm13.356-.122a.678.678,0,0,1-.508-.814h0a.677.677,0,0,1,.814-.509h0a.682.682,0,0,1,.509.814h0a.686.686,0,0,1-.659.529h0A.6.6,0,0,1,62.552,30.427Zm-10.935-.9a.69.69,0,0,1,.489-.827h0a.682.682,0,0,1,.828.488h0a.676.676,0,0,1-.489.828h0a.7.7,0,0,1-.17.02h0A.687.687,0,0,1,51.617,29.524Zm8.4.408a.668.668,0,0,1-.563-.774h0a.673.673,0,0,1,.774-.563h0a.672.672,0,0,1,.563.774h0a.683.683,0,0,1-.672.576h0A.606.606,0,0,1,60.015,29.932Zm-3.188-1.011a.675.675,0,0,1,.719-.631h0a.682.682,0,0,1,.631.726h0a.676.676,0,0,1-.719.63h0A.678.678,0,0,1,56.827,28.921Zm-2.632.067a.672.672,0,0,1,.631-.718h0a.682.682,0,0,1,.726.63h0a.677.677,0,0,1-.638.719h0c-.013,0-.027.007-.041.007h0A.678.678,0,0,1,54.195,28.988Z" fill="#ffa500"/>
        </g>
        <g id="Group_2430" data-name="Group 2430">
          <path id="Path_24864" data-name="Path 24864" d="M40.825,43.349a.678.678,0,0,1-.258-.054.615.615,0,0,1-.217-.149.665.665,0,0,1,0-.957.7.7,0,0,1,.957,0,.672.672,0,0,1,.2.482.662.662,0,0,1-.047.257.7.7,0,0,1-.149.218.607.607,0,0,1-.217.149A.685.685,0,0,1,40.825,43.349Z" fill="#ffa500"/>
        </g>
        <g id="Group_2431" data-name="Group 2431">
          <path id="Path_24865" data-name="Path 24865" d="M56.4,42.671a.676.676,0,0,1,.678-.679h0a.672.672,0,0,1,.678.679h0a.675.675,0,0,1-.678.678h0A.68.68,0,0,1,56.4,42.671Zm-2.706,0a.676.676,0,0,1,.678-.679h0a.676.676,0,0,1,.678.679h0a.68.68,0,0,1-.678.678h0A.679.679,0,0,1,53.694,42.671Zm-2.707,0a.672.672,0,0,1,.678-.679h0a.671.671,0,0,1,.672.679h0a.675.675,0,0,1-.672.678h0A.675.675,0,0,1,50.987,42.671Zm-2.714,0a.677.677,0,0,1,.679-.679h0a.676.676,0,0,1,.678.679h0a.68.68,0,0,1-.678.678h0A.681.681,0,0,1,48.273,42.671Zm-2.706,0a.676.676,0,0,1,.678-.679h0a.676.676,0,0,1,.678.679h0a.68.68,0,0,1-.678.678h0A.68.68,0,0,1,45.567,42.671Zm-2.707,0a.672.672,0,0,1,.678-.679h0a.677.677,0,0,1,.679.679h0a.681.681,0,0,1-.679.678h0A.676.676,0,0,1,42.86,42.671Z" fill="#ffa500"/>
        </g>
        <g id="Group_2432" data-name="Group 2432">
          <path id="Path_24866" data-name="Path 24866" d="M59.791,43.349a.678.678,0,0,1-.481-.2.68.68,0,0,1,0-.957.666.666,0,0,1,.739-.149.683.683,0,0,1,.217.149.663.663,0,0,1,0,.957A.661.661,0,0,1,59.791,43.349Z" fill="#ffa500"/>
        </g>
        <g id="Group_2433" data-name="Group 2433">
          <path id="Path_24867" data-name="Path 24867" d="M59.269,45.784a.681.681,0,0,1-.556-.78h0a.681.681,0,0,1,.78-.563h0a.682.682,0,0,1,.556.787h0a.675.675,0,0,1-.664.563h0A.646.646,0,0,1,59.269,45.784Z" fill="#ffa500"/>
        </g>
        <g id="Group_2434" data-name="Group 2434">
          <path id="Path_24868" data-name="Path 24868" d="M58.977,48.233a.685.685,0,0,1-.685-.672.7.7,0,0,1,.421-.63.688.688,0,0,1,.739.149.662.662,0,0,1,0,.956.587.587,0,0,1-.216.149A.655.655,0,0,1,58.977,48.233Z" fill="#ffa500"/>
        </g>
        <g id="Group_2435" data-name="Group 2435">
          <path id="Path_24869" data-name="Path 24869" d="M55.593,47.561a.676.676,0,0,1,.678-.678h0a.677.677,0,0,1,.679.678h0a.676.676,0,0,1-.679.672h0A.675.675,0,0,1,55.593,47.561Zm-2.707,0a.672.672,0,0,1,.678-.678h0a.677.677,0,0,1,.679.678h0a.676.676,0,0,1-.679.672h0A.671.671,0,0,1,52.886,47.561Zm-2.707,0a.677.677,0,0,1,.679-.678h0a.676.676,0,0,1,.678.678h0a.675.675,0,0,1-.678.672h0A.676.676,0,0,1,50.179,47.561Zm-2.706,0a.676.676,0,0,1,.678-.678h0a.675.675,0,0,1,.678.678h0a.674.674,0,0,1-.678.672h0A.675.675,0,0,1,47.473,47.561Zm-2.707,0a.676.676,0,0,1,.679-.678h0a.676.676,0,0,1,.678.678h0a.675.675,0,0,1-.678.672h0A.675.675,0,0,1,44.766,47.561Zm-2.706,0a.676.676,0,0,1,.678-.678h0a.672.672,0,0,1,.678.678h0a.67.67,0,0,1-.678.672h0A.675.675,0,0,1,42.06,47.561Z" fill="#ffa500"/>
        </g>
        <g id="Group_2436" data-name="Group 2436">
          <path id="Path_24870" data-name="Path 24870" d="M40.038,48.233a.631.631,0,0,1-.258-.048.562.562,0,0,1-.224-.149.668.668,0,0,1-.2-.475.675.675,0,0,1,.2-.481.667.667,0,0,1,.957,0,.664.664,0,0,1,0,.956.582.582,0,0,1-.217.149A.647.647,0,0,1,40.038,48.233Z" fill="#ffa500"/>
        </g>
        <g id="Group_2437" data-name="Group 2437">
          <path id="Path_24871" data-name="Path 24871" d="M39.272,50.01a.684.684,0,0,1,.671-.684h0a.68.68,0,0,1,.685.671h0a.675.675,0,0,1-.671.685H39.95A.679.679,0,0,1,39.272,50.01Z" fill="#ffa500"/>
        </g>
        <g id="Group_2438" data-name="Group 2438">
          <path id="Path_24872" data-name="Path 24872" d="M40.072,53.124a.631.631,0,0,1-.481-.2.663.663,0,0,1,0-.956,1.134,1.134,0,0,1,.1-.088c.034-.021.075-.041.115-.061l.13-.041a.835.835,0,0,1,.264,0c.048.013.088.027.129.041a1.219,1.219,0,0,1,.115.061.421.421,0,0,1,.1.088.586.586,0,0,1,.149.217.657.657,0,0,1-.149.739.683.683,0,0,1-.217.149A.647.647,0,0,1,40.072,53.124Z" fill="#ffa500"/>
        </g>
        <g id="Group_2439" data-name="Group 2439">
          <path id="Path_24873" data-name="Path 24873" d="M54.894,52.446a.681.681,0,0,1,.678-.679h0a.682.682,0,0,1,.679.679h0a.682.682,0,0,1-.679.685h0A.681.681,0,0,1,54.894,52.446Zm-2.584,0a.68.68,0,0,1,.678-.679h0a.676.676,0,0,1,.678.679h0a.677.677,0,0,1-.678.685h0A.681.681,0,0,1,52.31,52.446Zm-2.585,0a.682.682,0,0,1,.685-.679h0a.685.685,0,0,1,.678.679h0a.686.686,0,0,1-.678.685h0A.683.683,0,0,1,49.725,52.446Zm-2.584,0a.68.68,0,0,1,.678-.679h0a.682.682,0,0,1,.685.679h0a.683.683,0,0,1-.685.685h0A.681.681,0,0,1,47.141,52.446Zm-2.579,0a.676.676,0,0,1,.672-.679h0a.682.682,0,0,1,.685.679h0a.683.683,0,0,1-.685.685h0A.676.676,0,0,1,44.562,52.446Zm-2.584,0a.677.677,0,0,1,.679-.679h0a.681.681,0,0,1,.678.679h0a.681.681,0,0,1-.678.685h0A.678.678,0,0,1,41.978,52.446Z" fill="#ffa500"/>
        </g>
        <g id="Group_2440" data-name="Group 2440">
          <path id="Path_24874" data-name="Path 24874" d="M58.156,53.124a.645.645,0,0,1-.257-.048.8.8,0,0,1-.224-.149.671.671,0,0,1-.143-.739.683.683,0,0,1,.143-.217.7.7,0,0,1,.617-.19l.123.041c.047.02.081.04.122.061a1.134,1.134,0,0,1,.1.088.678.678,0,0,1,0,.956.683.683,0,0,1-.217.149A.658.658,0,0,1,58.156,53.124Z" fill="#ffa500"/>
        </g>
        <g id="Group_2441" data-name="Group 2441">
          <path id="Path_24875" data-name="Path 24875" d="M57.641,55.566a.678.678,0,0,1-.556-.787h0a.678.678,0,0,1,.78-.556h0a.681.681,0,0,1,.556.78h0a.683.683,0,0,1-.671.57h0C57.716,55.573,57.675,55.566,57.641,55.566Z" fill="#ffa500"/>
        </g>
        <g id="Group_2442" data-name="Group 2442">
          <path id="Path_24876" data-name="Path 24876" d="M57.343,58.015a.65.65,0,0,1-.258-.048.694.694,0,0,1-.217-.149.594.594,0,0,1-.149-.217.709.709,0,0,1-.054-.265.688.688,0,0,1,.2-.481.708.708,0,0,1,.957,0,.685.685,0,0,1,.2.481.722.722,0,0,1-.047.265.694.694,0,0,1-.149.217A.674.674,0,0,1,57.343,58.015Z" fill="#ffa500"/>
        </g>
        <g id="Group_2443" data-name="Group 2443">
          <path id="Path_24877" data-name="Path 24877" d="M53.931,57.336a.676.676,0,0,1,.678-.678h0a.681.681,0,0,1,.678.678h0a.681.681,0,0,1-.678.679h0A.676.676,0,0,1,53.931,57.336Zm-2.741,0a.681.681,0,0,1,.679-.678h0a.677.677,0,0,1,.678.678h0a.677.677,0,0,1-.678.679h0A.682.682,0,0,1,51.19,57.336Zm-2.734,0a.681.681,0,0,1,.679-.678h0a.681.681,0,0,1,.678.678h0a.681.681,0,0,1-.678.679h0A.682.682,0,0,1,48.456,57.336Zm-2.74,0a.681.681,0,0,1,.678-.678h0a.687.687,0,0,1,.686.678h0a.688.688,0,0,1-.686.679h0A.681.681,0,0,1,45.716,57.336Zm-2.733,0a.68.68,0,0,1,.678-.678h0a.681.681,0,0,1,.678.678h0a.681.681,0,0,1-.678.679h0A.68.68,0,0,1,42.983,57.336Z" fill="#ffa500"/>
        </g>
        <g id="Group_2444" data-name="Group 2444">
          <path id="Path_24878" data-name="Path 24878" d="M40.927,58.015a.661.661,0,0,1-.265-.048.694.694,0,0,1-.217-.149A.594.594,0,0,1,40.3,57.6a.673.673,0,0,1,.149-.746c.028-.027.068-.054.1-.082a.4.4,0,0,1,.115-.061.5.5,0,0,1,.129-.04.835.835,0,0,1,.264,0,.487.487,0,0,1,.13.04.4.4,0,0,1,.115.061c.034.028.067.055.1.082a.693.693,0,0,1,.2.481.682.682,0,0,1-.054.265.694.694,0,0,1-.149.217.706.706,0,0,1-.217.149A.653.653,0,0,1,40.927,58.015Z" fill="#ffa500"/>
        </g>
        <g id="Group_2445" data-name="Group 2445">
          <path id="Path_24879" data-name="Path 24879" d="M49.84,70.035a.674.674,0,0,1-.325-.9h0a.671.671,0,0,1,.9-.326h0a.68.68,0,0,1,.325.9h0a.678.678,0,0,1-.617.386h0A.717.717,0,0,1,49.84,70.035Zm-2.36-1.377a.674.674,0,0,1-.156-.943h0a.669.669,0,0,1,.943-.162h0a.683.683,0,0,1,.162.949h0a.691.691,0,0,1-.556.278h0A.7.7,0,0,1,47.48,68.658ZM45.4,66.888a.683.683,0,0,1,.006-.957h0a.671.671,0,0,1,.957.007h0a.674.674,0,0,1,0,.956h0a.693.693,0,0,1-.482.2h0A.687.687,0,0,1,45.4,66.888Zm-1.75-2.076h0a.675.675,0,0,1,.156-.943h0a.667.667,0,0,1,.943.15h0a.688.688,0,0,1-.149.949h0a.724.724,0,0,1-.4.129h0A.684.684,0,0,1,43.654,64.812Zm-1.425-2.293a.681.681,0,0,1,.279-.922h0a.682.682,0,0,1,.915.284h0a.674.674,0,0,1-.278.916h0a.678.678,0,0,1-.319.081h0A.682.682,0,0,1,42.229,62.519ZM41.1,60.07a.685.685,0,0,1,.387-.881h0a.684.684,0,0,1,.882.386h0a.684.684,0,0,1-.387.882h0a.781.781,0,0,1-.244.047h0A.7.7,0,0,1,41.1,60.07Z" fill="#ffa500"/>
        </g>
        <g id="Group_2446" data-name="Group 2446">
          <path id="Path_24880" data-name="Path 24880" d="M52.587,70.985a.645.645,0,0,1-.257-.048.8.8,0,0,1-.217-.149.7.7,0,0,1-.2-.482.82.82,0,0,1,.014-.129.416.416,0,0,1,.04-.128.6.6,0,0,1,.15-.218.6.6,0,0,1,.217-.149.453.453,0,0,1,.129-.041.588.588,0,0,1,.264,0,.494.494,0,0,1,.123.041.658.658,0,0,1,.365.367.37.37,0,0,1,.041.128.409.409,0,0,1,.014.129.683.683,0,0,1-.047.258.965.965,0,0,1-.15.224,1,1,0,0,1-.223.149A.655.655,0,0,1,52.587,70.985Z" fill="#ffa500"/>
        </g>
        <g id="Group_2447" data-name="Group 2447">
          <path id="Path_24881" data-name="Path 24881" d="M54.7,77.707a.677.677,0,0,1,.176-.943h0a.679.679,0,0,1,.944.17h0a.677.677,0,0,1-.177.943h0a.672.672,0,0,1-.386.122h0A.677.677,0,0,1,54.7,77.707Zm-1.316-2.279h0a.675.675,0,0,1,.326-.9h0a.673.673,0,0,1,.9.319h0a.675.675,0,0,1-.326.9h0a.6.6,0,0,1-.285.069h0A.681.681,0,0,1,53.381,75.428Zm-.936-2.462v.006a.691.691,0,0,1,.462-.848h0a.679.679,0,0,1,.84.462h0a.681.681,0,0,1-.461.848h0a.946.946,0,0,1-.19.027h0A.687.687,0,0,1,52.445,72.966Z" fill="#ffa500"/>
        </g>
      </g>
    </g>
    <g id="Group_2451" data-name="Group 2451">
      <g id="Group_2450" data-name="Group 2450">
        <rect id="Rectangle_53" data-name="Rectangle 53" width="59.936" height="59.936" transform="translate(20.03 20.064)" fill="none"/>
      </g>
    </g>
  </g>
</svg>