<svg xmlns="http://www.w3.org/2000/svg" width="59.936" height="60" viewBox="0 0 59.936 60">
  <g id="Central-modern-office" transform="translate(-20.029 -20)">
    <g id="Group_2569" data-name="Group 2569">
      <g id="Group_2568" data-name="Group 2568">
        <g id="Group_2567" data-name="Group 2567">
          <g id="Group_2566" data-name="Group 2566">
            <g id="Group_2565" data-name="Group 2565">
              <rect id="Rectangle_57" data-name="Rectangle 57" width="59.936" height="59.936" transform="translate(20.029 20.064)" fill="none"/>
            </g>
          </g>
        </g>
      </g>
    </g>
    <g id="Group_342" data-name="Group 342">
      <g id="Path_118" data-name="Path 118">
        <g id="Group_2570" data-name="Group 2570">
          <path id="Path_24978" data-name="Path 24978" d="M50.1,46.353a.6.6,0,0,1-.224-.047.515.515,0,0,1-.188-.129.521.521,0,0,1-.13-.189.555.555,0,0,1,0-.447.5.5,0,0,1,.13-.194.607.607,0,0,1,.829,0,.559.559,0,0,1,.129.194.572.572,0,0,1,.042.224.562.562,0,0,1-.171.412.523.523,0,0,1-.188.129A.6.6,0,0,1,50.1,46.353Z" fill="#ffa500"/>
        </g>
        <g id="Group_2571" data-name="Group 2571">
          <path id="Path_24979" data-name="Path 24979" d="M47.678,46.135h0a.588.588,0,0,1-.476-.682h0a.594.594,0,0,1,.682-.476v0a.583.583,0,0,1,.476.683h0a.591.591,0,0,1-.582.482h0A.3.3,0,0,1,47.678,46.135Zm-2.347-.641V45.5h0a.592.592,0,0,1-.347-.759h0a.591.591,0,0,1,.759-.347h0a.6.6,0,0,1,.347.759h0a.6.6,0,0,1-.553.383h0A.5.5,0,0,1,45.331,45.494Zm-2.194-1.047h0a.586.586,0,0,1-.206-.806h0a.586.586,0,0,1,.806-.206h0a.587.587,0,0,1,.206.806h0a.6.6,0,0,1-.506.289h0A.605.605,0,0,1,43.137,44.447ZM41.16,43.023a.586.586,0,0,1-.058-.829h0a.586.586,0,0,1,.829-.059h0a.588.588,0,0,1,.059.83h0a.585.585,0,0,1-.447.206h0A.57.57,0,0,1,41.16,43.023Zm-1.688-1.746h0a.581.581,0,0,1,.083-.824h0a.587.587,0,0,1,.829.083h0a.587.587,0,0,1-.088.828h0a.578.578,0,0,1-.371.13h0A.563.563,0,0,1,39.472,41.277Zm-1.359-2.018h0a.59.59,0,0,1,.23-.8h0a.589.589,0,0,1,.8.235h0a.59.59,0,0,1-.23.8h0a.626.626,0,0,1-.282.071h0A.587.587,0,0,1,38.113,39.259Zm-.976-2.229a.58.58,0,0,1,.37-.742h0a.578.578,0,0,1,.741.371h0a.577.577,0,0,1-.37.741h0a.485.485,0,0,1-.182.029h0A.585.585,0,0,1,37.137,37.03Zm-.571-2.365h.006A.586.586,0,0,1,37.066,34h0a.591.591,0,0,1,.671.494h0a.592.592,0,0,1-.5.671h0c-.029,0-.059.006-.089.006h0A.594.594,0,0,1,36.566,34.665Zm-.141-2.406a.59.59,0,0,1,.588-.588h0a.582.582,0,0,1,.589.582h0a.586.586,0,0,1-.589.588h0A.585.585,0,0,1,36.425,32.259Zm-.006-2.335a.586.586,0,0,1,.589-.588h0a.59.59,0,0,1,.588.588h0a.586.586,0,0,1-.588.588h0A.59.59,0,0,1,36.419,29.924Zm-.006-2.33A.59.59,0,0,1,37,27.006h0a.587.587,0,0,1,.589.588h0a.591.591,0,0,1-.589.589h0A.59.59,0,0,1,36.413,27.594Zm-.006-2.329A.593.593,0,0,1,37,24.67h0a.59.59,0,0,1,.588.589h0a.586.586,0,0,1-.588.588h0A.585.585,0,0,1,36.407,25.265ZM36.4,22.929a.59.59,0,0,1,.588-.588h0a.59.59,0,0,1,.588.588h0a.587.587,0,0,1-.588.589h0A.59.59,0,0,1,36.4,22.929Z" fill="#ffa500"/>
        </g>
        <g id="Group_2572" data-name="Group 2572">
          <path id="Path_24980" data-name="Path 24980" d="M36.984,21.177a.567.567,0,0,1-.223-.042.689.689,0,0,1-.195-.129.546.546,0,0,1-.123-.194.555.555,0,0,1,0-.447.651.651,0,0,1,.123-.194.616.616,0,0,1,.836,0,.651.651,0,0,1,.123.194.555.555,0,0,1,0,.447.546.546,0,0,1-.123.194.7.7,0,0,1-.194.129A.572.572,0,0,1,36.984,21.177Z" fill="#ffa500"/>
        </g>
        <g id="Group_2573" data-name="Group 2573">
          <path id="Path_24981" data-name="Path 24981" d="M34.3,20.588A.59.59,0,0,1,34.884,20h0a.59.59,0,0,1,.588.588h0a.59.59,0,0,1-.588.589h0A.59.59,0,0,1,34.3,20.588Zm-2.1,0A.59.59,0,0,1,32.784,20h0a.59.59,0,0,1,.588.588h0a.59.59,0,0,1-.588.589h0A.59.59,0,0,1,32.2,20.588Zm-2.1,0A.59.59,0,0,1,30.684,20h0a.59.59,0,0,1,.588.588h0a.59.59,0,0,1-.588.589h0A.59.59,0,0,1,30.1,20.588Z" fill="#ffa500"/>
        </g>
        <g id="Group_2574" data-name="Group 2574">
          <path id="Path_24982" data-name="Path 24982" d="M28.584,21.177a.583.583,0,0,1-.418-.171.574.574,0,0,1-.129-.641.692.692,0,0,1,.129-.194.6.6,0,0,1,.83,0,.583.583,0,0,1,.129.194.555.555,0,0,1,0,.447.5.5,0,0,1-.129.194.588.588,0,0,1-.189.129A.567.567,0,0,1,28.584,21.177Z" fill="#ffa500"/>
        </g>
        <g id="Group_2575" data-name="Group 2575">
          <path id="Path_24983" data-name="Path 24983" d="M35.184,48.971a.581.581,0,0,1-.035-.83h0a.586.586,0,0,1,.829-.041h0a.588.588,0,0,1,.035.835h0a.58.58,0,0,1-.435.189h0A.57.57,0,0,1,35.184,48.971Zm-1.659-1.683a.582.582,0,0,1,.053-.829h0a.587.587,0,0,1,.83.047h0a.589.589,0,0,1-.054.835h0a.594.594,0,0,1-.387.141h0A.592.592,0,0,1,33.525,47.288Zm-1.47-1.852a.592.592,0,0,1,.141-.824h0a.591.591,0,0,1,.823.141h0a.6.6,0,0,1-.141.823h0a.61.61,0,0,1-.341.107h0A.606.606,0,0,1,32.055,45.436Zm-1.259-2a.588.588,0,0,1,.223-.8h0a.588.588,0,0,1,.8.224h0a.6.6,0,0,1-.223.806h0a.635.635,0,0,1-.289.07h0A.579.579,0,0,1,30.8,43.435Zm-1.041-2.123a.585.585,0,0,1,.311-.771h0a.588.588,0,0,1,.771.312h0a.591.591,0,0,1-.312.771h0a.646.646,0,0,1-.229.047h0A.587.587,0,0,1,29.755,41.312Zm-.812-2.224a.6.6,0,0,1,.394-.735h0a.59.59,0,0,1,.735.394h0a.59.59,0,0,1-.394.736h0a.563.563,0,0,1-.17.023h0A.6.6,0,0,1,28.943,39.088Zm-.565-2.294a.592.592,0,0,1,.471-.688h0a.592.592,0,0,1,.688.465h0a.594.594,0,0,1-.47.694h0a.767.767,0,0,1-.107.005h0A.591.591,0,0,1,28.378,36.794Zm-.312-2.341h0a.584.584,0,0,1,.536-.635h0a.591.591,0,0,1,.635.541h0a.586.586,0,0,1-.541.629h-.047A.583.583,0,0,1,28.066,34.453ZM28,32.1a.586.586,0,0,1,.588-.588h0a.584.584,0,0,1,.582.588h0a.584.584,0,0,1-.582.588h0A.586.586,0,0,1,28,32.1Zm0-2.3a.583.583,0,0,1,.588-.588h0a.581.581,0,0,1,.582.588h0a.585.585,0,0,1-.582.589h0A.587.587,0,0,1,28,29.8Zm0-2.306a.586.586,0,0,1,.588-.588h0a.584.584,0,0,1,.582.588h0a.585.585,0,0,1-.582.589h0A.587.587,0,0,1,28,27.494Zm0-2.3a.586.586,0,0,1,.588-.588h0a.585.585,0,0,1,.582.588h0a.585.585,0,0,1-.582.589h0A.587.587,0,0,1,28,25.194Zm0-2.3a.588.588,0,0,1,.588-.594h0a.586.586,0,0,1,.582.594h0a.585.585,0,0,1-.582.589h0A.587.587,0,0,1,28,22.894Z" fill="#ffa500"/>
        </g>
        <g id="Group_2576" data-name="Group 2576">
          <path id="Path_24984" data-name="Path 24984" d="M37.372,50.588a.551.551,0,0,1-.418-.17.7.7,0,0,1-.129-.194A.589.589,0,0,1,36.784,50a.357.357,0,0,1,.012-.112.53.53,0,0,1,.029-.111c.018-.036.036-.071.053-.1a.587.587,0,0,1,.076-.095.607.607,0,0,1,.53-.159.387.387,0,0,1,.112.036.3.3,0,0,1,.1.053.615.615,0,0,1,.088.07.537.537,0,0,1,.076.095.5.5,0,0,1,.054.1.688.688,0,0,1,.035.111.852.852,0,0,1,.012.112.6.6,0,0,1-.047.224.607.607,0,0,1-.13.194.546.546,0,0,1-.412.17Z" fill="#ffa500"/>
        </g>
        <g id="Group_2577" data-name="Group 2577">
          <path id="Path_24985" data-name="Path 24985" d="M38.76,49.047a.586.586,0,0,1,.207-.806h0a.589.589,0,0,1,.805.206h0a.59.59,0,0,1-.206.806h0a.562.562,0,0,1-.3.082h0A.576.576,0,0,1,38.76,49.047Zm1.988-1.1a.588.588,0,0,1,.295-.782h0a.592.592,0,0,1,.776.294h0a.591.591,0,0,1-.294.776h0a.53.53,0,0,1-.241.053h0A.574.574,0,0,1,40.748,47.947Zm2.089-.882a.6.6,0,0,1,.376-.747h0a.59.59,0,0,1,.741.376h0a.583.583,0,0,1-.37.741h0a.485.485,0,0,1-.182.029h0A.586.586,0,0,1,42.837,47.065Zm2.176-.659a.6.6,0,0,1,.453-.7h0a.589.589,0,0,1,.7.453h0a.59.59,0,0,1-.453.7h0a.854.854,0,0,1-.123.012h0A.591.591,0,0,1,45.013,46.406Zm2.235-.424a.59.59,0,0,1,.524-.647h0a.588.588,0,0,1,.647.524h0a.588.588,0,0,1-.523.647h0c-.024,0-.042.005-.065.005h0A.587.587,0,0,1,47.248,45.982Z" fill="#ffa500"/>
        </g>
        <g id="Group_2578" data-name="Group 2578">
          <path id="Path_24986" data-name="Path 24986" d="M50.1,46.388a.589.589,0,0,1-.224-.041.667.667,0,0,1-.194-.13.6.6,0,0,1-.171-.417.607.607,0,0,1,.171-.412.579.579,0,0,1,.094-.076.321.321,0,0,1,.1-.053.326.326,0,0,1,.112-.035.733.733,0,0,1,.229,0,.339.339,0,0,1,.106.035.351.351,0,0,1,.106.053.868.868,0,0,1,.088.076.713.713,0,0,1,.129.188.572.572,0,0,1,.042.224.584.584,0,0,1-.588.588Z" fill="#ffa500"/>
        </g>
      </g>
      <g id="Path_119" data-name="Path 119">
        <g id="Group_2579" data-name="Group 2579">
          <path id="Path_24987" data-name="Path 24987" d="M49.9,46.353a.612.612,0,0,1-.417-.176.562.562,0,0,1-.171-.412.6.6,0,0,1,.047-.224.562.562,0,0,1,.124-.194.611.611,0,0,1,.535-.159.671.671,0,0,1,.106.03c.035.017.07.035.1.053a.633.633,0,0,1,.095.076.575.575,0,0,1,.123.194.6.6,0,0,1,.047.224.582.582,0,0,1-.17.412.619.619,0,0,1-.195.129A.591.591,0,0,1,49.9,46.353Z" fill="#ffa500"/>
        </g>
        <g id="Group_2580" data-name="Group 2580">
          <path id="Path_24988" data-name="Path 24988" d="M51.637,45.665a.593.593,0,0,1,.476-.688h0a.6.6,0,0,1,.683.476h0a.584.584,0,0,1-.477.682h0a.283.283,0,0,1-.1.012h0A.592.592,0,0,1,51.637,45.665Zm2.276-.512a.588.588,0,0,1,.341-.759h0a.591.591,0,0,1,.759.347h0a.584.584,0,0,1-.347.753h0a.5.5,0,0,1-.206.042h0A.59.59,0,0,1,53.913,45.153Zm2.142-.912a.591.591,0,0,1,.2-.806h0a.586.586,0,0,1,.806.206h0a.581.581,0,0,1-.205.806h0a.612.612,0,0,1-.3.083h0A.6.6,0,0,1,56.055,44.241Zm1.952-1.276a.589.589,0,0,1,.059-.83h0a.593.593,0,0,1,.83.059h0a.587.587,0,0,1-.059.829h0a.57.57,0,0,1-.382.148h0A.578.578,0,0,1,58.007,42.965Zm1.695-1.6a.588.588,0,0,1-.089-.828h0a.583.583,0,0,1,.83-.083h0a.587.587,0,0,1,.082.824h0a.579.579,0,0,1-.453.217h0A.573.573,0,0,1,59.7,41.364Zm1.382-1.87a.589.589,0,0,1-.229-.8h0a.589.589,0,0,1,.8-.235h0a.589.589,0,0,1,.23.8h0a.585.585,0,0,1-.512.306h0A.632.632,0,0,1,61.084,39.494ZM62.119,37.4a.584.584,0,0,1-.371-.741h0a.582.582,0,0,1,.742-.371h0a.587.587,0,0,1,.376.742H62.86a.584.584,0,0,1-.558.4h0A.487.487,0,0,1,62.119,37.4Zm.641-2.235a.584.584,0,0,1-.494-.671h0A.585.585,0,0,1,62.931,34h0a.586.586,0,0,1,.494.665h0a.588.588,0,0,1-.582.506h0C62.819,35.171,62.79,35.165,62.76,35.165Zm.224-2.324a.59.59,0,0,1-.589-.588h0a.582.582,0,0,1,.589-.582h0a.586.586,0,0,1,.588.588h0a.584.584,0,0,1-.588.582ZM62.4,29.924a.589.589,0,0,1,.588-.588h0a.59.59,0,0,1,.588.588h0a.586.586,0,0,1-.588.588h0A.59.59,0,0,1,62.4,29.924ZM63,28.183a.587.587,0,0,1-.589-.589h0A.587.587,0,0,1,63,27.006h0a.586.586,0,0,1,.588.588h0a.59.59,0,0,1-.588.589Zm-.583-2.924A.59.59,0,0,1,63,24.67h0a.6.6,0,0,1,.589.595h0a.585.585,0,0,1-.589.582h0A.59.59,0,0,1,62.413,25.259Zm.006-2.33a.59.59,0,0,1,.588-.588h0a.586.586,0,0,1,.588.588h0a.586.586,0,0,1-.588.589h0A.587.587,0,0,1,62.419,22.929Z" fill="#ffa500"/>
        </g>
        <g id="Group_2581" data-name="Group 2581">
          <path id="Path_24989" data-name="Path 24989" d="M63.013,21.177a.567.567,0,0,1-.223-.042.671.671,0,0,1-.194-.129.548.548,0,0,1-.124-.194.554.554,0,0,1-.047-.224.575.575,0,0,1,.047-.223.654.654,0,0,1,.124-.194.675.675,0,0,1,.194-.124.559.559,0,0,1,.341-.035.412.412,0,0,1,.106.035.477.477,0,0,1,.106.053l.088.071a.675.675,0,0,1,.124.194.555.555,0,0,1,0,.447.562.562,0,0,1-.124.194.684.684,0,0,1-.194.129A.572.572,0,0,1,63.013,21.177Z" fill="#ffa500"/>
        </g>
        <g id="Group_2582" data-name="Group 2582">
          <path id="Path_24990" data-name="Path 24990" d="M68.731,20.588A.585.585,0,0,1,69.313,20h0a.591.591,0,0,1,.594.588h0a.591.591,0,0,1-.594.589h0A.585.585,0,0,1,68.731,20.588Zm-2.106,0A.59.59,0,0,1,67.213,20h0a.59.59,0,0,1,.588.588h0a.59.59,0,0,1-.588.589h0A.59.59,0,0,1,66.625,20.588Zm-2.1,0A.59.59,0,0,1,65.113,20h0a.59.59,0,0,1,.588.588h0a.59.59,0,0,1-.588.589h0A.59.59,0,0,1,64.525,20.588Z" fill="#ffa500"/>
        </g>
        <g id="Group_2583" data-name="Group 2583">
          <path id="Path_24991" data-name="Path 24991" d="M71.419,21.177a.6.6,0,0,1-.229-.042A.584.584,0,0,1,71,21.006a.561.561,0,0,1-.13-.194.63.63,0,0,1,0-.447.674.674,0,0,1,.13-.194.607.607,0,0,1,.829,0,.568.568,0,0,1,.129.194.544.544,0,0,1,0,.447.487.487,0,0,1-.129.194.6.6,0,0,1-.188.129A.572.572,0,0,1,71.419,21.177Z" fill="#ffa500"/>
        </g>
        <g id="Group_2584" data-name="Group 2584">
          <path id="Path_24992" data-name="Path 24992" d="M63.984,48.935a.593.593,0,0,1,.035-.835h0a.587.587,0,0,1,.83.041h0a.582.582,0,0,1-.036.83h0a.568.568,0,0,1-.394.153h0A.592.592,0,0,1,63.984,48.935Zm1.659-1.6a.586.586,0,0,1-.053-.829h0a.585.585,0,0,1,.829-.047h0a.581.581,0,0,1,.053.829h0a.6.6,0,0,1-.441.2h0A.588.588,0,0,1,65.643,47.335Zm1.482-1.759a.587.587,0,0,1-.141-.823h0a.59.59,0,0,1,.817-.141h0a.6.6,0,0,1,.142.824h0a.608.608,0,0,1-.483.247h0A.578.578,0,0,1,67.125,45.576ZM68.4,43.659a.581.581,0,0,1-.224-.794h0a.583.583,0,0,1,.8-.23h0a.587.587,0,0,1,.223.8h0a.577.577,0,0,1-.511.3h0A.567.567,0,0,1,68.4,43.659Zm1.07-2.035a.588.588,0,0,1-.312-.771h0a.586.586,0,0,1,.771-.312h0a.584.584,0,0,1,.312.771h0a.588.588,0,0,1-.541.359h0A.647.647,0,0,1,69.472,41.624Zm.847-2.141a.591.591,0,0,1-.394-.736h0a.59.59,0,0,1,.735-.394h0a.59.59,0,0,1,.395.735h0a.6.6,0,0,1-.565.418h0A.592.592,0,0,1,70.319,39.483Zm.612-2.218a.6.6,0,0,1-.47-.689h0a.587.587,0,0,1,.688-.47h0a.592.592,0,0,1,.47.688h0a.586.586,0,0,1-.582.476h0A.752.752,0,0,1,70.931,37.265Zm.371-2.277a.592.592,0,0,1-.542-.635v.006a.588.588,0,0,1,.636-.541h0a.589.589,0,0,1,.541.635h-.006a.587.587,0,0,1-.582.541h0C71.331,34.994,71.319,34.988,71.3,34.988ZM70.831,32.1a.586.586,0,0,1,.588-.588h0a.59.59,0,0,1,.589.588h0a.59.59,0,0,1-.589.588h0A.586.586,0,0,1,70.831,32.1Zm0-2.3a.586.586,0,0,1,.588-.588h0a.59.59,0,0,1,.589.588h0a.591.591,0,0,1-.589.589h0A.587.587,0,0,1,70.831,29.8Zm0-2.306a.586.586,0,0,1,.588-.588h0a.59.59,0,0,1,.589.588h0a.591.591,0,0,1-.589.589h0A.587.587,0,0,1,70.831,27.494Zm0-2.3a.586.586,0,0,1,.588-.588h0a.59.59,0,0,1,.589.588h0a.591.591,0,0,1-.589.589h0A.587.587,0,0,1,70.831,25.194Zm0-2.3a.583.583,0,0,1,.588-.588h0a.587.587,0,0,1,.589.588h0a.586.586,0,0,1-.589.583h0A.582.582,0,0,1,70.831,22.894Z" fill="#ffa500"/>
        </g>
        <g id="Group_2585" data-name="Group 2585">
          <path id="Path_24993" data-name="Path 24993" d="M62.631,50.588a.594.594,0,0,1-.229-.041.588.588,0,0,1-.189-.129.6.6,0,0,1-.129-.194A.589.589,0,0,1,62.043,50a.357.357,0,0,1,.012-.112.53.53,0,0,1,.029-.111,1.026,1.026,0,0,1,.053-.1.586.586,0,0,1,.076-.095.6.6,0,0,1,.53-.159.371.371,0,0,1,.111.036.292.292,0,0,1,.1.053.575.575,0,0,1,.089.07.587.587,0,0,1,.076.095.5.5,0,0,1,.053.1c.012.035.024.07.036.111a.849.849,0,0,1,.011.112.6.6,0,0,1-.047.224.6.6,0,0,1-.129.194.55.55,0,0,1-.412.17Z" fill="#ffa500"/>
        </g>
        <g id="Group_2586" data-name="Group 2586">
          <path id="Path_24994" data-name="Path 24994" d="M60.437,49.253h0a.581.581,0,0,1-.212-.8h0a.587.587,0,0,1,.806-.212h0a.592.592,0,0,1,.211.806h0a.6.6,0,0,1-.511.288h0A.528.528,0,0,1,60.437,49.253Zm-1.965-1.012a.592.592,0,0,1-.294-.782h0a.592.592,0,0,1,.782-.294h0a.6.6,0,0,1,.294.782h0a.591.591,0,0,1-.541.341h0A.614.614,0,0,1,58.472,48.241Zm-2.059-.806h.006a.579.579,0,0,1-.376-.741h0a.582.582,0,0,1,.741-.376h0a.587.587,0,0,1,.371.741h0a.572.572,0,0,1-.554.405h0A.516.516,0,0,1,56.413,47.435Zm-2.129-.576a.594.594,0,0,1-.453-.7h0a.594.594,0,0,1,.7-.453h0a.593.593,0,0,1,.453.7h0a.591.591,0,0,1-.576.465h0A.854.854,0,0,1,54.284,46.859Zm-2.176-.353H52.1a.58.58,0,0,1-.517-.647h0a.586.586,0,0,1,.647-.524h-.006a.589.589,0,0,1,.524.647h0a.583.583,0,0,1-.583.529h0C52.148,46.511,52.125,46.506,52.108,46.506Z" fill="#ffa500"/>
        </g>
        <g id="Group_2587" data-name="Group 2587">
          <path id="Path_24995" data-name="Path 24995" d="M49.9,46.388a.588.588,0,0,1-.223-.041.667.667,0,0,1-.194-.13.579.579,0,0,1-.171-.417.607.607,0,0,1,.171-.412.584.584,0,0,1,.535-.164.668.668,0,0,1,.206.088.633.633,0,0,1,.095.076.612.612,0,0,1,.123.188.557.557,0,0,1,0,.448.624.624,0,0,1-.123.193A.585.585,0,0,1,49.9,46.388Z" fill="#ffa500"/>
        </g>
      </g>
      <g id="Path_120" data-name="Path 120">
        <g id="Group_2588" data-name="Group 2588">
          <path id="Path_24996" data-name="Path 24996" d="M50.1,54.788a.584.584,0,0,1-.418-.176.608.608,0,0,1-.171-.418.723.723,0,0,1,.012-.112.432.432,0,0,1,.035-.111.331.331,0,0,1,.053-.1c.024-.03.047-.065.071-.089a.579.579,0,0,1,.094-.076c.029-.018.065-.035.1-.053a.54.54,0,0,1,.112-.029.492.492,0,0,1,.229,0,.6.6,0,0,1,.106.029c.041.018.071.035.106.053a.868.868,0,0,1,.088.076.514.514,0,0,1,.071.089.331.331,0,0,1,.053.1.4.4,0,0,1,.035.111.723.723,0,0,1,.012.112.576.576,0,0,1-.042.229.606.606,0,0,1-.546.365Z" fill="#ffa500"/>
        </g>
        <g id="Group_2589" data-name="Group 2589">
          <path id="Path_24997" data-name="Path 24997" d="M47.772,54.665h0a.589.589,0,0,1-.524-.647h0a.589.589,0,0,1,.648-.524h0a.588.588,0,0,1,.523.647h0a.59.59,0,0,1-.582.524h-.065Zm-2.306-.371a.6.6,0,0,1-.453-.7h0a.594.594,0,0,1,.7-.453h0a.59.59,0,0,1,.453.7h0a.59.59,0,0,1-.576.465h0A.867.867,0,0,1,45.466,54.294Zm-2.253-.612a.588.588,0,0,1-.37-.746h0a.581.581,0,0,1,.741-.372h0a.584.584,0,0,1,.37.742h0a.59.59,0,0,1-.558.406h0A.685.685,0,0,1,43.213,53.682Zm-2.17-.847a.59.59,0,0,1-.295-.782h0a.593.593,0,0,1,.777-.294h0a.592.592,0,0,1,.294.782h0a.589.589,0,0,1-.535.347h0A.564.564,0,0,1,41.043,52.835Zm-2.076-1.076a.591.591,0,0,1-.207-.806h0a.591.591,0,0,1,.806-.206h0a.59.59,0,0,1,.206.806h0a.6.6,0,0,1-.506.288h0A.556.556,0,0,1,38.967,51.759Z" fill="#ffa500"/>
        </g>
        <g id="Group_2590" data-name="Group 2590">
          <path id="Path_24998" data-name="Path 24998" d="M37.372,50.588a.579.579,0,0,1-.229-.047.514.514,0,0,1-.189-.129.6.6,0,0,1-.129-.635.614.614,0,0,1,.129-.195.588.588,0,0,1,.53-.159.387.387,0,0,1,.112.036.3.3,0,0,1,.1.053.393.393,0,0,1,.088.07.543.543,0,0,1,.13.195.563.563,0,0,1-.13.635.5.5,0,0,1-.188.129A.577.577,0,0,1,37.372,50.588Z" fill="#ffa500"/>
        </g>
        <g id="Group_2591" data-name="Group 2591">
          <path id="Path_24999" data-name="Path 24999" d="M27.99,77.1a.59.59,0,0,1,.588-.589h0a.592.592,0,0,1,.594.589h0a.591.591,0,0,1-.594.588h0A.59.59,0,0,1,27.99,77.1Zm0-2.3a.586.586,0,0,1,.588-.588h0a.587.587,0,0,1,.594.588h0a.586.586,0,0,1-.594.582h0A.584.584,0,0,1,27.99,74.8Zm0-2.306a.59.59,0,0,1,.588-.588h0a.591.591,0,0,1,.594.588h0a.592.592,0,0,1-.594.589h0A.59.59,0,0,1,27.99,72.494Zm0-2.3a.586.586,0,0,1,.588-.588h0a.587.587,0,0,1,.594.588h0a.591.591,0,0,1-.594.588h0A.59.59,0,0,1,27.99,70.194Zm0-2.306a.59.59,0,0,1,.588-.588h0a.591.591,0,0,1,.594.588h0a.592.592,0,0,1-.594.589h0A.59.59,0,0,1,27.99,67.888Zm.612-1.711a.588.588,0,0,1-.536-.636h0a.585.585,0,0,1,.636-.535h0a.582.582,0,0,1,.535.629h0a.586.586,0,0,1-.588.542H28.6Zm.247-2.289a.587.587,0,0,1-.465-.688h0a.591.591,0,0,1,.688-.471h0a.585.585,0,0,1,.465.688h0a.585.585,0,0,1-.577.477h0A.726.726,0,0,1,28.849,63.888Zm.488-2.252a.592.592,0,0,1-.388-.736h0a.591.591,0,0,1,.735-.388h0a.585.585,0,0,1,.388.735h0a.59.59,0,0,1-.559.418h0A.635.635,0,0,1,29.337,61.636Zm.729-2.183a.592.592,0,0,1-.311-.771h0a.591.591,0,0,1,.776-.312h0a.589.589,0,0,1,.306.771h0a.587.587,0,0,1-.541.359h0A.652.652,0,0,1,30.066,59.453Zm.959-2.094a.589.589,0,0,1-.224-.8H30.8a.6.6,0,0,1,.806-.23h0a.594.594,0,0,1,.223.806h0a.6.6,0,0,1-.512.3h0A.555.555,0,0,1,31.025,57.359ZM32.2,55.376a.583.583,0,0,1-.141-.817h0a.59.59,0,0,1,.817-.141h0a.586.586,0,0,1,.141.823h0a.586.586,0,0,1-.477.247h0A.559.559,0,0,1,32.2,55.376Zm1.382-1.841a.581.581,0,0,1-.053-.829h0a.592.592,0,0,1,.83-.053h0a.594.594,0,0,1,.052.835h0v-.006h0a.583.583,0,0,1-.441.2h0A.572.572,0,0,1,33.584,53.535Zm1.565-1.682a.586.586,0,0,1,.041-.829h0a.6.6,0,0,1,.835.035h0a.6.6,0,0,1-.041.835h0a.6.6,0,0,1-.4.153h0A.583.583,0,0,1,35.149,51.853Z" fill="#ffa500"/>
        </g>
        <g id="Group_2592" data-name="Group 2592">
          <path id="Path_25000" data-name="Path 25000" d="M28.578,80a.579.579,0,0,1-.412-.171.593.593,0,0,1-.129-.194.555.555,0,0,1,0-.447.721.721,0,0,1,.129-.194.607.607,0,0,1,.53-.159.4.4,0,0,1,.111.036.308.308,0,0,1,.1.052.566.566,0,0,1,.089.071.7.7,0,0,1,.129.194.59.59,0,0,1-.129.641A.583.583,0,0,1,28.578,80Z" fill="#ffa500"/>
        </g>
        <g id="Group_2593" data-name="Group 2593">
          <path id="Path_25001" data-name="Path 25001" d="M34.3,79.412a.59.59,0,0,1,.588-.588h0a.59.59,0,0,1,.588.588h0a.59.59,0,0,1-.588.588h0A.59.59,0,0,1,34.3,79.412Zm-2.1,0a.586.586,0,0,1,.588-.588h0a.589.589,0,0,1,.588.588h0a.59.59,0,0,1-.588.588h0A.586.586,0,0,1,32.2,79.412Zm-2.106,0a.589.589,0,0,1,.588-.588h0a.585.585,0,0,1,.588.588h0a.586.586,0,0,1-.588.588h0A.59.59,0,0,1,30.09,79.412Z" fill="#ffa500"/>
        </g>
        <g id="Group_2594" data-name="Group 2594">
          <path id="Path_25002" data-name="Path 25002" d="M36.984,80a.583.583,0,0,1-.418-.171.664.664,0,0,1-.123-.194.555.555,0,0,1,0-.447.6.6,0,0,1,.123-.194.662.662,0,0,1,.094-.071.323.323,0,0,1,.1-.052.345.345,0,0,1,.111-.036.607.607,0,0,1,.53.159.677.677,0,0,1,.123.194.555.555,0,0,1,0,.447.664.664,0,0,1-.123.194A.583.583,0,0,1,36.984,80Z" fill="#ffa500"/>
        </g>
        <g id="Group_2595" data-name="Group 2595">
          <path id="Path_25003" data-name="Path 25003" d="M36.4,77.077a.585.585,0,0,1,.588-.583h0a.586.586,0,0,1,.588.588h0a.59.59,0,0,1-.588.589h0A.6.6,0,0,1,36.4,77.077ZM37,75.335a.586.586,0,0,1-.589-.588h0A.591.591,0,0,1,37,74.158h0a.592.592,0,0,1,.588.6h0a.585.585,0,0,1-.588.582ZM37,73.006a.588.588,0,0,1-.588-.594h0A.585.585,0,0,1,37,71.829h0a.59.59,0,0,1,.589.588h0a.591.591,0,0,1-.589.589Zm-.582-2.924a.582.582,0,0,1,.589-.582h0a.59.59,0,0,1,.588.588h0a.59.59,0,0,1-.588.588h0A.6.6,0,0,1,36.419,70.082Zm.594-1.741a.59.59,0,0,1-.588-.588h0a.586.586,0,0,1,.588-.588h0a.59.59,0,0,1,.589.588h0a.586.586,0,0,1-.589.588Zm.053-2.329a.592.592,0,0,1-.5-.671h0v.006h0a.592.592,0,0,1,.671-.5h0a.588.588,0,0,1,.494.665h0a.586.586,0,0,1-.576.5h0A.532.532,0,0,1,37.066,66.012Zm.436-2.288a.591.591,0,0,1-.371-.748h0a.584.584,0,0,1,.741-.37h0a.592.592,0,0,1,.376.747h0a.6.6,0,0,1-.558.4h0A.715.715,0,0,1,37.5,63.724Zm.835-2.177a.588.588,0,0,1-.229-.8h0a.586.586,0,0,1,.8-.229h0a.586.586,0,0,1,.23.8h0a.589.589,0,0,1-.518.305h0A.565.565,0,0,1,38.337,61.547Zm1.211-1.988a.6.6,0,0,1-.087-.83h0a.589.589,0,0,1,.829-.088h0a.583.583,0,0,1,.088.824v.005a.6.6,0,0,1-.459.218h0A.635.635,0,0,1,39.548,59.559ZM41.1,57.812a.582.582,0,0,1,.06-.829h0a.581.581,0,0,1,.829.058h0a.589.589,0,0,1-.059.83h0a.6.6,0,0,1-.388.141h0A.6.6,0,0,1,41.1,57.812Zm1.824-1.448a.59.59,0,0,1,.206-.805h0a.58.58,0,0,1,.806.206h0a.589.589,0,0,1-.206.806h0a.615.615,0,0,1-.3.082h0A.6.6,0,0,1,42.919,56.364Zm2.053-1.1a.59.59,0,0,1,.347-.759h0a.59.59,0,0,1,.759.347h0a.584.584,0,0,1-.347.753h0a.5.5,0,0,1-.206.041h0A.6.6,0,0,1,44.972,55.265Zm2.218-.718a.593.593,0,0,1,.477-.683h0a.584.584,0,0,1,.681.471h0a.589.589,0,0,1-.47.689h0a.752.752,0,0,1-.106.005h0A.592.592,0,0,1,47.19,54.547Z" fill="#ffa500"/>
        </g>
        <g id="Group_2596" data-name="Group 2596">
          <path id="Path_25004" data-name="Path 25004" d="M50.1,54.824a.6.6,0,0,1-.224-.047.689.689,0,0,1-.194-.124.608.608,0,0,1-.171-.417.616.616,0,0,1,.171-.418.667.667,0,0,1,.194-.124.587.587,0,0,1,.447,0,.548.548,0,0,1,.194.124.616.616,0,0,1,.171.418.582.582,0,0,1-.171.417.562.562,0,0,1-.194.124A.594.594,0,0,1,50.1,54.824Z" fill="#ffa500"/>
        </g>
      </g>
      <g id="Path_121" data-name="Path 121">
        <g id="Group_2597" data-name="Group 2597">
          <path id="Path_25005" data-name="Path 25005" d="M49.9,54.788a.611.611,0,0,1-.417-.176.583.583,0,0,1-.171-.418.723.723,0,0,1,.012-.112.432.432,0,0,1,.035-.111.313.313,0,0,1,.054-.1.95.95,0,0,1,.07-.089,1.157,1.157,0,0,1,.088-.076l.106-.053a.621.621,0,0,1,.106-.029.492.492,0,0,1,.229,0,.524.524,0,0,1,.112.029c.035.018.07.035.1.053a.366.366,0,0,1,.088.076.575.575,0,0,1,.177.412.588.588,0,0,1-.177.418A.562.562,0,0,1,49.9,54.788Z" fill="#ffa500"/>
        </g>
        <g id="Group_2598" data-name="Group 2598">
          <path id="Path_25006" data-name="Path 25006" d="M51.578,54.141a.589.589,0,0,1,.523-.647h0a.589.589,0,0,1,.648.524h0a.588.588,0,0,1-.524.647h-.059A.592.592,0,0,1,51.578,54.141Zm2.253-.3a.59.59,0,0,1,.453-.7h0a.594.594,0,0,1,.7.453h0a.594.594,0,0,1-.453.7h0a.867.867,0,0,1-.123.012h0A.589.589,0,0,1,53.831,53.841Zm2.206-.535a.588.588,0,0,1,.376-.742h0a.587.587,0,0,1,.742.372h0a.587.587,0,0,1-.371.746h0a.689.689,0,0,1-.188.03h0A.592.592,0,0,1,56.037,53.306Zm2.141-.765a.587.587,0,0,1,.294-.782h0a.593.593,0,0,1,.777.294h0a.592.592,0,0,1-.3.782h0a.56.56,0,0,1-.241.053h0A.589.589,0,0,1,58.178,52.541Zm2.047-.988a.586.586,0,0,1,.206-.806h0a.588.588,0,0,1,.806.212h0a.582.582,0,0,1-.212.8h.006a.562.562,0,0,1-.3.082h0A.588.588,0,0,1,60.225,51.553Z" fill="#ffa500"/>
        </g>
        <g id="Group_2599" data-name="Group 2599">
          <path id="Path_25007" data-name="Path 25007" d="M62.625,50.588a.572.572,0,0,1-.223-.047.506.506,0,0,1-.189-.129.523.523,0,0,1-.129-.188.63.63,0,0,1,0-.447.54.54,0,0,1,.129-.195.588.588,0,0,1,.189-.123.548.548,0,0,1,.452,0,.588.588,0,0,1,.189.123.614.614,0,0,1,.129.195.59.59,0,0,1,.047.223.567.567,0,0,1-.176.412.506.506,0,0,1-.189.129A.579.579,0,0,1,62.625,50.588Z" fill="#ffa500"/>
        </g>
        <g id="Group_2600" data-name="Group 2600">
          <path id="Path_25008" data-name="Path 25008" d="M70.825,77.1a.59.59,0,0,1,.588-.589h0a.592.592,0,0,1,.6.589h0a.591.591,0,0,1-.6.588h0A.59.59,0,0,1,70.825,77.1Zm0-2.3a.591.591,0,0,1,.588-.594h0a.592.592,0,0,1,.6.594h0a.591.591,0,0,1-.6.588h0A.59.59,0,0,1,70.825,74.8Zm0-2.306a.59.59,0,0,1,.588-.588h0a.591.591,0,0,1,.6.588h0a.592.592,0,0,1-.6.589h0A.59.59,0,0,1,70.825,72.494Zm0-2.3a.59.59,0,0,1,.588-.588h0a.592.592,0,0,1,.6.588h0a.591.591,0,0,1-.6.588h0A.59.59,0,0,1,70.825,70.194Zm0-2.306a.59.59,0,0,1,.588-.588h0a.591.591,0,0,1,.6.588h0a.592.592,0,0,1-.6.589h0A.59.59,0,0,1,70.825,67.888Zm-.065-2.253h0A.587.587,0,0,1,71.3,65h0a.592.592,0,0,1,.635.541h0a.584.584,0,0,1-.542.63h0a.107.107,0,0,1-.046.006h0A.589.589,0,0,1,70.76,65.635Zm-.3-2.218a.584.584,0,0,1,.464-.688h0a.586.586,0,0,1,.688.471h0a.587.587,0,0,1-.464.688h0a.746.746,0,0,1-.112.006h0A.584.584,0,0,1,70.461,63.417Zm-.536-2.17h0a.587.587,0,0,1,.388-.735h0a.587.587,0,0,1,.736.388h0v.006h0a.589.589,0,0,1-.4.73h0a.555.555,0,0,1-.164.029h0A.592.592,0,0,1,69.925,61.247Zm-.771-2.106a.589.589,0,0,1,.312-.771h0a.584.584,0,0,1,.771.312h0a.589.589,0,0,1-.306.771h0a.653.653,0,0,1-.236.047h0A.6.6,0,0,1,69.154,59.141Zm-.982-2.011a.581.581,0,0,1,.223-.8h0a.585.585,0,0,1,.8.224h0a.589.589,0,0,1-.224.8h0a.57.57,0,0,1-.288.076h0A.584.584,0,0,1,68.172,57.13Zm-1.194-1.889a.584.584,0,0,1,.135-.818h0a.587.587,0,0,1,.824.136h0a.592.592,0,0,1-.141.823h0a.614.614,0,0,1-.342.106h0A.585.585,0,0,1,66.978,55.241Zm-1.394-1.753a.594.594,0,0,1,.053-.835h0a.591.591,0,0,1,.829.053h0a.592.592,0,0,1-.053.829h0a.57.57,0,0,1-.388.147h0A.589.589,0,0,1,65.584,53.488Zm-1.571-1.594h0a.581.581,0,0,1-.035-.829h0a.579.579,0,0,1,.824-.041h0a.585.585,0,0,1,.035.829h0a.581.581,0,0,1-.434.194h0A.594.594,0,0,1,64.013,51.894Z" fill="#ffa500"/>
        </g>
        <g id="Group_2601" data-name="Group 2601">
          <path id="Path_25009" data-name="Path 25009" d="M71.419,80A.569.569,0,0,1,71,79.829a.6.6,0,0,1-.13-.194.555.555,0,0,1,0-.447.607.607,0,0,1,.13-.194.375.375,0,0,1,.088-.071.308.308,0,0,1,.1-.052.4.4,0,0,1,.112-.036.6.6,0,0,1,.529.159.7.7,0,0,1,.129.194.544.544,0,0,1,0,.447.684.684,0,0,1-.129.194A.579.579,0,0,1,71.419,80Z" fill="#ffa500"/>
        </g>
        <g id="Group_2602" data-name="Group 2602">
          <path id="Path_25010" data-name="Path 25010" d="M68.725,79.412a.59.59,0,0,1,.588-.588h0a.586.586,0,0,1,.589.588h0a.587.587,0,0,1-.589.588h0A.59.59,0,0,1,68.725,79.412Zm-2.1,0a.59.59,0,0,1,.588-.588h0a.589.589,0,0,1,.588.588h0a.59.59,0,0,1-.588.588h0A.59.59,0,0,1,66.625,79.412Zm-2.1,0a.59.59,0,0,1,.588-.588h0a.589.589,0,0,1,.588.588h0a.59.59,0,0,1-.588.588h0A.59.59,0,0,1,64.525,79.412Z" fill="#ffa500"/>
        </g>
        <g id="Group_2603" data-name="Group 2603">
          <path id="Path_25011" data-name="Path 25011" d="M63.013,80a.579.579,0,0,1-.417-.171.612.612,0,0,1-.13-.194.63.63,0,0,1,0-.447.7.7,0,0,1,.13-.194.944.944,0,0,1,.088-.071.349.349,0,0,1,.106-.052.36.36,0,0,1,.106-.036.564.564,0,0,1,.341.036.664.664,0,0,1,.194.123.624.624,0,0,1,.124.194.555.555,0,0,1,0,.447.689.689,0,0,1-.124.194.667.667,0,0,1-.194.124A.6.6,0,0,1,63.013,80Z" fill="#ffa500"/>
        </g>
        <g id="Group_2604" data-name="Group 2604">
          <path id="Path_25012" data-name="Path 25012" d="M62.419,77.082A.581.581,0,0,1,63,76.494h0a.587.587,0,0,1,.594.588h0a.594.594,0,0,1-.588.589h0A.59.59,0,0,1,62.419,77.082Zm-.006-2.329a.587.587,0,0,1,.583-.6h0a.592.592,0,0,1,.594.589h0a.59.59,0,0,1-.589.588H63A.584.584,0,0,1,62.413,74.753Zm-.006-2.336a.582.582,0,0,1,.583-.588h0a.592.592,0,0,1,.594.588h0a.59.59,0,0,1-.588.589H62.99A.589.589,0,0,1,62.407,72.417ZM62.4,70.088a.584.584,0,0,1,.582-.588h0a.583.583,0,0,1,.594.582h0a.591.591,0,0,1-.588.594h-.006A.588.588,0,0,1,62.4,70.088ZM62.4,67.753a.589.589,0,0,1,.589-.588h0a.584.584,0,0,1,.582.588h0a.581.581,0,0,1-.582.588h-.006A.585.585,0,0,1,62.4,67.753Zm-.135-2.235v-.006h0a.594.594,0,0,1,.5-.665h0a.586.586,0,0,1,.665.5h0a.581.581,0,0,1-.494.665h0a.526.526,0,0,1-.088,0h0A.592.592,0,0,1,62.26,65.518Zm-.512-2.165a.59.59,0,0,1,.371-.747h0a.6.6,0,0,1,.747.376h0a.592.592,0,0,1-.37.742h0a.562.562,0,0,1-.189.029h0A.587.587,0,0,1,61.748,63.353Zm-.893-2.035a.594.594,0,0,1,.235-.8h0a.592.592,0,0,1,.8.235h0a.588.588,0,0,1-.236.794h0a.549.549,0,0,1-.282.076h0A.6.6,0,0,1,60.855,61.318ZM59.619,59.47h0a.589.589,0,0,1,.088-.829h0a.6.6,0,0,1,.83.088h0a.6.6,0,0,1-.094.83h0a.568.568,0,0,1-.365.129h0A.6.6,0,0,1,59.619,59.47Zm-1.547-1.6a.588.588,0,0,1-.059-.83h0a.588.588,0,0,1,.83-.058h0a.586.586,0,0,1,.059.829h0a.58.58,0,0,1-.447.2h0A.593.593,0,0,1,58.072,57.871Zm-1.8-1.3a.588.588,0,0,1-.206-.806h0a.585.585,0,0,1,.806-.206h0a.59.59,0,0,1,.206.805h0a.584.584,0,0,1-.506.289h0A.615.615,0,0,1,56.272,56.571Zm-2.006-.959a.592.592,0,0,1-.347-.759h0a.59.59,0,0,1,.759-.347h0a.6.6,0,0,1,.347.759h0a.6.6,0,0,1-.553.382h0A.619.619,0,0,1,54.266,55.612Zm-2.147-.588a.587.587,0,0,1-.47-.683h0a.581.581,0,0,1,.682-.477h0a.593.593,0,0,1,.476.683h0a.592.592,0,0,1-.582.482h0A.759.759,0,0,1,52.119,55.024Z" fill="#ffa500"/>
        </g>
        <g id="Group_2605" data-name="Group 2605">
          <path id="Path_25013" data-name="Path 25013" d="M49.9,54.824a.582.582,0,0,1-.417-.171.689.689,0,0,1-.124-.194.5.5,0,0,1-.047-.223.722.722,0,0,1,.012-.113.385.385,0,0,1,.035-.112.319.319,0,0,1,.054-.1.469.469,0,0,1,.07-.094.616.616,0,0,1,.836,0c.023.029.046.058.07.094a.338.338,0,0,1,.053.1.385.385,0,0,1,.035.112.722.722,0,0,1,.012.113.585.585,0,0,1-.17.417.723.723,0,0,1-.195.124A.591.591,0,0,1,49.9,54.824Z" fill="#ffa500"/>
        </g>
      </g>
    </g>
  </g>
</svg>