<svg xmlns="http://www.w3.org/2000/svg" xmlns:xlink="http://www.w3.org/1999/xlink" width="92" height="87.898" viewBox="0 0 92 87.898">
  <defs fill="#000000">
    <linearGradient id="linear-gradient" x1="0.088" y1="1" x2="0.895" y2="-0.015" gradientUnits="objectBoundingBox" fill="#000000">
      <stop offset="0" stop-color="#ffa500" fill="#000000"/>
      <stop offset="0.291" stop-color="#ffa500" fill="#000000"/>
      <stop offset="0.86" stop-color="#ffa500" fill="#000000"/>
      <stop offset="1" stop-color="#ffa500" fill="#000000"/>
    </linearGradient>
    <filter id="Path_47150" x="50.477" y="0" width="37.68" height="37.68" filterUnits="userSpaceOnUse" fill="#000000">
      <feOffset dy="4" input="SourceAlpha" fill="#000000"/>
      <feGaussianBlur stdDeviation="2" result="blur" fill="#000000"/>
      <feFlood flood-opacity="0.4" fill="#000000"/>
      <feComposite operator="in" in2="blur" fill="#000000"/>
      <feComposite in="SourceGraphic" fill="#000000"/>
    </filter>
    <filter id="Path_47151" x="56.043" y="5.566" width="20.15" height="20.15" filterUnits="userSpaceOnUse" fill="#000000">
      <feOffset dy="4" input="SourceAlpha" fill="#000000"/>
      <feGaussianBlur stdDeviation="2" result="blur-2" fill="#000000"/>
      <feFlood flood-opacity="0.4" fill="#000000"/>
      <feComposite operator="in" in2="blur-2" fill="#000000"/>
      <feComposite in="SourceGraphic" fill="#000000"/>
    </filter>
    <filter id="Path_47152" x="0" y="29.798" width="41.302" height="41.302" filterUnits="userSpaceOnUse" fill="#000000">
      <feOffset dy="4" input="SourceAlpha" fill="#000000"/>
      <feGaussianBlur stdDeviation="2" result="blur-3" fill="#000000"/>
      <feFlood flood-opacity="0.4" fill="#000000"/>
      <feComposite operator="in" in2="blur-3" fill="#000000"/>
      <feComposite in="SourceGraphic" fill="#000000"/>
    </filter>
    <filter id="Path_47154" x="52.659" y="48.557" width="39.341" height="39.341" filterUnits="userSpaceOnUse" fill="#000000">
      <feOffset dy="4" input="SourceAlpha" fill="#000000"/>
      <feGaussianBlur stdDeviation="2" result="blur-4" fill="#000000"/>
      <feFlood flood-opacity="0.4" fill="#000000"/>
      <feComposite operator="in" in2="blur-4" fill="#000000"/>
      <feComposite in="SourceGraphic" fill="#000000"/>
    </filter>
    <filter id="Path_47155" x="65.455" y="55.892" width="20.334" height="25.796" filterUnits="userSpaceOnUse" fill="#000000">
      <feOffset dy="4" input="SourceAlpha" fill="#000000"/>
      <feGaussianBlur stdDeviation="2" result="blur-5" fill="#000000"/>
      <feFlood flood-opacity="0.4" fill="#000000"/>
      <feComposite operator="in" in2="blur-5" fill="#000000"/>
      <feComposite in="SourceGraphic" fill="#000000"/>
    </filter>
    <linearGradient id="linear-gradient-7" x1="0.982" y1="0.039" x2="0.087" y2="0.906" gradientUnits="objectBoundingBox" fill="#000000">
      <stop offset="0" stop-color="#ffa500" fill="#000000"/>
      <stop offset="0.612" stop-color="#ffa500" fill="#000000"/>
      <stop offset="1" stop-color="#ffa500" fill="#000000"/>
    </linearGradient>
    <linearGradient id="linear-gradient-8" x1="-0.037" y1="0.36" x2="0.905" y2="0.774" xlink:href="#linear-gradient-7" fill="#000000"/>
    <linearGradient id="linear-gradient-9" x1="0.694" y1="0.964" x2="0.241" y2="0.09" xlink:href="#linear-gradient-7" fill="#000000"/>
  </defs>
  <g id="Working-together" transform="translate(80.59 3.261) rotate(90)">
    <g id="Group_2292" data-name="Group 2292" transform="translate(0.051 -3.045)">
      <g id="Group_2291" data-name="Group 2291" transform="translate(0 0)">
        <g id="Group_2290" data-name="Group 2290">
          <g id="Group_2289" data-name="Group 2289">
            <g id="Group_2288" data-name="Group 2288">
              <g id="Group_2287" data-name="Group 2287">
                <rect id="Rectangle_47" data-name="Rectangle 47" width="73.274" height="75.274" fill="none"/>
              </g>
            </g>
          </g>
        </g>
      </g>
    </g>
    <g id="Group_5609" data-name="Group 5609" transform="translate(-1477.644 741.915) rotate(-90)">
      <g id="Group_5608" data-name="Group 5608" transform="translate(667.325 1476.383)">
        <g id="Group_5598" data-name="Group 5598" transform="translate(50.477)">
          <g id="Group_5596" data-name="Group 5596">
            <g transform="matrix(1, 0, 0, 1, -56.48, -2)" filter="url(#Path_47150)">
              <path id="Path_47150-2" data-name="Path 47150" d="M884.845,1502.063a12.84,12.84,0,1,1,12.839-12.839A12.854,12.854,0,0,1,884.845,1502.063Zm0-23.93a11.09,11.09,0,1,0,11.089,11.091A11.1,11.1,0,0,0,884.845,1478.133Z" transform="translate(-815.53 -1474.38)" fill="url(#linear-gradient)"/>
            </g>
          </g>
          <g id="Group_5597" data-name="Group 5597" transform="translate(5.566 5.566)">
            <g transform="matrix(1, 0, 0, 1, -62.04, -7.57)" filter="url(#Path_47151)">
              <path id="Path_47151-2" data-name="Path 47151" d="M893.717,1505.371a.875.875,0,0,1-.875-.875,7.282,7.282,0,0,1,7.275-7.275.875.875,0,0,1,0,1.75,5.532,5.532,0,0,0-5.525,5.525A.875.875,0,0,1,893.717,1505.371Z" transform="translate(-830.8 -1489.65)" fill="url(#linear-gradient)"/>
            </g>
          </g>
        </g>
        <g id="Group_5601" data-name="Group 5601" transform="translate(0 29.798)">
          <g id="Group_5599" data-name="Group 5599">
            <g transform="matrix(1, 0, 0, 1, -6, -31.8)" filter="url(#Path_47152)">
              <path id="Path_47152-2" data-name="Path 47152" d="M681.977,1626.773a14.651,14.651,0,1,1,14.65-14.65A14.667,14.667,0,0,1,681.977,1626.773Zm0-27.553a12.9,12.9,0,1,0,12.9,12.9A12.916,12.916,0,0,0,681.977,1599.221Z" transform="translate(-661.33 -1565.67)" fill="url(#linear-gradient)"/>
            </g>
          </g>
          <g id="Group_5600" data-name="Group 5600" transform="translate(6.423 6.423)">
            <path id="Path_47153" data-name="Path 47153" d="M694.724,1636.125a.87.87,0,0,1-.581-.221,8.228,8.228,0,0,1,5.457-14.388.875.875,0,1,1,0,1.75A6.479,6.479,0,0,0,695.3,1634.6a.875.875,0,0,1-.581,1.529Z" transform="translate(-691.37 -1621.516)" fill="url(#linear-gradient)"/>
          </g>
        </g>
        <g id="Group_5604" data-name="Group 5604" transform="translate(52.659 48.557)">
          <g id="Group_5602" data-name="Group 5602">
            <g transform="matrix(1, 0, 0, 1, -58.66, -50.56)" filter="url(#Path_47154)">
              <path id="Path_47154-2" data-name="Path 47154" d="M893.846,1700.411a13.67,13.67,0,1,1,13.67-13.67A13.687,13.687,0,0,1,893.846,1700.411Zm0-25.591a11.921,11.921,0,1,0,11.92,11.92A11.934,11.934,0,0,0,893.846,1674.82Z" transform="translate(-821.52 -1622.51)" fill="url(#linear-gradient)"/>
            </g>
          </g>
          <g id="Group_5603" data-name="Group 5603" transform="translate(12.795 7.335)">
            <g transform="matrix(1, 0, 0, 1, -71.45, -57.89)" filter="url(#Path_47155)">
              <path id="Path_47155-2" data-name="Path 47155" d="M928.953,1714.324a.875.875,0,1,1,0-1.75,5.709,5.709,0,0,0,3.19-10.444.875.875,0,0,1,.98-1.449,7.458,7.458,0,0,1-4.169,13.643Z" transform="translate(-856.62 -1642.64)" fill="url(#linear-gradient)"/>
            </g>
          </g>
        </g>
        <g id="Group_5605" data-name="Group 5605" transform="translate(25.574 16.619)">
          <path id="Path_47156" data-name="Path 47156" d="M771.349,1558.359a.875.875,0,0,1-.437-1.631l24-13.9a.874.874,0,1,1,.875,1.513l-24,13.9A.867.867,0,0,1,771.349,1558.359Z" transform="translate(-770.474 -1542.711)" stroke="rgba(0,0,0,0)" stroke-width="1" fill="url(#linear-gradient-7)"/>
        </g>
        <g id="Group_5606" data-name="Group 5606" transform="translate(29.05 51.969)">
          <path id="Path_47157" data-name="Path 47157" d="M805.243,1691.651a.848.848,0,0,1-.3-.052l-20.4-7.362a.874.874,0,1,1,.593-1.645l20.4,7.361a.875.875,0,0,1-.3,1.7Z" transform="translate(-783.969 -1682.537)" fill="url(#linear-gradient-8)"/>
        </g>
        <g id="Group_5607" data-name="Group 5607" transform="translate(63.827 27.072)">
          <path id="Path_47158" data-name="Path 47158" d="M924.489,1606.309a.877.877,0,0,1-.873-.8l-1.627-19.448a.879.879,0,0,1,.8-.945.861.861,0,0,1,.945.8l1.627,19.448a.879.879,0,0,1-.8.946C924.536,1606.309,924.511,1606.309,924.489,1606.309Z" transform="translate(-921.986 -1585.111)" stroke="rgba(0,0,0,0)" stroke-width="1" fill="url(#linear-gradient-9)"/>
        </g>
        <g id="Group_5610" data-name="Group 5610" transform="translate(25.05 33.68) rotate(-90)">
          <circle id="Ellipse_713" data-name="Ellipse 713" cx="4" cy="4" r="4" fill="#ffa500"/>
        </g>
        <g id="Group_5611" data-name="Group 5611" transform="translate(43.329 63.227) rotate(-90)">
          <circle id="Ellipse_713-2" data-name="Ellipse 713" cx="4" cy="4" r="4" fill="#ffa500"/>
        </g>
        <g id="Group_5612" data-name="Group 5612" transform="translate(60.859 35.072) rotate(-90)">
          <circle id="Ellipse_713-3" data-name="Ellipse 713" cx="4" cy="4" r="4" fill="#ffa500"/>
        </g>
      </g>
    </g>
  </g>
</svg>