<svg xmlns="http://www.w3.org/2000/svg" xmlns:xlink="http://www.w3.org/1999/xlink" width="86.02" height="93" viewBox="0 0 86.02 93">
  <defs fill="#ffa500">
    <linearGradient id="linear-gradient" x1="-0.979" y1="0.916" x2="0.608" y2="-2.111" gradientUnits="objectBoundingBox" fill="#ffa500">
      <stop offset="0" stop-color="#ffa500" fill="#ffa500"/>
      <stop offset="0.099" stop-color="#ffa500" fill="#ffa500"/>
      <stop offset="0.295" stop-color="#ffa500" fill="#ffa500"/>
      <stop offset="0.471" stop-color="#ffa500" fill="#ffa500"/>
      <stop offset="0.703" stop-color="#ffa500" fill="#ffa500"/>
      <stop offset="1" stop-color="#ffa500" fill="#ffa500"/>
    </linearGradient>
    <filter id="Path_47172" x="44.24" y="45.03" width="41.78" height="35.976" filterUnits="userSpaceOnUse" fill="#ffa500">
      <feOffset dy="4" input="SourceAlpha" fill="#ffa500"/>
      <feGaussianBlur stdDeviation="2" result="blur" fill="#ffa500"/>
      <feFlood flood-opacity="0.502" fill="#ffa500"/>
      <feComposite operator="in" in2="blur" fill="#ffa500"/>
      <feComposite in="SourceGraphic" fill="#ffa500"/>
    </filter>
    <filter id="Path_47173" x="27.229" y="0" width="31.336" height="23.197" filterUnits="userSpaceOnUse" fill="#ffa500">
      <feOffset dy="4" input="SourceAlpha" fill="#ffa500"/>
      <feGaussianBlur stdDeviation="2" result="blur-2" fill="#ffa500"/>
      <feFlood flood-opacity="0.502" fill="#ffa500"/>
      <feComposite operator="in" in2="blur-2" fill="#ffa500"/>
      <feComposite in="SourceGraphic" fill="#ffa500"/>
    </filter>
    <filter id="Path_47174" x="27.453" y="69.809" width="31.336" height="23.191" filterUnits="userSpaceOnUse" fill="#ffa500">
      <feOffset dy="4" input="SourceAlpha" fill="#ffa500"/>
      <feGaussianBlur stdDeviation="2" result="blur-3" fill="#ffa500"/>
      <feFlood flood-opacity="0.502" fill="#ffa500"/>
      <feComposite operator="in" in2="blur-3" fill="#ffa500"/>
      <feComposite in="SourceGraphic" fill="#ffa500"/>
    </filter>
    <filter id="Path_47175" x="31.44" y="34.934" width="23.131" height="23.13" filterUnits="userSpaceOnUse" fill="#ffa500">
      <feOffset dy="4" input="SourceAlpha" fill="#ffa500"/>
      <feGaussianBlur stdDeviation="2" result="blur-4" fill="#ffa500"/>
      <feFlood flood-opacity="0.502" fill="#ffa500"/>
      <feComposite operator="in" in2="blur-4" fill="#ffa500"/>
      <feComposite in="SourceGraphic" fill="#ffa500"/>
    </filter>
    <linearGradient id="linear-gradient-4" x1="0.06" y1="1.102" x2="1.075" y2="-0.094" gradientUnits="objectBoundingBox" fill="#ffa500">
      <stop offset="0" stop-color="#ffa500" fill="#ffa500"/>
      <stop offset="0.038" stop-color="#ffa500" fill="#ffa500"/>
      <stop offset="0.356" stop-color="#ffa500" fill="#ffa500"/>
      <stop offset="0.471" stop-color="#ffa500" fill="#ffa500"/>
      <stop offset="0.934" stop-color="#ffa500" fill="#ffa500"/>
      <stop offset="1" stop-color="#ffa500" fill="#ffa500"/>
    </linearGradient>
    <filter id="Path_47176" x="0" y="11.253" width="86.016" height="70.532" filterUnits="userSpaceOnUse" fill="#ffa500">
      <feOffset dy="4" input="SourceAlpha" fill="#ffa500"/>
      <feGaussianBlur stdDeviation="2" result="blur-5" fill="#ffa500"/>
      <feFlood flood-opacity="0.502" fill="#ffa500"/>
      <feComposite operator="in" in2="blur-5" fill="#ffa500"/>
      <feComposite in="SourceGraphic" fill="#ffa500"/>
    </filter>
  </defs>
  <g id="Never-stop-learning" transform="translate(-2684.718 182.149)">
    <g transform="matrix(1, 0, 0, 1, 2684.72, -182.15)" filter="url(#Path_47172)">
      <path id="Path_47172-2" data-name="Path 47172" d="M2763.536-123.854l-.514-.912.488-.927a4.8,4.8,0,0,0,.547-2.256,4.775,4.775,0,0,0-4.706-4.832,4.775,4.775,0,0,0-4.705,4.832,4.771,4.771,0,0,0,4.648,4.82l2.065-.135.586,1.087c1.979,3.673,2.458,6.6,1.348,8.233-1.046,1.527-3.361,1.846-5.118,1.846-5.811,0-13.546-3.232-18.232-5.484-.713.5-1.442,1-2.168,1.488,5.677,2.83,13.939,6.29,20.4,6.29,2.372,0,7.888-.614,7.888-6.3A16.479,16.479,0,0,0,2763.536-123.854Z" transform="translate(-2686.54 180.31)" stroke="rgba(0,0,0,0)" stroke-miterlimit="10" stroke-width="1" fill="url(#linear-gradient)"/>
    </g>
    <g transform="matrix(1, 0, 0, 1, 2684.72, -182.15)" filter="url(#Path_47173)">
      <path id="Path_47173-2" data-name="Path 47173" d="M2728.842-177.358c2.385,0,4.849,2.606,6.9,7.23.671-.325,1.334-.636,2-.941-1.869-4.238-4.788-8.581-8.9-8.581-4.25,0-7.232,4.623-9.125,9.11q.984.432,2.014.914C2723.824-174.568,2726.367-177.358,2728.842-177.358Z" transform="translate(-2685.84 182.15)" stroke="rgba(0,0,0,0)" stroke-miterlimit="10" stroke-width="1" fill="url(#linear-gradient)"/>
    </g>
    <g transform="matrix(1, 0, 0, 1, 2684.72, -182.15)" filter="url(#Path_47174)">
      <path id="Path_47174-2" data-name="Path 47174" d="M2728.851-99.078c-2.376,0-4.839-2.608-6.894-7.233-.664.321-1.328.632-2,.939,1.868,4.238,4.787,8.579,8.9,8.579,4.255,0,7.239-4.621,9.131-9.1q-1-.442-2.014-.914C2733.877-101.868,2731.333-99.078,2728.851-99.078Z" transform="translate(-2685.84 179.29)" stroke="rgba(0,0,0,0)" stroke-miterlimit="10" stroke-width="1" fill="url(#linear-gradient)"/>
    </g>
    <g transform="matrix(1, 0, 0, 1, 2684.72, -182.15)" filter="url(#Path_47175)">
      <path id="Path_47175-2" data-name="Path 47175" d="M2729.007-143.289a5.072,5.072,0,0,0-5.066,5.065,5.072,5.072,0,0,0,5.066,5.065,5.071,5.071,0,0,0,5.064-5.065A5.071,5.071,0,0,0,2729.007-143.289Z" transform="translate(-2686 180.72)" fill="#ffa500" stroke="rgba(0,0,0,0)" stroke-miterlimit="10" stroke-width="1"/>
    </g>
    <g transform="matrix(1, 0, 0, 1, 2684.72, -182.15)" filter="url(#Path_47176)">
      <path id="Path_47176-2" data-name="Path 47176" d="M2764.234-161.492c0-4.1-2.874-6.445-7.884-6.445-9.513,0-22.752,7.518-28,10.75l-.985.606-1-.587c-5.123-3.014-18.035-10.026-27.259-10.026-2.372,0-7.888.614-7.888,6.3a16.5,16.5,0,0,0,2.551,7.8l.533.938-.524.943a4.935,4.935,0,0,0-.616,2.389,4.771,4.771,0,0,0,4.707,4.824,4.772,4.772,0,0,0,4.708-4.824,4.778,4.778,0,0,0-4.654-4.831l-1.884.117-.587-1.066c-2.088-3.792-2.6-6.8-1.451-8.46,1.028-1.513,3.344-1.833,5.1-1.833a33.935,33.935,0,0,1,11.2,2.48,89.98,89.98,0,0,1,12.2,5.674l2.728,1.5-2.563,1.766a126.929,126.929,0,0,0-18.953,15.832,78.431,78.431,0,0,0-6.6,7.655c-3.855,5.17-5.893,9.7-5.893,13.111,0,2.322.713,3.949,2.18,4.972,3.065,2.139,9.659,1.743,17.209-1.032,16.461-6.055,37.427-21.625,47.731-35.446C2762.2-153.559,2764.234-158.09,2764.234-161.492Zm-35.125,36.349c-3.163,2.073-19.477,12.419-30,12.419-2.511,0-4.275-.657-5.1-1.9-2.351-3.535,2.286-12.259,11.538-21.708l1.283-1.31,1.368,1.219a130.884,130.884,0,0,0,10.484,8.39c.718-.406,1.423-.818,2.135-1.242a129.667,129.667,0,0,1-10.766-8.5l-1.605-1.421,1.588-1.441a133.915,133.915,0,0,1,16.319-12.593l1.031-.675,1.043.655a134.408,134.408,0,0,1,12.531,8.91q.846-.783,1.647-1.56c-3.343-2.7-6.865-5.271-10.493-7.673l-2.59-1.714,2.69-1.553c3.579-2.066,15.9-8.806,24.144-8.806,2.551,0,4.269.639,5.1,1.9,1.645,2.475-.161,7.692-4.834,13.953C2747.913-138.109,2734.48-128.662,2729.108-125.143Z" transform="translate(-2684.72 181.69)" stroke="rgba(0,0,0,0)" stroke-miterlimit="10" stroke-width="1" fill="url(#linear-gradient-4)"/>
    </g>
  </g>
</svg>