<svg xmlns="http://www.w3.org/2000/svg" xmlns:xlink="http://www.w3.org/1999/xlink" width="92.004" height="90.315" viewBox="0 0 92.004 90.315">
  <defs fill="#000000">
    <linearGradient id="linear-gradient" x1="0.292" y1="1.012" x2="0.895" y2="-0.015" gradientUnits="objectBoundingBox" fill="#000000">
      <stop offset="0" stop-color="#ffa500" fill="#000000"/>
      <stop offset="0.86" stop-color="#ffa500" fill="#000000"/>
      <stop offset="1" stop-color="#ffa500" fill="#000000"/>
    </linearGradient>
    <filter id="Path_47160" x="7.524" y="7.13" width="26.665" height="32.325" filterUnits="userSpaceOnUse" fill="#000000">
      <feOffset dy="4" input="SourceAlpha" fill="#000000"/>
      <feGaussianBlur stdDeviation="2" result="blur" fill="#000000"/>
      <feFlood flood-opacity="0.4" fill="#000000"/>
      <feComposite operator="in" in2="blur" fill="#000000"/>
      <feComposite in="SourceGraphic" fill="#000000"/>
    </filter>
    <filter id="Path_47161-2" x="33.808" y="25.714" width="46.716" height="64.601" filterUnits="userSpaceOnUse" fill="#000000">
      <feOffset dy="4" input="SourceAlpha" fill="#000000"/>
      <feGaussianBlur stdDeviation="2" result="blur-2" fill="#000000"/>
      <feFlood flood-opacity="0.4" fill="#000000"/>
      <feComposite operator="in" in2="blur-2" fill="#000000"/>
      <feComposite in="SourceGraphic" fill="#000000"/>
    </filter>
    <filter id="Path_47166" x="0" y="0" width="92.004" height="73.71" filterUnits="userSpaceOnUse" fill="#000000">
      <feOffset dy="4" input="SourceAlpha" fill="#000000"/>
      <feGaussianBlur stdDeviation="2" result="blur-3" fill="#000000"/>
      <feFlood flood-opacity="0.4" fill="#000000"/>
      <feComposite operator="in" in2="blur-3" fill="#000000"/>
      <feComposite in="SourceGraphic" fill="#000000"/>
    </filter>
    <filter id="Ellipse_713" x="20.421" y="59.136" width="19.973" height="19.973" filterUnits="userSpaceOnUse" fill="#000000">
      <feOffset dy="4" input="SourceAlpha" fill="#000000"/>
      <feGaussianBlur stdDeviation="2" result="blur-4" fill="#000000"/>
      <feFlood flood-opacity="0.4" fill="#000000"/>
      <feComposite operator="in" in2="blur-4" fill="#000000"/>
      <feComposite in="SourceGraphic" fill="#000000"/>
    </filter>
  </defs>
  <g id="Following-our-passion" transform="translate(-2583.472 98.652)">
    <g id="Group_5614" data-name="Group 5614">
      <g id="Group_5613" data-name="Group 5613">
        <g transform="matrix(1, 0, 0, 1, 2583.47, -98.65)" filter="url(#Path_47160)">
          <path id="Path_47160-2" data-name="Path 47160" d="M2597-70.032a.977.977,0,0,0,1.11.824.978.978,0,0,0,.825-.824c0-11.685,6.173-16.865,11.951-17.818a.852.852,0,0,0,.776-.92c0-.02,0-.04-.007-.06a.943.943,0,0,0-1.131-.666C2603.983-88.419,2597-82.741,2597-70.032Z" transform="translate(-2583.47 98.65)" fill="url(#linear-gradient)"/>
        </g>
        <g id="Group_5620" data-name="Group 5620" transform="translate(-2 2)">
          <g transform="matrix(1, 0, 0, 1, 2585.47, -100.65)" filter="url(#Path_47161-2)">
            <path id="Path_47161-2-2" data-name="Path 47161-2" d="M2659.682-61.1a3.344,3.344,0,0,0-1.2-2.513,4.776,4.776,0,0,0-5.339-.358V-65.5a3.879,3.879,0,0,0-4.121-3.568,4.536,4.536,0,0,0-2.425.685v-.975a3.35,3.35,0,0,0-1.2-2.526,4.436,4.436,0,0,0-2.914-1.044,3.879,3.879,0,0,0-4.119,3.571v.971a4.517,4.517,0,0,0-2.422-.681,3.878,3.878,0,0,0-4.119,3.568V-54.24a.341.341,0,0,0-.015.066v2.531a4.852,4.852,0,0,0-2.409-.621c-2.27,0-4.119,1.471-4.119,3.278v9.1c0,5.957.335,7.588,3.887,11.338,2.193,2.318,3.018,7.519,3.025,7.573a.82.82,0,0,0,.84.637h22a.845.845,0,0,0,.814-.528c.128-.386,3.181-9.508,3.848-16.175C2660.362-43.861,2659.72-60.243,2659.682-61.1Zm-1.692,23.938c-.56,5.622-2.945,13.294-3.612,15.36h-20.627c-.307-1.553-1.255-5.532-3.281-7.673-3.112-3.282-3.5-4.45-3.5-10.406v-9.1c0-1,1.088-1.809,2.424-1.809a2.873,2.873,0,0,1,1.747.555,1.614,1.614,0,0,1,.662,1.195v9.952a.856.856,0,0,0,.97.723.855.855,0,0,0,.723-.723v-9.826a.513.513,0,0,0,.016-.067V-65.5a2.283,2.283,0,0,1,2.425-2.1,2.59,2.59,0,0,1,1.712.614,1.951,1.951,0,0,1,.71,1.485.724.724,0,0,0,.021.091v17.7a.858.858,0,0,0,.968.728.856.856,0,0,0,.727-.728V-65.389a.49.49,0,0,0-.021-.091v-3.875a2.285,2.285,0,0,1,2.425-2.1,2.6,2.6,0,0,1,1.712.615,1.966,1.966,0,0,1,.713,1.488v3.859c0,.017.01.032.011.049s-.013.037-.013.057V-47.7a.857.857,0,0,0,.968.727.856.856,0,0,0,.727-.727V-65.387c0-.016-.01-.031-.011-.048a.448.448,0,0,0,.013-.058,2.451,2.451,0,0,1,2.776-2.077,2.449,2.449,0,0,1,2.076,2.077v4.319a.73.73,0,0,0-.022.094V-47.7a.858.858,0,0,0,.971.723.855.855,0,0,0,.723-.723V-60.986a.5.5,0,0,0,.022-.094,2.283,2.283,0,0,1,2.425-2.1,2.606,2.606,0,0,1,1.714.614,1.954,1.954,0,0,1,.711,1.488v.025c0,.162.675,17.117,0,23.891Z" transform="translate(-2585.47 100.65)" fill="url(#linear-gradient)"/>
          </g>
        </g>
      </g>
    </g>
    <g id="Group_5621" data-name="Group 5621">
      <g transform="matrix(1, 0, 0, 1, 2583.47, -98.65)" filter="url(#Path_47166)">
        <path id="Path_47166-2" data-name="Path 47166" d="M2653.8-96.221c-8.848-1.89-18.456,2.566-24.333,11.177-5.876-8.612-15.488-13.072-24.331-11.177-9.809,2.105-15.667,10.982-15.667,23.744,0,16.626,10.687,29.3,20.721,37.535l1.109-1.4c-9.689-8.008-19.9-20.218-19.9-36.139,0-11.94,5.31-20.209,14.2-22.116,8.436-1.817,17.668,2.879,23.011,11.658a1.1,1.1,0,0,0,1.546.167,1.1,1.1,0,0,0,.167-.167c5.338-8.78,14.588-13.475,23.01-11.658,8.889,1.907,14.2,10.175,14.2,22.116a38.338,38.338,0,0,1-3.644,16.194.8.8,0,0,0,.421,1.051.807.807,0,0,0,.117.039,1.018,1.018,0,0,0,1.257-.465,39.776,39.776,0,0,0,3.785-16.819C2669.472-85.24,2663.613-94.116,2653.8-96.221Z" transform="translate(-2583.47 98.65)" fill="url(#linear-gradient)"/>
      </g>
      <g id="Group_5615" data-name="Group 5615" transform="translate(1.959 0.959)">
        <g transform="matrix(1, 0, 0, 1, 2581.51, -99.61)" filter="url(#Ellipse_713)">
          <ellipse id="Ellipse_713-2" data-name="Ellipse 713" cx="3.986" cy="3.986" rx="3.986" ry="3.986" transform="translate(26.42 61.14)" fill="#ffa500"/>
        </g>
      </g>
    </g>
  </g>
</svg>