<svg xmlns="http://www.w3.org/2000/svg" width="60" height="59.936" viewBox="0 0 60 59.936">
  <g id="Digital-way-of-working" transform="translate(-20 -20.085)">
    <rect id="Rectangle_55" data-name="Rectangle 55" width="59.936" height="59.936" transform="translate(20.03 20.085)" fill="none"/>
    <g id="Group_2523" data-name="Group 2523">
      <g id="Group_2504" data-name="Group 2504">
        <g id="Group_2500" data-name="Group 2500">
          <path id="Path_24924" data-name="Path 24924" d="M74.512,62.865a.587.587,0,0,1-.418-.176.568.568,0,0,1-.123-.635.682.682,0,0,1,.123-.195,1.076,1.076,0,0,1,.088-.07.5.5,0,0,1,.106-.053.388.388,0,0,1,.106-.035.524.524,0,0,1,.341.035.708.708,0,0,1,.194.123.685.685,0,0,1,.124.195.59.59,0,0,1,.047.223.583.583,0,0,1-.171.412A.6.6,0,0,1,74.512,62.865Z" fill="#ffa500"/>
        </g>
        <g id="Group_2501" data-name="Group 2501">
          <path id="Path_24925" data-name="Path 24925" d="M73.923,59.93a.59.59,0,0,1,.589-.588h0a.59.59,0,0,1,.588.588h0a.59.59,0,0,1-.588.589h0A.591.591,0,0,1,73.923,59.93Zm-49.017-.017a.586.586,0,0,1,.588-.589h0a.586.586,0,0,1,.583.589h0a.586.586,0,0,1-.583.588h0A.586.586,0,0,1,24.906,59.913Zm49.017-2.324A.59.59,0,0,1,74.512,57h0a.59.59,0,0,1,.588.588h0a.59.59,0,0,1-.588.588h0A.59.59,0,0,1,73.923,57.589Zm-49.017-.018a.582.582,0,0,1,.588-.588h0a.582.582,0,0,1,.583.588h0a.585.585,0,0,1-.583.588h0A.585.585,0,0,1,24.906,57.571Zm49.017-2.329a.59.59,0,0,1,.589-.588h0a.59.59,0,0,1,.588.588h0a.59.59,0,0,1-.588.588h0A.59.59,0,0,1,73.923,55.242Zm-49.017-.017a.586.586,0,0,1,.588-.589h0a.586.586,0,0,1,.583.589h0a.586.586,0,0,1-.583.588h0A.586.586,0,0,1,24.906,55.225ZM73.923,52.9a.591.591,0,0,1,.589-.594h0a.591.591,0,0,1,.588.594h0a.585.585,0,0,1-.588.582h0A.585.585,0,0,1,73.923,52.9Zm-49.017-.024a.586.586,0,0,1,.588-.588h0a.586.586,0,0,1,.583.588h0a.582.582,0,0,1-.583.589h0A.582.582,0,0,1,24.906,52.877Zm49.017-2.323a.587.587,0,0,1,.589-.588h0a.586.586,0,0,1,.588.588h0a.59.59,0,0,1-.588.588h0A.59.59,0,0,1,73.923,50.554Zm-49.017-.018a.582.582,0,0,1,.588-.588h0a.582.582,0,0,1,.583.588h0a.585.585,0,0,1-.583.588h0A.585.585,0,0,1,24.906,50.536Zm49.017-2.329a.591.591,0,0,1,.589-.589h0a.59.59,0,0,1,.588.589h0a.59.59,0,0,1-.588.588h0A.59.59,0,0,1,73.923,48.207Zm-49.017-.018a.585.585,0,0,1,.588-.588h0a.585.585,0,0,1,.583.588h0a.586.586,0,0,1-.583.589h0A.586.586,0,0,1,24.906,48.189ZM73.923,45.86a.586.586,0,0,1,.589-.583h0a.585.585,0,0,1,.588.583h0a.592.592,0,0,1-.588.594h0A.592.592,0,0,1,73.923,45.86Zm-49.017-.018a.581.581,0,0,1,.588-.582h0a.581.581,0,0,1,.583.582h0a.587.587,0,0,1-.583.594h0A.587.587,0,0,1,24.906,45.842Zm49.017-2.324a.59.59,0,0,1,.589-.588h0a.59.59,0,0,1,.588.588h0a.59.59,0,0,1-.588.589h0A.591.591,0,0,1,73.923,43.518ZM24.906,43.5a.586.586,0,0,1,.588-.589h0a.586.586,0,0,1,.583.589h0a.585.585,0,0,1-.583.588h0A.585.585,0,0,1,24.906,43.5Zm49.017-2.33a.59.59,0,0,1,.589-.588h0a.59.59,0,0,1,.588.588h0a.59.59,0,0,1-.588.589h0A.591.591,0,0,1,73.923,41.171Zm-49.017-.017a.585.585,0,0,1,.588-.588h0a.585.585,0,0,1,.583.588h0a.586.586,0,0,1-.583.588h0A.586.586,0,0,1,24.906,41.154ZM73.923,38.83a.587.587,0,0,1,.589-.588h0a.586.586,0,0,1,.588.588h0a.59.59,0,0,1-.588.589h0A.591.591,0,0,1,73.923,38.83Zm-49.017-.017a.586.586,0,0,1,.588-.594h0a.587.587,0,0,1,.583.594h0a.586.586,0,0,1-.583.588h0A.586.586,0,0,1,24.906,38.813Zm49.017-2.33a.59.59,0,0,1,.589-.588h0a.59.59,0,0,1,.588.588h0a.59.59,0,0,1-.588.588h0A.59.59,0,0,1,73.923,36.483Zm-49.017-.018a.586.586,0,0,1,.588-.588h0a.586.586,0,0,1,.583.588h0a.586.586,0,0,1-.583.589h0A.586.586,0,0,1,24.906,36.465Zm49.017-2.329a.59.59,0,0,1,.589-.588h0a.59.59,0,0,1,.588.588h0a.592.592,0,0,1-.588.595h0A.592.592,0,0,1,73.923,34.136Zm-49.017-.011a.586.586,0,0,1,.588-.594h0a.587.587,0,0,1,.583.594h0a.581.581,0,0,1-.583.582h0A.581.581,0,0,1,24.906,34.125ZM73.6,32.166h0a.588.588,0,0,1,.212-.806h0a.588.588,0,0,1,.806.212h0a.585.585,0,0,1-.212.8h0a.541.541,0,0,1-.294.083h0A.59.59,0,0,1,73.6,32.166ZM25.6,32.354a.581.581,0,0,1-.2-.806h0a.591.591,0,0,1,.806-.206h0a.594.594,0,0,1,.2.812h0a.6.6,0,0,1-.5.288h0A.56.56,0,0,1,25.6,32.354Zm46.53-1.283a.591.591,0,0,1-.429-.711h0a.586.586,0,0,1,.711-.43h0a.582.582,0,0,1,.43.712h0a.59.59,0,0,1-.571.447h0A.568.568,0,0,1,72.135,31.071ZM27.17,30.63a.587.587,0,0,1,.436-.706h0a.586.586,0,0,1,.706.436h0a.587.587,0,0,1-.436.706h0a.521.521,0,0,1-.135.017h0A.589.589,0,0,1,27.17,30.63Zm42.183-.218a.59.59,0,0,1,.588-.588h0a.59.59,0,0,1,.588.588h0a.59.59,0,0,1-.588.589h0A.59.59,0,0,1,69.353,30.412Zm-2.348,0a.59.59,0,0,1,.589-.588h0a.586.586,0,0,1,.588.588h0a.587.587,0,0,1-.588.589h0A.591.591,0,0,1,67,30.412Zm-2.34,0a.59.59,0,0,1,.588-.588h0a.59.59,0,0,1,.588.588h0a.59.59,0,0,1-.588.589h0A.59.59,0,0,1,64.665,30.412Zm-2.348,0a.59.59,0,0,1,.589-.588h0a.59.59,0,0,1,.588.588h0a.59.59,0,0,1-.588.589h0A.591.591,0,0,1,62.317,30.412Zm-2.341,0a.587.587,0,0,1,.589-.588h0a.585.585,0,0,1,.582.588h0a.585.585,0,0,1-.582.589h0A.587.587,0,0,1,59.976,30.412Zm-2.347,0a.59.59,0,0,1,.588-.588h0a.59.59,0,0,1,.589.588h0a.591.591,0,0,1-.589.589h0A.59.59,0,0,1,57.629,30.412Zm-2.347,0a.59.59,0,0,1,.588-.588h0a.59.59,0,0,1,.589.588h0A.591.591,0,0,1,55.87,31h0A.59.59,0,0,1,55.282,30.412Zm-2.341,0a.586.586,0,0,1,.588-.588h0a.59.59,0,0,1,.589.588h0a.591.591,0,0,1-.589.589h0A.587.587,0,0,1,52.941,30.412Zm-2.347,0a.59.59,0,0,1,.588-.588h0a.59.59,0,0,1,.588.588h0a.59.59,0,0,1-.588.589h0A.59.59,0,0,1,50.594,30.412Zm-2.341,0a.585.585,0,0,1,.582-.588h0a.591.591,0,0,1,.594.588h0a.591.591,0,0,1-.594.589h0A.585.585,0,0,1,48.253,30.412Zm-2.347,0a.59.59,0,0,1,.588-.588h0a.59.59,0,0,1,.588.588h0a.59.59,0,0,1-.588.589h0A.59.59,0,0,1,45.906,30.412Zm-2.347,0a.59.59,0,0,1,.588-.588h0a.59.59,0,0,1,.588.588h0a.59.59,0,0,1-.588.589h0A.59.59,0,0,1,43.559,30.412Zm-2.347,0a.591.591,0,0,1,.593-.588h0a.59.59,0,0,1,.589.588h0a.591.591,0,0,1-.589.589h0A.591.591,0,0,1,41.212,30.412Zm-2.341,0a.59.59,0,0,1,.588-.588h0a.59.59,0,0,1,.588.588h0a.59.59,0,0,1-.588.589h0A.59.59,0,0,1,38.871,30.412Zm-2.348,0a.59.59,0,0,1,.589-.588h0a.586.586,0,0,1,.588.588h0a.587.587,0,0,1-.588.589h0A.591.591,0,0,1,36.523,30.412Zm-2.341,0a.586.586,0,0,1,.588-.588h0a.59.59,0,0,1,.588.588h0A.59.59,0,0,1,34.77,31h0A.587.587,0,0,1,34.182,30.412Zm-2.347,0a.59.59,0,0,1,.588-.588h0a.59.59,0,0,1,.588.588h0a.59.59,0,0,1-.588.589h0A.59.59,0,0,1,31.835,30.412Zm-2.341,0a.585.585,0,0,1,.582-.588h0a.591.591,0,0,1,.594.588h0a.591.591,0,0,1-.594.589h0A.585.585,0,0,1,29.494,30.412Z" fill="#ffa500"/>
        </g>
        <g id="Group_2502" data-name="Group 2502">
          <path id="Path_24926" data-name="Path 24926" d="M25.494,62.865a.587.587,0,0,1-.418-.176.558.558,0,0,1-.17-.412.566.566,0,0,1,.041-.223.726.726,0,0,1,.129-.195.6.6,0,0,1,.088-.07.356.356,0,0,1,.1-.053.452.452,0,0,1,.112-.035.585.585,0,0,1,.53.158.608.608,0,0,1,.129.195.585.585,0,0,1,.042.223.563.563,0,0,1-.171.412A.584.584,0,0,1,25.494,62.865Z" fill="#ffa500"/>
        </g>
        <g id="Group_2503" data-name="Group 2503">
          <path id="Path_24927" data-name="Path 24927" d="M71.676,62.277a.59.59,0,0,1,.588-.588h0a.59.59,0,0,1,.589.588h0a.59.59,0,0,1-.589.588h0A.59.59,0,0,1,71.676,62.277Zm-2.341,0a.59.59,0,0,1,.588-.588h0a.59.59,0,0,1,.588.588h0a.589.589,0,0,1-.588.588h0A.59.59,0,0,1,69.335,62.277Zm-2.341,0a.59.59,0,0,1,.588-.588h0a.59.59,0,0,1,.588.588h0a.589.589,0,0,1-.588.588h0A.59.59,0,0,1,66.994,62.277Zm-2.342,0a.59.59,0,0,1,.589-.588h0a.586.586,0,0,1,.588.588h0a.586.586,0,0,1-.588.588h0A.59.59,0,0,1,64.652,62.277Zm-2.335,0a.59.59,0,0,1,.589-.588h0a.59.59,0,0,1,.588.588h0a.59.59,0,0,1-.588.588h0A.59.59,0,0,1,62.317,62.277Zm-2.341,0a.59.59,0,0,1,.589-.588h0a.59.59,0,0,1,.588.588h0a.59.59,0,0,1-.588.588h0A.59.59,0,0,1,59.976,62.277Zm-2.335,0a.586.586,0,0,1,.588-.588h0a.59.59,0,0,1,.588.588h0a.589.589,0,0,1-.588.588h0A.586.586,0,0,1,57.641,62.277Zm-2.341,0a.59.59,0,0,1,.588-.588h0a.59.59,0,0,1,.588.588h0a.589.589,0,0,1-.588.588h0A.59.59,0,0,1,55.3,62.277Zm-2.342,0a.59.59,0,0,1,.589-.588h0a.586.586,0,0,1,.588.588h0a.586.586,0,0,1-.588.588h0A.59.59,0,0,1,52.958,62.277Zm-2.335,0a.59.59,0,0,1,.589-.588h0a.59.59,0,0,1,.588.588h0a.59.59,0,0,1-.588.588h0A.59.59,0,0,1,50.623,62.277Zm-2.341,0a.59.59,0,0,1,.589-.588h0a.59.59,0,0,1,.588.588h0a.59.59,0,0,1-.588.588h0A.59.59,0,0,1,48.282,62.277Zm-2.335,0a.59.59,0,0,1,.588-.588h0a.59.59,0,0,1,.588.588h0a.59.59,0,0,1-.588.588h0A.59.59,0,0,1,45.947,62.277Zm-2.335,0a.59.59,0,0,1,.588-.588h0a.59.59,0,0,1,.588.588h0a.59.59,0,0,1-.588.588h0A.589.589,0,0,1,43.612,62.277Zm-2.342,0a.59.59,0,0,1,.588-.588h0a.59.59,0,0,1,.589.588h0a.59.59,0,0,1-.589.588h0A.59.59,0,0,1,41.27,62.277Zm-2.335,0a.586.586,0,0,1,.588-.588h0a.59.59,0,0,1,.588.588h0a.589.589,0,0,1-.588.588h0A.586.586,0,0,1,38.935,62.277Zm-2.341,0a.59.59,0,0,1,.588-.588h0a.59.59,0,0,1,.589.588h0a.59.59,0,0,1-.589.588h0A.589.589,0,0,1,36.594,62.277Zm-2.341,0a.59.59,0,0,1,.588-.588h0a.59.59,0,0,1,.588.588h0a.59.59,0,0,1-.588.588h0A.589.589,0,0,1,34.253,62.277Zm-2.335,0a.59.59,0,0,1,.588-.588h0a.59.59,0,0,1,.588.588h0a.59.59,0,0,1-.588.588h0A.589.589,0,0,1,31.918,62.277Zm-2.342,0a.59.59,0,0,1,.588-.588h0a.59.59,0,0,1,.589.588h0a.59.59,0,0,1-.589.588h0A.59.59,0,0,1,29.576,62.277Zm-2.341,0a.59.59,0,0,1,.588-.588h0a.59.59,0,0,1,.589.588h0a.59.59,0,0,1-.589.588h0A.59.59,0,0,1,27.235,62.277Z" fill="#ffa500"/>
        </g>
      </g>
      <g id="Group_2513" data-name="Group 2513">
        <g id="Group_2505" data-name="Group 2505">
          <path id="Path_24928" data-name="Path 24928" d="M30.394,35.907a.59.59,0,0,1-.223-.047.6.6,0,0,1-.195-.13.546.546,0,0,1-.17-.411.6.6,0,0,1,.17-.418.588.588,0,0,1,1.006.418.5.5,0,0,1-.047.223.568.568,0,0,1-.123.188.607.607,0,0,1-.194.13A.6.6,0,0,1,30.394,35.907Z" fill="#ffa500"/>
        </g>
        <g id="Group_2506" data-name="Group 2506">
          <path id="Path_24929" data-name="Path 24929" d="M66.711,35.319a.587.587,0,0,1,.6-.588h0a.581.581,0,0,1,.582.588h0a.585.585,0,0,1-.582.588h0A.592.592,0,0,1,66.711,35.319Zm-2.306,0a.586.586,0,0,1,.589-.588h0a.582.582,0,0,1,.588.588h0a.586.586,0,0,1-.588.588h0A.59.59,0,0,1,64.4,35.319Zm-2.305,0a.585.585,0,0,1,.588-.588h0a.586.586,0,0,1,.588.588h0a.59.59,0,0,1-.588.588h0A.59.59,0,0,1,62.1,35.319Zm-2.306,0a.586.586,0,0,1,.588-.588h0a.586.586,0,0,1,.588.588h0a.59.59,0,0,1-.588.588h0A.59.59,0,0,1,59.794,35.319Zm-2.306,0a.582.582,0,0,1,.588-.588h0a.585.585,0,0,1,.588.588h0a.59.59,0,0,1-.588.588h0A.586.586,0,0,1,57.488,35.319Zm-2.306,0a.582.582,0,0,1,.588-.588h0a.586.586,0,0,1,.589.588h0a.59.59,0,0,1-.589.588h0A.586.586,0,0,1,55.182,35.319Zm-2.306,0a.581.581,0,0,1,.583-.588h0a.582.582,0,0,1,.588.588h0a.586.586,0,0,1-.588.588h0A.585.585,0,0,1,52.876,35.319Zm-2.311,0a.585.585,0,0,1,.588-.588h0a.586.586,0,0,1,.588.588h0a.59.59,0,0,1-.588.588h0A.59.59,0,0,1,50.565,35.319Zm-2.306,0a.585.585,0,0,1,.588-.588h0a.586.586,0,0,1,.588.588h0a.59.59,0,0,1-.588.588h0A.59.59,0,0,1,48.259,35.319Zm-2.307,0a.586.586,0,0,1,.589-.588h0a.585.585,0,0,1,.588.588h0a.59.59,0,0,1-.588.588h0A.59.59,0,0,1,45.952,35.319Zm-2.305,0a.585.585,0,0,1,.588-.588h0a.585.585,0,0,1,.588.588h0a.59.59,0,0,1-.588.588h0A.59.59,0,0,1,43.647,35.319Zm-2.306,0a.582.582,0,0,1,.588-.588h0a.585.585,0,0,1,.588.588h0a.59.59,0,0,1-.588.588h0A.586.586,0,0,1,41.341,35.319Zm-2.306,0a.582.582,0,0,1,.588-.588h0a.585.585,0,0,1,.588.588h0a.59.59,0,0,1-.588.588h0A.586.586,0,0,1,39.035,35.319Zm-2.312,0a.586.586,0,0,1,.589-.588h0a.582.582,0,0,1,.588.588h0a.586.586,0,0,1-.588.588h0A.59.59,0,0,1,36.723,35.319Zm-2.305,0a.585.585,0,0,1,.588-.588h0a.586.586,0,0,1,.588.588h0a.59.59,0,0,1-.588.588h0A.59.59,0,0,1,34.418,35.319Zm-2.306,0a.585.585,0,0,1,.588-.588h0a.586.586,0,0,1,.588.588h0a.59.59,0,0,1-.588.588h0A.59.59,0,0,1,32.112,35.319Z" fill="#ffa500"/>
        </g>
        <g id="Group_2507" data-name="Group 2507">
          <path id="Path_24930" data-name="Path 24930" d="M69.612,35.907a.587.587,0,0,1-.418-.177.517.517,0,0,1-.13-.188.584.584,0,0,1-.041-.223.573.573,0,0,1,.171-.418.6.6,0,0,1,.83,0,.576.576,0,0,1,0,.829.529.529,0,0,1-.189.13A.594.594,0,0,1,69.612,35.907Z" fill="#ffa500"/>
        </g>
        <g id="Group_2508" data-name="Group 2508">
          <path id="Path_24931" data-name="Path 24931" d="M69.023,54.924a.587.587,0,0,1,.589-.588h0a.59.59,0,0,1,.588.588h0a.59.59,0,0,1-.588.588h0A.586.586,0,0,1,69.023,54.924Zm0-2.453a.587.587,0,0,1,.589-.588h0a.59.59,0,0,1,.588.588h0a.59.59,0,0,1-.588.588h0A.586.586,0,0,1,69.023,52.471Zm0-2.446a.583.583,0,0,1,.589-.589h0a.587.587,0,0,1,.588.589h0a.59.59,0,0,1-.588.588h0A.587.587,0,0,1,69.023,50.025Zm0-2.454a.587.587,0,0,1,.589-.588h0a.59.59,0,0,1,.588.588h0a.59.59,0,0,1-.588.588h0A.586.586,0,0,1,69.023,47.571Zm0-2.453a.587.587,0,0,1,.589-.588h0a.59.59,0,0,1,.588.588h0a.59.59,0,0,1-.588.589h0A.587.587,0,0,1,69.023,45.118Zm0-2.446a.583.583,0,0,1,.589-.589h0a.587.587,0,0,1,.588.589h0a.59.59,0,0,1-.588.588h0A.587.587,0,0,1,69.023,42.672Zm0-2.454a.587.587,0,0,1,.589-.588h0a.59.59,0,0,1,.588.588h0a.59.59,0,0,1-.588.588h0A.586.586,0,0,1,69.023,40.218Zm0-2.453a.587.587,0,0,1,.589-.588h0a.59.59,0,0,1,.588.588h0a.59.59,0,0,1-.588.589h0A.587.587,0,0,1,69.023,37.765Z" fill="#ffa500"/>
        </g>
        <g id="Group_2509" data-name="Group 2509">
          <path id="Path_24932" data-name="Path 24932" d="M69.612,57.966a.6.6,0,0,1-.23-.047.526.526,0,0,1-.188-.13.584.584,0,0,1-.176-.411.621.621,0,0,1,.046-.23.517.517,0,0,1,.13-.188.58.58,0,0,1,.529-.159.7.7,0,0,1,.112.029.612.612,0,0,1,.1.059.269.269,0,0,1,.089.071.515.515,0,0,1,.129.188.622.622,0,0,1,.047.23.588.588,0,0,1-.176.411.529.529,0,0,1-.189.13A.594.594,0,0,1,69.612,57.966Z" fill="#ffa500"/>
        </g>
        <g id="Group_2510" data-name="Group 2510">
          <path id="Path_24933" data-name="Path 24933" d="M66.718,57.378a.581.581,0,0,1,.582-.589h0a.583.583,0,0,1,.588.589h0a.586.586,0,0,1-.588.588h0A.584.584,0,0,1,66.718,57.378Zm-2.313,0a.587.587,0,0,1,.589-.589h0a.583.583,0,0,1,.588.589h0a.586.586,0,0,1-.588.588h0A.59.59,0,0,1,64.4,57.378Zm-2.305,0a.586.586,0,0,1,.588-.589h0a.587.587,0,0,1,.588.589h0a.59.59,0,0,1-.588.588h0A.59.59,0,0,1,62.1,57.378Zm-2.306,0a.587.587,0,0,1,.588-.589h0a.587.587,0,0,1,.588.589h0a.59.59,0,0,1-.588.588h0A.59.59,0,0,1,59.794,57.378Zm-2.306,0a.587.587,0,0,1,.588-.589h0a.586.586,0,0,1,.588.589h0a.59.59,0,0,1-.588.588h0A.59.59,0,0,1,57.488,57.378Zm-2.306,0a.583.583,0,0,1,.588-.589h0a.587.587,0,0,1,.589.589h0a.59.59,0,0,1-.589.588h0A.586.586,0,0,1,55.182,57.378Zm-2.311,0a.587.587,0,0,1,.593-.589h0a.582.582,0,0,1,.583.589h0a.585.585,0,0,1-.583.588h0A.591.591,0,0,1,52.871,57.378Zm-2.306,0a.586.586,0,0,1,.588-.589h0a.583.583,0,0,1,.588.589h0a.586.586,0,0,1-.588.588h0A.59.59,0,0,1,50.565,57.378Zm-2.306,0a.586.586,0,0,1,.588-.589h0a.587.587,0,0,1,.588.589h0a.59.59,0,0,1-.588.588h0A.59.59,0,0,1,48.259,57.378Zm-2.307,0a.587.587,0,0,1,.589-.589h0a.586.586,0,0,1,.588.589h0a.59.59,0,0,1-.588.588h0A.59.59,0,0,1,45.952,57.378Zm-2.305,0a.586.586,0,0,1,.588-.589h0a.586.586,0,0,1,.588.589h0a.59.59,0,0,1-.588.588h0A.59.59,0,0,1,43.647,57.378Zm-2.306,0a.587.587,0,0,1,.588-.589h0a.586.586,0,0,1,.588.589h0a.59.59,0,0,1-.588.588h0A.59.59,0,0,1,41.341,57.378Zm-2.306,0a.583.583,0,0,1,.588-.589h0a.586.586,0,0,1,.588.589h0a.59.59,0,0,1-.588.588h0A.586.586,0,0,1,39.035,57.378Zm-2.306,0a.582.582,0,0,1,.583-.589h0a.588.588,0,0,1,.594.589h0a.592.592,0,0,1-.594.588h0A.585.585,0,0,1,36.729,57.378Zm-2.311,0a.586.586,0,0,1,.588-.589h0a.587.587,0,0,1,.588.589h0a.59.59,0,0,1-.588.588h0A.59.59,0,0,1,34.418,57.378Zm-2.306,0a.586.586,0,0,1,.588-.589h0a.587.587,0,0,1,.588.589h0a.59.59,0,0,1-.588.588h0A.59.59,0,0,1,32.112,57.378Z" fill="#ffa500"/>
        </g>
        <g id="Group_2511" data-name="Group 2511">
          <path id="Path_24934" data-name="Path 24934" d="M30.394,57.966a.59.59,0,0,1-.223-.047.6.6,0,0,1-.195-.13.577.577,0,0,1-.17-.411.6.6,0,0,1,.047-.23.568.568,0,0,1,.123-.188.617.617,0,0,1,.195-.13.6.6,0,0,1,.447,0,.7.7,0,0,1,.194.13.568.568,0,0,1,.123.188.539.539,0,0,1,.047.23.582.582,0,0,1-.17.411.607.607,0,0,1-.194.13A.6.6,0,0,1,30.394,57.966Z" fill="#ffa500"/>
        </g>
        <g id="Group_2512" data-name="Group 2512">
          <path id="Path_24935" data-name="Path 24935" d="M29.806,54.924a.59.59,0,0,1,.588-.588h0a.59.59,0,0,1,.588.588h0a.59.59,0,0,1-.588.588h0A.589.589,0,0,1,29.806,54.924Zm0-2.453a.59.59,0,0,1,.588-.588h0a.59.59,0,0,1,.588.588h0a.59.59,0,0,1-.588.588h0A.589.589,0,0,1,29.806,52.471Zm0-2.446a.586.586,0,0,1,.588-.589h0a.587.587,0,0,1,.588.589h0a.59.59,0,0,1-.588.588h0A.59.59,0,0,1,29.806,50.025Zm0-2.454a.59.59,0,0,1,.588-.588h0a.59.59,0,0,1,.588.588h0a.59.59,0,0,1-.588.588h0A.589.589,0,0,1,29.806,47.571Zm0-2.453a.59.59,0,0,1,.588-.588h0a.59.59,0,0,1,.588.588h0a.59.59,0,0,1-.588.589h0A.59.59,0,0,1,29.806,45.118Zm0-2.446a.586.586,0,0,1,.588-.589h0a.587.587,0,0,1,.588.589h0a.59.59,0,0,1-.588.588h0A.59.59,0,0,1,29.806,42.672Zm0-2.454a.59.59,0,0,1,.588-.588h0a.59.59,0,0,1,.588.588h0a.59.59,0,0,1-.588.588h0A.589.589,0,0,1,29.806,40.218Zm0-2.453a.59.59,0,0,1,.588-.588h0a.59.59,0,0,1,.588.588h0a.587.587,0,0,1-.588.589h0A.586.586,0,0,1,29.806,37.765Z" fill="#ffa500"/>
        </g>
      </g>
      <g id="Group_2522" data-name="Group 2522">
        <g id="Group_2514" data-name="Group 2514">
          <path id="Path_24936" data-name="Path 24936" d="M79.412,65.319a.591.591,0,0,1-.224-.047.526.526,0,0,1-.188-.13.5.5,0,0,1-.129-.188.575.575,0,0,1-.047-.223.626.626,0,0,1,.047-.23A.5.5,0,0,1,79,64.313a.6.6,0,0,1,.188-.13.617.617,0,0,1,.341-.035c.036.012.071.024.112.035a1.044,1.044,0,0,1,.1.059.457.457,0,0,1,.088.071.6.6,0,0,1,.13.188.639.639,0,0,1,.041.23.588.588,0,0,1-.041.223.6.6,0,0,1-.13.188A.588.588,0,0,1,79.412,65.319Z" fill="#ffa500"/>
        </g>
        <g id="Group_2515" data-name="Group 2515">
          <path id="Path_24937" data-name="Path 24937" d="M75.382,69.63a.59.59,0,0,1,.588-.588h0a.586.586,0,0,1,.588.588h0a.585.585,0,0,1-.588.588h0A.59.59,0,0,1,75.382,69.63Zm-2.359,0a.59.59,0,0,1,.589-.588h0a.59.59,0,0,1,.588.588h0a.59.59,0,0,1-.588.588h0A.59.59,0,0,1,73.023,69.63Zm-2.358,0a.586.586,0,0,1,.588-.588h0a.59.59,0,0,1,.588.588h0a.59.59,0,0,1-.588.588h0A.585.585,0,0,1,70.665,69.63Zm-2.36,0a.587.587,0,0,1,.589-.588h0a.59.59,0,0,1,.588.588h0a.589.589,0,0,1-.588.588h0A.586.586,0,0,1,68.305,69.63Zm-2.364,0a.592.592,0,0,1,.594-.588h0a.585.585,0,0,1,.582.588h0a.584.584,0,0,1-.582.588h0A.591.591,0,0,1,65.941,69.63Zm-2.359,0a.59.59,0,0,1,.588-.588h0a.59.59,0,0,1,.589.588h0a.59.59,0,0,1-.589.588h0A.59.59,0,0,1,63.582,69.63Zm-2.358,0a.59.59,0,0,1,.588-.588h0a.59.59,0,0,1,.588.588h0a.59.59,0,0,1-.588.588h0A.589.589,0,0,1,61.224,69.63Zm-2.36,0a.587.587,0,0,1,.589-.588h0a.59.59,0,0,1,.588.588h0a.59.59,0,0,1-.588.588h0A.586.586,0,0,1,58.864,69.63Zm-2.364,0a.59.59,0,0,1,.588-.588h0a.586.586,0,0,1,.588.588h0a.586.586,0,0,1-.588.588h0A.59.59,0,0,1,56.5,69.63Zm-2.359,0a.59.59,0,0,1,.588-.588h0a.59.59,0,0,1,.589.588h0a.59.59,0,0,1-.589.588h0A.589.589,0,0,1,54.141,69.63Zm-2.359,0a.59.59,0,0,1,.588-.588h0a.59.59,0,0,1,.588.588h0a.589.589,0,0,1-.588.588h0A.59.59,0,0,1,51.782,69.63Zm-2.359,0a.586.586,0,0,1,.588-.588h0a.59.59,0,0,1,.589.588h0a.59.59,0,0,1-.589.588h0A.586.586,0,0,1,49.423,69.63Zm-2.364,0a.59.59,0,0,1,.588-.588h0a.586.586,0,0,1,.588.588h0a.586.586,0,0,1-.588.588h0A.589.589,0,0,1,47.059,69.63Zm-2.359,0a.59.59,0,0,1,.588-.588h0a.59.59,0,0,1,.588.588h0a.589.589,0,0,1-.588.588h0A.589.589,0,0,1,44.7,69.63Zm-2.359,0a.586.586,0,0,1,.588-.588h0a.59.59,0,0,1,.588.588h0a.589.589,0,0,1-.588.588h0A.586.586,0,0,1,42.341,69.63Zm-2.359,0a.586.586,0,0,1,.588-.588h0a.59.59,0,0,1,.589.588h0a.59.59,0,0,1-.589.588h0A.586.586,0,0,1,39.982,69.63Zm-2.365,0a.59.59,0,0,1,.588-.588h0a.587.587,0,0,1,.589.588h0a.586.586,0,0,1-.589.588h0A.59.59,0,0,1,37.617,69.63Zm-2.358,0a.59.59,0,0,1,.588-.588h0a.59.59,0,0,1,.588.588h0a.59.59,0,0,1-.588.588h0A.589.589,0,0,1,35.259,69.63Zm-2.359,0a.59.59,0,0,1,.588-.588h0a.59.59,0,0,1,.588.588h0a.59.59,0,0,1-.588.588h0A.59.59,0,0,1,32.9,69.63Zm-2.365,0a.59.59,0,0,1,.588-.588h0a.592.592,0,0,1,.6.588h0a.591.591,0,0,1-.6.588h0A.59.59,0,0,1,30.535,69.63Zm-2.359,0a.59.59,0,0,1,.588-.588h0a.59.59,0,0,1,.589.588h0a.59.59,0,0,1-.589.588h0A.59.59,0,0,1,28.176,69.63Zm-2.359,0a.59.59,0,0,1,.589-.588h0a.59.59,0,0,1,.588.588h0a.59.59,0,0,1-.588.588h0A.59.59,0,0,1,25.817,69.63Zm-2.358,0a.586.586,0,0,1,.588-.588h0a.59.59,0,0,1,.588.588h0a.59.59,0,0,1-.588.588h0A.585.585,0,0,1,23.459,69.63Zm-2-.082h0a.585.585,0,0,1-.13-.823h0a.58.58,0,0,1,.818-.13h0a.592.592,0,0,1,.135.824h0a.589.589,0,0,1-.477.241h0A.581.581,0,0,1,21.459,69.548Zm56.276-.141a.586.586,0,0,1,.129-.818h0a.592.592,0,0,1,.824.124h0a.591.591,0,0,1-.129.823h0a.594.594,0,0,1-.347.112h0A.588.588,0,0,1,77.735,69.407Zm-57.7-2.224a.592.592,0,0,1,.5-.664h0a.59.59,0,0,1,.665.5h0a.582.582,0,0,1-.5.664h0a.382.382,0,0,1-.082.006h0A.588.588,0,0,1,20.035,67.183Zm59.27.489a.589.589,0,0,1-.5-.665h0a.58.58,0,0,1,.659-.5h0a.585.585,0,0,1,.505.659h0a.593.593,0,0,1-.582.511h0C79.358,67.677,79.335,67.672,79.305,67.672Z" fill="#ffa500"/>
        </g>
        <g id="Group_2516" data-name="Group 2516">
          <path id="Path_24938" data-name="Path 24938" d="M20.588,65.319a.6.6,0,0,1-.224-.047.526.526,0,0,1-.188-.13.5.5,0,0,1-.129-.188A.575.575,0,0,1,20,64.731a.626.626,0,0,1,.047-.23.5.5,0,0,1,.129-.188.6.6,0,0,1,.188-.13.611.611,0,0,1,.453,0,.6.6,0,0,1,.189.13.584.584,0,0,1,.129.188.639.639,0,0,1,.041.23.546.546,0,0,1-.17.411.53.53,0,0,1-.189.13A.6.6,0,0,1,20.588,65.319Z" fill="#ffa500"/>
        </g>
        <g id="Group_2517" data-name="Group 2517">
          <path id="Path_24939" data-name="Path 24939" d="M42.059,64.731a.586.586,0,0,1,.588-.589h0a.583.583,0,0,1,.588.589h0a.586.586,0,0,1-.588.588h0A.59.59,0,0,1,42.059,64.731Zm-2.447,0a.582.582,0,0,1,.588-.589h0a.587.587,0,0,1,.588.589h0a.59.59,0,0,1-.588.588h0A.586.586,0,0,1,39.612,64.731Zm-2.453,0a.586.586,0,0,1,.588-.589h0a.587.587,0,0,1,.588.589h0a.59.59,0,0,1-.588.588h0A.59.59,0,0,1,37.159,64.731Zm-2.453,0a.586.586,0,0,1,.588-.589h0a.586.586,0,0,1,.588.589h0a.59.59,0,0,1-.588.588h0A.59.59,0,0,1,34.706,64.731Zm-2.447,0a.581.581,0,0,1,.582-.589h0a.588.588,0,0,1,.594.589h0a.592.592,0,0,1-.594.588h0A.584.584,0,0,1,32.259,64.731Zm-2.453,0a.586.586,0,0,1,.588-.589h0a.587.587,0,0,1,.588.589h0a.59.59,0,0,1-.588.588h0A.59.59,0,0,1,29.806,64.731Zm-2.453,0a.586.586,0,0,1,.588-.589h0a.583.583,0,0,1,.588.589h0a.586.586,0,0,1-.588.588h0A.59.59,0,0,1,27.353,64.731Zm-2.447,0a.582.582,0,0,1,.588-.589h0a.587.587,0,0,1,.588.589h0a.59.59,0,0,1-.588.588h0A.586.586,0,0,1,24.906,64.731Zm-2.453,0a.586.586,0,0,1,.588-.589h0a.586.586,0,0,1,.588.589h0a.59.59,0,0,1-.588.588h0A.59.59,0,0,1,22.453,64.731Z" fill="#ffa500"/>
        </g>
        <g id="Group_2518" data-name="Group 2518">
          <path id="Path_24940" data-name="Path 24940" d="M45.1,65.319a.6.6,0,0,1-.224-.047.548.548,0,0,1-.194-.13.7.7,0,0,1-.129-.188.569.569,0,0,1-.041-.223.524.524,0,0,1,.047-.23.568.568,0,0,1,.123-.188.489.489,0,0,1,.088-.071c.036-.023.071-.041.106-.059l.112-.035a.733.733,0,0,1,.229,0l.106.035a1.124,1.124,0,0,1,.106.059.494.494,0,0,1,.089.071.583.583,0,0,1,.123.188.647.647,0,0,1,.047.23.594.594,0,0,1-.047.223.584.584,0,0,1-.123.188.611.611,0,0,1-.195.13A.59.59,0,0,1,45.1,65.319Z" fill="#ffa500"/>
        </g>
        <g id="Group_2519" data-name="Group 2519">
          <path id="Path_24941" data-name="Path 24941" d="M52.771,65.954a.59.59,0,0,1,.588-.589h0a.59.59,0,0,1,.588.589h0a.59.59,0,0,1-.588.588h0A.589.589,0,0,1,52.771,65.954Zm-2.236,0a.587.587,0,0,1,.588-.589h0a.59.59,0,0,1,.588.589h0a.589.589,0,0,1-.588.588h0A.586.586,0,0,1,50.535,65.954Zm-2.241,0a.59.59,0,0,1,.588-.589h0a.59.59,0,0,1,.588.589h0a.589.589,0,0,1-.588.588h0A.59.59,0,0,1,48.294,65.954Zm-2.241,0a.59.59,0,0,1,.588-.589h0a.59.59,0,0,1,.588.589h0a.589.589,0,0,1-.588.588h0A.589.589,0,0,1,46.053,65.954Z" fill="#ffa500"/>
        </g>
        <g id="Group_2520" data-name="Group 2520">
          <path id="Path_24942" data-name="Path 24942" d="M54.906,65.319a.6.6,0,0,1-.23-.047.526.526,0,0,1-.188-.13.6.6,0,0,1-.13-.188.578.578,0,0,1,.13-.641.457.457,0,0,1,.088-.071.658.658,0,0,1,.1-.059c.036-.011.077-.023.112-.035a.591.591,0,0,1,.53.165.584.584,0,0,1,.129.188.647.647,0,0,1,.047.23.594.594,0,0,1-.047.223.515.515,0,0,1-.129.188A.585.585,0,0,1,54.906,65.319Z" fill="#ffa500"/>
        </g>
        <g id="Group_2521" data-name="Group 2521">
          <path id="Path_24943" data-name="Path 24943" d="M76.376,64.731a.583.583,0,0,1,.589-.589h0a.587.587,0,0,1,.588.589h0a.59.59,0,0,1-.588.588h0A.587.587,0,0,1,76.376,64.731Zm-2.453,0a.587.587,0,0,1,.589-.589h0a.587.587,0,0,1,.588.589h0a.59.59,0,0,1-.588.588h0A.59.59,0,0,1,73.923,64.731Zm-2.452,0a.586.586,0,0,1,.588-.589h0a.587.587,0,0,1,.588.589h0a.59.59,0,0,1-.588.588h0A.59.59,0,0,1,71.471,64.731Zm-2.448,0a.582.582,0,0,1,.583-.589h0a.588.588,0,0,1,.594.589h0a.592.592,0,0,1-.594.588h0A.585.585,0,0,1,69.023,64.731Zm-2.452,0a.586.586,0,0,1,.588-.589h0a.587.587,0,0,1,.588.589h0a.59.59,0,0,1-.588.588h0A.59.59,0,0,1,66.571,64.731Zm-2.453,0a.586.586,0,0,1,.588-.589h0a.583.583,0,0,1,.588.589h0a.586.586,0,0,1-.588.588h0A.59.59,0,0,1,64.118,64.731Zm-2.448,0a.583.583,0,0,1,.589-.589h0a.587.587,0,0,1,.588.589h0a.59.59,0,0,1-.588.588h0A.587.587,0,0,1,61.67,64.731Zm-2.452,0a.586.586,0,0,1,.588-.589h0a.587.587,0,0,1,.588.589h0a.59.59,0,0,1-.588.588h0A.59.59,0,0,1,59.218,64.731Zm-2.453,0a.586.586,0,0,1,.588-.589h0a.587.587,0,0,1,.588.589h0a.59.59,0,0,1-.588.588h0A.59.59,0,0,1,56.765,64.731Z" fill="#ffa500"/>
        </g>
      </g>
    </g>
  </g>
</svg>