<svg xmlns="http://www.w3.org/2000/svg" width="59.936" height="60" viewBox="0 0 59.936 60">
  <g id="Individual-learning-and-development" transform="translate(-20.029 -20)">
    <g id="Group_2453" data-name="Group 2453">
      <rect id="Rectangle_54" data-name="Rectangle 54" width="59.936" height="59.936" transform="translate(20.029 20.064)" fill="none"/>
    </g>
    <g id="Group_2498" data-name="Group 2498">
      <g id="Group_2460" data-name="Group 2460">
        <g id="Group_2454" data-name="Group 2454">
          <path id="Path_24882" data-name="Path 24882" d="M58.666,80a.583.583,0,0,1-.418-.171.588.588,0,0,1,0-.829,1.032,1.032,0,0,1,.088-.077c.035-.017.065-.035.1-.052l.112-.035a.583.583,0,0,1,.529.164.369.369,0,0,1,.077.088c.018.03.035.065.053.1a.451.451,0,0,1,.035.112.713.713,0,0,1,.012.118.6.6,0,0,1-.047.224.514.514,0,0,1-.13.187A.568.568,0,0,1,58.666,80Z" fill="#ffa500"/>
        </g>
        <g id="Group_2455" data-name="Group 2455">
          <path id="Path_24883" data-name="Path 24883" d="M55.695,79.412a.59.59,0,0,1,.588-.588h0a.59.59,0,0,1,.589.588h0a.587.587,0,0,1-.589.588h0A.586.586,0,0,1,55.695,79.412Zm-2.376,0a.589.589,0,0,1,.588-.588h0a.59.59,0,0,1,.588.588h0a.586.586,0,0,1-.588.588h0A.586.586,0,0,1,53.319,79.412Zm-2.383,0a.59.59,0,0,1,.589-.588h0a.586.586,0,0,1,.588.588h0a.583.583,0,0,1-.588.588h0A.587.587,0,0,1,50.936,79.412Zm-2.376,0a.589.589,0,0,1,.588-.588h0a.59.59,0,0,1,.588.588h0a.586.586,0,0,1-.588.588h0A.586.586,0,0,1,48.56,79.412Zm-2.377,0a.586.586,0,0,1,.589-.588h0a.59.59,0,0,1,.588.588h0a.586.586,0,0,1-.588.588h0A.583.583,0,0,1,46.183,79.412Zm-2.382,0a.589.589,0,0,1,.588-.588h0a.587.587,0,0,1,.589.588h0a.583.583,0,0,1-.589.588h0A.586.586,0,0,1,43.8,79.412Zm-2.376,0a.589.589,0,0,1,.588-.588h0a.59.59,0,0,1,.588.588h0a.586.586,0,0,1-.588.588h0A.586.586,0,0,1,41.425,79.412Zm-2.383,0a.593.593,0,0,1,.588-.588h0a.585.585,0,0,1,.588.588h0A.582.582,0,0,1,39.63,80h0A.59.59,0,0,1,39.042,79.412Zm-2.377,0a.59.59,0,0,1,.589-.588h0a.589.589,0,0,1,.588.588h0a.586.586,0,0,1-.588.588h0A.587.587,0,0,1,36.665,79.412Zm-2.376,0a.59.59,0,0,1,.588-.588h0a.589.589,0,0,1,.588.588h0a.586.586,0,0,1-.588.588h0A.586.586,0,0,1,34.289,79.412Zm-2.382,0a.589.589,0,0,1,.588-.588h0a.585.585,0,0,1,.588.588h0a.582.582,0,0,1-.588.588h0A.586.586,0,0,1,31.907,79.412Z" fill="#ffa500"/>
        </g>
        <g id="Group_2456" data-name="Group 2456">
          <path id="Path_24884" data-name="Path 24884" d="M30.118,80a.566.566,0,0,1-.223-.041.71.71,0,0,1-.194-.13.566.566,0,0,1-.124-.187A.583.583,0,0,1,29.7,79a.643.643,0,0,1,.094-.077c.029-.017.065-.035.1-.052s.07-.024.112-.035a.733.733,0,0,1,.229,0l.106.035c.041.017.07.035.106.052s.059.048.088.077a.573.573,0,0,1,.171.418.538.538,0,0,1-.171.411.629.629,0,0,1-.194.13A.548.548,0,0,1,30.118,80Z" fill="#ffa500"/>
        </g>
        <g id="Group_2457" data-name="Group 2457">
          <path id="Path_24885" data-name="Path 24885" d="M30.412,77.671a.592.592,0,0,1-.488-.677h0a.588.588,0,0,1,.671-.488h0a.589.589,0,0,1,.488.671h0a.581.581,0,0,1-.576.5h0A.6.6,0,0,1,30.412,77.671Zm.354-2.336a.589.589,0,0,1-.512-.658h0a.59.59,0,0,1,.659-.507h0a.592.592,0,0,1,.512.659h0a.6.6,0,0,1-.583.512h0A.3.3,0,0,1,30.766,75.335Zm.282-2.341a.587.587,0,0,1-.529-.641h0a.587.587,0,0,1,.641-.529h0a.587.587,0,0,1,.529.641h0A.592.592,0,0,1,31.1,73h0A.16.16,0,0,1,31.048,72.994Zm.194-2.353a.577.577,0,0,1-.565-.6h0a.58.58,0,0,1,.612-.565h0a.587.587,0,0,1,.565.612h0a.6.6,0,0,1-.589.564h0C31.254,70.647,31.248,70.647,31.242,70.641Zm-.553-2.923a.59.59,0,0,1,.571-.606h0a.584.584,0,0,1,.606.571v-.007a.588.588,0,0,1-.571.612h-.017A.6.6,0,0,1,30.689,67.718Zm-.182-2.288h0a.593.593,0,0,1,.506-.665h0a.586.586,0,0,1,.659.506h0a.58.58,0,0,1-.5.658h0a.378.378,0,0,1-.082.006h0A.587.587,0,0,1,30.507,65.43Zm-.453-2.224V63.2h0a.587.587,0,0,1,.406-.724h0a.588.588,0,0,1,.723.407v-.006a.581.581,0,0,1-.4.729h0a.52.52,0,0,1-.164.023h0A.588.588,0,0,1,30.054,63.206Zm-.818-2.082a.59.59,0,0,1,.253-.794h0a.585.585,0,0,1,.794.247h0a.592.592,0,0,1-.253.794h0a.557.557,0,0,1-.27.065h0A.591.591,0,0,1,29.236,61.124ZM28,59.194a.58.58,0,0,1,.158-.812h0a.584.584,0,0,1,.818.159h0a.594.594,0,0,1-.164.818h0a.6.6,0,0,1-.324.1h0A.577.577,0,0,1,28,59.194ZM73.93,57.153a.59.59,0,0,1,.335-.765h0a.586.586,0,0,1,.759.33h0a.585.585,0,0,1-.329.765h0a.559.559,0,0,1-.218.041h0A.593.593,0,0,1,73.93,57.153Zm-47.2.012a.587.587,0,0,1,.212-.806h0a.592.592,0,0,1,.806.212h0a.593.593,0,0,1-.218.805h0a.583.583,0,0,1-.294.083h0A.583.583,0,0,1,26.73,57.165Zm49.394-.929a.586.586,0,0,1-.094-.83h0a.588.588,0,0,1,.824-.094h0a.589.589,0,0,1,.094.824h0v0h0a.6.6,0,0,1-.459.218h0A.6.6,0,0,1,76.124,56.236ZM25.595,55.053h0a.586.586,0,0,1,.265-.788h0a.592.592,0,0,1,.788.265h0a.586.586,0,0,1-.265.788h0a.581.581,0,0,1-.259.065h0A.591.591,0,0,1,25.595,55.053Zm50.741-1.359a.581.581,0,0,1,.412-.717h0a.583.583,0,0,1,.723.412h0a.593.593,0,0,1-.417.723h0a.629.629,0,0,1-.153.018h0A.584.584,0,0,1,76.336,53.694Zm-51.73-.829a.588.588,0,0,1,.324-.765h0a.583.583,0,0,1,.765.324h0a.586.586,0,0,1-.323.764h0a.563.563,0,0,1-.218.042h0A.587.587,0,0,1,24.606,52.865Zm50.589-.883h0a.582.582,0,0,1,.047-.829h0a.581.581,0,0,1,.829.047h0a.593.593,0,0,1-.047.83h0a.59.59,0,0,1-.394.147h0A.577.577,0,0,1,75.195,51.982ZM23.783,50.606a.581.581,0,0,1,.382-.735h0a.589.589,0,0,1,.742.376h0a.593.593,0,0,1-.383.742h0a.636.636,0,0,1-.182.029h0A.589.589,0,0,1,23.783,50.606Zm49.877-.459h0a.589.589,0,0,1,.094-.829h0a.583.583,0,0,1,.823.1h0a.587.587,0,0,1-.094.823h0a.562.562,0,0,1-.365.13h0A.578.578,0,0,1,73.66,50.147ZM23.148,48.288a.586.586,0,0,1,.441-.7h0a.588.588,0,0,1,.706.441h0a.586.586,0,0,1-.441.705h0a.522.522,0,0,1-.136.012h0A.584.584,0,0,1,23.148,48.288Zm49.058,0h0a.588.588,0,0,1,.1-.823h0a.589.589,0,0,1,.829.094h0a.6.6,0,0,1-.094.83h0a.625.625,0,0,1-.371.123h0A.59.59,0,0,1,72.206,48.288Zm-1.517-1.97a.591.591,0,0,1,.282-.783h0a.591.591,0,0,1,.783.283h0a.585.585,0,0,1-.283.782h0a.543.543,0,0,1-.247.059h0A.594.594,0,0,1,70.689,46.318Zm-47.971-.4a.587.587,0,0,1,.5-.665h0a.589.589,0,0,1,.664.506h0a.589.589,0,0,1-.506.659h0a.388.388,0,0,1-.076.005h0A.58.58,0,0,1,22.718,45.918Zm48.547-1.571a.588.588,0,0,1-.305-.776h0a.594.594,0,0,1,.776-.3h0a.589.589,0,0,1,.3.776h0a.579.579,0,0,1-.535.353h0A.557.557,0,0,1,71.265,44.347Zm-48.758-.835a.591.591,0,0,1,.57-.612h0a.585.585,0,0,1,.606.565h0a.587.587,0,0,1-.564.612h-.024A.588.588,0,0,1,22.507,43.512ZM72.13,42.153a.587.587,0,0,1-.541-.63h0a.585.585,0,0,1,.635-.541h0a.586.586,0,0,1,.541.63h0a.589.589,0,0,1-.588.541H72.13Zm-49.041-.435a.581.581,0,0,1-.541-.624h0v-.005h0a.582.582,0,0,1,.623-.542h0a.582.582,0,0,1,.547.624h0a.589.589,0,0,1-.588.547h-.041ZM71.26,39.412a.589.589,0,0,1,.4-.729h0a.586.586,0,0,1,.724.405h0a.583.583,0,0,1-.4.724h0a.554.554,0,0,1-.165.024h0A.6.6,0,0,1,71.26,39.412Zm-47.941-.041a.581.581,0,0,1-.477-.682h0a.587.587,0,0,1,.682-.471h0A.589.589,0,0,1,24,38.9v-.006a.591.591,0,0,1-.582.488h0A.326.326,0,0,1,23.319,39.371Zm47.217-2.159a.59.59,0,0,1,.341-.759h0a.59.59,0,0,1,.759.347h0a.586.586,0,0,1-.347.753h0a.486.486,0,0,1-.206.041h0A.588.588,0,0,1,70.536,37.212ZM23.8,37.065a.583.583,0,0,1-.394-.729h0a.582.582,0,0,1,.729-.394h0a.587.587,0,0,1,.4.728h0a.6.6,0,0,1-.565.424h0A.6.6,0,0,1,23.8,37.065Zm45.847-1.989h-.006a.592.592,0,0,1,.288-.782h0a.593.593,0,0,1,.783.283h0a.592.592,0,0,1-.288.782h0a.532.532,0,0,1-.248.059h0A.593.593,0,0,1,69.642,35.076ZM24.53,34.829a.594.594,0,0,1-.306-.776h0A.587.587,0,0,1,25,33.747h0a.589.589,0,0,1,.312.771h0a.6.6,0,0,1-.541.358h0A.633.633,0,0,1,24.53,34.829Zm44.053-1.811a.581.581,0,0,1,.218-.8h0a.594.594,0,0,1,.805.223h0a.588.588,0,0,1-.223.8h0a.6.6,0,0,1-.288.076h0A.579.579,0,0,1,68.583,33.018Zm-43.064-.33a.588.588,0,0,1-.218-.8h0a.59.59,0,0,1,.806-.223h0a.6.6,0,0,1,.217.806h0a.6.6,0,0,1-.511.294h0A.59.59,0,0,1,25.519,32.688ZM67.36,31.059v.006a.586.586,0,0,1,.153-.818h0a.587.587,0,0,1,.817.147h0a.591.591,0,0,1-.153.818h0a.576.576,0,0,1-.335.106h0A.571.571,0,0,1,67.36,31.059Zm-40.612-.382a.593.593,0,0,1-.13-.824h0a.585.585,0,0,1,.824-.124h0a.584.584,0,0,1,.129.818h0a.586.586,0,0,1-.476.241h0A.583.583,0,0,1,26.748,30.677Zm39.223-1.453h0a.583.583,0,0,1,.077-.83h0a.594.594,0,0,1,.829.077h0a.593.593,0,0,1-.076.829h0a.617.617,0,0,1-.376.135h0A.584.584,0,0,1,65.971,29.224Zm-37.782-.406a.594.594,0,0,1-.03-.835h0a.592.592,0,0,1,.83-.036h0a.6.6,0,0,1,.036.836h0a.606.606,0,0,1-.436.188h0A.618.618,0,0,1,28.189,28.818Zm36.23-1.289h0a.592.592,0,0,1-.007-.835h0a.587.587,0,0,1,.83,0h0a.586.586,0,0,1,.006.83h0a.577.577,0,0,1-.418.176h0A.585.585,0,0,1,64.419,27.529Zm-34.583-.4a.588.588,0,0,1,.053-.83h0a.583.583,0,0,1,.83.059h0a.582.582,0,0,1-.053.829h0a.607.607,0,0,1-.389.142h0A.577.577,0,0,1,29.836,27.124ZM62.7,26.006h0a.6.6,0,0,1-.094-.83h0a.6.6,0,0,1,.829-.093h0a.6.6,0,0,1,.094.829h0a.6.6,0,0,1-.464.217h0A.6.6,0,0,1,62.7,26.006Zm-31.053-.382a.593.593,0,0,1,.141-.824h0a.594.594,0,0,1,.824.141h0a.593.593,0,0,1-.142.824h0a.614.614,0,0,1-.341.106h0A.606.606,0,0,1,31.648,25.624Zm29.188-.953a.59.59,0,0,1-.182-.812h0a.591.591,0,0,1,.817-.183h0a.589.589,0,0,1,.177.812h0a.58.58,0,0,1-.494.271h0A.625.625,0,0,1,60.836,24.671Zm-27.223-.359a.578.578,0,0,1,.223-.8H33.83a.584.584,0,0,1,.806.224h0a.588.588,0,0,1-.224.8h0a.581.581,0,0,1-.287.077h0A.589.589,0,0,1,33.613,24.312Zm25.229-.765a.592.592,0,0,1-.271-.788h0a.591.591,0,0,1,.788-.27h0a.591.591,0,0,1,.271.788h0a.593.593,0,0,1-.529.329h0A.564.564,0,0,1,58.842,23.547ZM35.689,23.2a.582.582,0,0,1,.3-.771h0a.587.587,0,0,1,.776.294h0a.586.586,0,0,1-.3.777h0a.554.554,0,0,1-.235.053h0A.587.587,0,0,1,35.689,23.2Zm2.176-.906a.588.588,0,0,1,.371-.747h0a.583.583,0,0,1,.741.371h0a.589.589,0,0,1-.364.747v-.006a.551.551,0,0,1-.189.035h0A.587.587,0,0,1,37.865,22.294Zm18.871.353a.6.6,0,0,1-.353-.759h0a.592.592,0,0,1,.759-.347h-.006a.587.587,0,0,1,.353.753h0a.586.586,0,0,1-.553.389h0A.566.566,0,0,1,56.736,22.647ZM40.113,21.588a.588.588,0,0,1,.429-.711h0a.581.581,0,0,1,.712.429h0a.589.589,0,0,1-.43.712h0a.567.567,0,0,1-.141.017h0A.589.589,0,0,1,40.113,21.588Zm14.429.377a.58.58,0,0,1-.424-.712h0a.583.583,0,0,1,.718-.423H54.83a.587.587,0,0,1,.43.711h0a.6.6,0,0,1-.577.441h0A.567.567,0,0,1,54.542,21.965Zm-12.129-.894a.588.588,0,0,1,.488-.677h0a.6.6,0,0,1,.676.488h0a.6.6,0,0,1-.488.677h0a.527.527,0,0,1-.094.006h0A.588.588,0,0,1,42.413,21.071Zm9.876.435h0a.589.589,0,0,1-.488-.671h0a.59.59,0,0,1,.67-.494h0a.6.6,0,0,1,.494.677h0a.592.592,0,0,1-.582.494h0A.522.522,0,0,1,52.289,21.506Zm-7.541-.759a.6.6,0,0,1,.541-.641h0a.591.591,0,0,1,.63.541h0a.588.588,0,0,1-.536.636h-.047A.584.584,0,0,1,44.748,20.747Zm5.253.5a.585.585,0,0,1-.547-.623h0a.588.588,0,0,1,.629-.548h0a.592.592,0,0,1,.547.63h0a.594.594,0,0,1-.588.547h0C50.03,21.253,50.018,21.247,50,21.247Zm-2.9-.652A.594.594,0,0,1,47.683,20h0a.6.6,0,0,1,.594.588h0a.594.594,0,0,1-.582.6h-.006A.59.59,0,0,1,47.1,20.595Z" fill="#ffa500"/>
        </g>
        <g id="Group_2458" data-name="Group 2458">
          <path id="Path_24886" data-name="Path 24886" d="M72.195,58.353a.6.6,0,0,1-.229-.047.518.518,0,0,1-.189-.129.588.588,0,0,1-.129-.189.63.63,0,0,1,0-.447.559.559,0,0,1,.129-.194.454.454,0,0,1,.089-.07.689.689,0,0,1,.1-.059.834.834,0,0,1,.111-.029.586.586,0,0,1,.53.158.5.5,0,0,1,.129.194.63.63,0,0,1,0,.447.518.518,0,0,1-.129.189A.588.588,0,0,1,72.195,58.353Z" fill="#ffa500"/>
        </g>
        <g id="Group_2459" data-name="Group 2459">
          <path id="Path_24887" data-name="Path 24887" d="M59.042,77.665a.585.585,0,0,1-.435-.706h0a.585.585,0,0,1,.705-.436h0a.584.584,0,0,1,.436.706h.006a.6.6,0,0,1-.577.454h0A.612.612,0,0,1,59.042,77.665Zm.582-2.265a.6.6,0,0,1-.365-.753h0a.587.587,0,0,1,.754-.359h0a.589.589,0,0,1,.359.748h0a.588.588,0,0,1-.554.394h0A.732.732,0,0,1,59.624,75.4Zm.859-2.182a.594.594,0,0,1-.153-.818h0a.589.589,0,0,1,.818-.153h0a.588.588,0,0,1,.153.818h0a.589.589,0,0,1-.488.253h0A.575.575,0,0,1,60.483,73.218Zm1.588-1.695a.585.585,0,0,1,.324-.764v-.006a.589.589,0,0,1,.764.329h0a.584.584,0,0,1-.323.765h0a.562.562,0,0,1-.218.041h0A.58.58,0,0,1,62.071,71.523Zm2.241-.652a.581.581,0,0,1,.5-.665h0a.6.6,0,0,1,.67.494h0a.591.591,0,0,1-.5.671h0a.468.468,0,0,1-.083,0h0A.588.588,0,0,1,64.312,70.871Zm2.313-.377a.591.591,0,0,1,.341-.759h0a.594.594,0,0,1,.759.341h0a.583.583,0,0,1-.342.759h0a.5.5,0,0,1-.206.042h0A.587.587,0,0,1,66.625,70.494Zm2.058-1.088a.589.589,0,0,1-.088-.829h0a.593.593,0,0,1,.829-.088h0a.593.593,0,0,1,.083.829h0a.593.593,0,0,1-.459.217h0A.566.566,0,0,1,68.683,69.406Zm1.247-1.965a.588.588,0,0,1-.376-.741h0a.591.591,0,0,1,.741-.376h0a.586.586,0,0,1,.376.741h0a.59.59,0,0,1-.558.406h0A.508.508,0,0,1,69.93,67.441ZM70.6,65.2a.588.588,0,0,1-.418-.723v.005a.581.581,0,0,1,.718-.417h0a.587.587,0,0,1,.418.717h0a.586.586,0,0,1-.571.436h0A.616.616,0,0,1,70.6,65.2Zm.588-2.265a.588.588,0,0,1-.435-.711h0a.581.581,0,0,1,.706-.436h0a.583.583,0,0,1,.435.706h0a.589.589,0,0,1-.571.453h0A.941.941,0,0,1,71.183,62.935Zm.518-2.288a.588.588,0,0,1-.465-.688h0a.6.6,0,0,1,.694-.465h0a.592.592,0,0,1,.465.689h0a.6.6,0,0,1-.576.476h0A.392.392,0,0,1,71.7,60.647Z" fill="#ffa500"/>
        </g>
      </g>
      <g id="Group_2496" data-name="Group 2496">
        <g id="Group_2461" data-name="Group 2461">
          <path id="Path_24888" data-name="Path 24888" d="M49.242,33.435a.587.587,0,0,1-.418-.176.612.612,0,0,1-.17-.412.572.572,0,0,1,.047-.223.609.609,0,0,1,.123-.195.6.6,0,0,1,.83,0,.49.49,0,0,1,.129.195.555.555,0,0,1,0,.447.511.511,0,0,1-.129.188A.564.564,0,0,1,49.242,33.435Z" fill="#ffa500"/>
        </g>
        <g id="Group_2462" data-name="Group 2462">
          <path id="Path_24889" data-name="Path 24889" d="M47.007,32.847a.586.586,0,0,1,.588-.588h0a.59.59,0,0,1,.588.588h0a.589.589,0,0,1-.588.588h0A.586.586,0,0,1,47.007,32.847Z" fill="#ffa500"/>
        </g>
        <g id="Group_2463" data-name="Group 2463">
          <path id="Path_24890" data-name="Path 24890" d="M45.942,33.435a.589.589,0,0,1-.223-.046.627.627,0,0,1-.318-.318.555.555,0,0,1,0-.447.5.5,0,0,1,.129-.195.61.61,0,0,1,.83,0,.662.662,0,0,1,.129.195.63.63,0,0,1,0,.447.6.6,0,0,1-.129.188.607.607,0,0,1-.194.13A.6.6,0,0,1,45.942,33.435Z" fill="#ffa500"/>
        </g>
        <g id="Group_2464" data-name="Group 2464">
          <path id="Path_24891" data-name="Path 24891" d="M42.471,36.882a.586.586,0,0,1-.488-.676h0a.588.588,0,0,1,.677-.482h0a.587.587,0,0,1,.488.67h0a.592.592,0,0,1-.583.494h0A.5.5,0,0,1,42.471,36.882ZM44.583,35.8a.586.586,0,0,1-.129-.824h0a.59.59,0,0,1,.818-.129h0a.587.587,0,0,1,.129.824h0a.58.58,0,0,1-.477.241h0A.562.562,0,0,1,44.583,35.8Z" fill="#ffa500"/>
        </g>
        <g id="Group_2465" data-name="Group 2465">
          <path id="Path_24892" data-name="Path 24892" d="M40.1,35.853a.576.576,0,0,1-.229-.041.627.627,0,0,1-.318-.318.6.6,0,0,1-.047-.229.62.62,0,0,1,.047-.224.6.6,0,0,1,.129-.188.593.593,0,0,1,.959.188.569.569,0,0,1,0,.453.589.589,0,0,1-.129.188A.579.579,0,0,1,40.1,35.853Z" fill="#ffa500"/>
        </g>
        <g id="Group_2466" data-name="Group 2466">
          <path id="Path_24893" data-name="Path 24893" d="M38.507,36.853a.6.6,0,0,1,0-.835h0a.591.591,0,0,1,.835,0h0a.593.593,0,0,1,0,.835h0a.6.6,0,0,1-.417.171h0A.612.612,0,0,1,38.507,36.853Z" fill="#ffa500"/>
        </g>
        <g id="Group_2467" data-name="Group 2467">
          <path id="Path_24894" data-name="Path 24894" d="M37.76,38.188a.582.582,0,0,1-.418-.17.674.674,0,0,1-.124-.188.524.524,0,0,1-.047-.23.59.59,0,0,1,.171-.411.865.865,0,0,1,.088-.077.438.438,0,0,1,.106-.053.4.4,0,0,1,.106-.035.5.5,0,0,1,.23,0,.379.379,0,0,1,.111.035.31.31,0,0,1,.1.053.5.5,0,0,1,.094.077.59.59,0,0,1,.171.411.626.626,0,0,1-.047.23.575.575,0,0,1-.318.317A.569.569,0,0,1,37.76,38.188Z" fill="#ffa500"/>
        </g>
        <g id="Group_2468" data-name="Group 2468">
          <path id="Path_24895" data-name="Path 24895" d="M37.342,42.777a.585.585,0,0,1,.129-.818h0a.593.593,0,0,1,.824.129h0a.593.593,0,0,1-.136.824h0a.566.566,0,0,1-.341.112h0A.588.588,0,0,1,37.342,42.777Zm.871-2.612h0a.591.591,0,0,1,.488-.677h0a.6.6,0,0,1,.676.488h0v.007h0a.593.593,0,0,1-.494.67h0a.434.434,0,0,1-.088.006h0A.587.587,0,0,1,38.213,40.165Z" fill="#ffa500"/>
        </g>
        <g id="Group_2469" data-name="Group 2469">
          <path id="Path_24896" data-name="Path 24896" d="M35.336,44.036a.579.579,0,0,1-.412-.171.591.591,0,0,1-.176-.418.723.723,0,0,1,.012-.112.343.343,0,0,1,.035-.111.5.5,0,0,1,.053-.1.371.371,0,0,1,.076-.089.419.419,0,0,1,.089-.076.528.528,0,0,1,.1-.053.341.341,0,0,1,.112-.035.6.6,0,0,1,.529.164.568.568,0,0,1,.17.412.582.582,0,0,1-.17.418.6.6,0,0,1-.188.129A.648.648,0,0,1,35.336,44.036Z" fill="#ffa500"/>
        </g>
        <g id="Group_2470" data-name="Group 2470">
          <path id="Path_24897" data-name="Path 24897" d="M34.748,45.1a.59.59,0,0,1,.588-.588h0a.586.586,0,0,1,.588.588h0a.585.585,0,0,1-.588.588h0A.59.59,0,0,1,34.748,45.1Z" fill="#ffa500"/>
        </g>
        <g id="Group_2471" data-name="Group 2471">
          <path id="Path_24898" data-name="Path 24898" d="M35.336,47.336a.567.567,0,0,1-.223-.042.514.514,0,0,1-.189-.129.588.588,0,0,1-.176-.412.656.656,0,0,1,.047-.23.511.511,0,0,1,.129-.187.619.619,0,0,1,.189-.13.664.664,0,0,1,.341-.035l.1.035c.042.018.071.035.107.053s.058.047.088.077a.6.6,0,0,1,.129.187.625.625,0,0,1,.041.23.571.571,0,0,1-.041.224.612.612,0,0,1-.129.188A.583.583,0,0,1,35.336,47.336Z" fill="#ffa500"/>
        </g>
        <g id="Group_2472" data-name="Group 2472">
          <path id="Path_24899" data-name="Path 24899" d="M38.7,50.712a.59.59,0,0,1-.488-.676h0a.592.592,0,0,1,.676-.489h0a.583.583,0,0,1,.483.671h0a.594.594,0,0,1-.588.5h0C38.76,50.718,38.73,50.712,38.7,50.712Zm-1.23-2.47a.586.586,0,0,1-.135-.818h0a.591.591,0,0,1,.823-.135h0a.592.592,0,0,1,.136.823h0a.6.6,0,0,1-.483.241h0A.582.582,0,0,1,37.471,48.242Z" fill="#ffa500"/>
        </g>
        <g id="Group_2473" data-name="Group 2473">
          <path id="Path_24900" data-name="Path 24900" d="M37.76,53.188a.611.611,0,0,1-.418-.176.591.591,0,0,1-.124-.189.5.5,0,0,1-.047-.223.608.608,0,0,1,.171-.418.621.621,0,0,1,.194-.129.587.587,0,0,1,.447,0,.671.671,0,0,1,.194.129.6.6,0,0,1,.171.418.612.612,0,0,1-.171.412A.583.583,0,0,1,37.76,53.188Z" fill="#ffa500"/>
        </g>
        <g id="Group_2474" data-name="Group 2474">
          <path id="Path_24901" data-name="Path 24901" d="M38.513,54.183a.593.593,0,0,1,0-.836h0a.586.586,0,0,1,.829,0h0a.6.6,0,0,1,0,.836h0a.606.606,0,0,1-.417.17h0A.591.591,0,0,1,38.513,54.183Z" fill="#ffa500"/>
        </g>
        <g id="Group_2475" data-name="Group 2475">
          <path id="Path_24902" data-name="Path 24902" d="M40.1,55.524a.6.6,0,0,1-.594-.595.7.7,0,0,1,.012-.111c.011-.041.023-.077.035-.112a.609.609,0,0,1,.058-.1.278.278,0,0,1,.071-.088.6.6,0,0,1,.53-.165.947.947,0,0,1,.111.035.6.6,0,0,1,.1.053.585.585,0,0,1,.088.077.412.412,0,0,1,.076.088c.018.029.036.065.053.1s.023.071.035.112a.7.7,0,0,1,.012.111.586.586,0,0,1-.176.418.607.607,0,0,1-.189.13A.59.59,0,0,1,40.1,55.524Z" fill="#ffa500"/>
        </g>
        <g id="Group_2476" data-name="Group 2476">
          <path id="Path_24903" data-name="Path 24903" d="M41.365,54.283a.592.592,0,0,1,.347-.759h0a.583.583,0,0,1,.753.347h0a.586.586,0,0,1-.346.758h.005a.642.642,0,0,1-.205.036h0A.591.591,0,0,1,41.365,54.283Z" fill="#ffa500"/>
        </g>
        <g id="Group_2477" data-name="Group 2477">
          <path id="Path_24904" data-name="Path 24904" d="M43.879,54.658a.589.589,0,1,1,.588-.591v0A.588.588,0,0,1,43.879,54.658Z" fill="#ffa500"/>
        </g>
        <g id="Group_2478" data-name="Group 2478">
          <path id="Path_24905" data-name="Path 24905" d="M43.877,54.659a.581.581,0,0,1-.411-.177.5.5,0,0,1-.13-.188.572.572,0,0,1-.047-.223.787.787,0,0,1,.012-.118c.012-.035.023-.07.035-.112s.035-.065.053-.1.047-.058.077-.088a.573.573,0,0,1,.188-.129.558.558,0,0,1,.341-.03.737.737,0,0,1,.106.03.925.925,0,0,1,.106.058.532.532,0,0,1,.159.159.859.859,0,0,1,.058.1,1.121,1.121,0,0,1,.03.112.4.4,0,0,1,.012.118.567.567,0,0,1-.042.223.573.573,0,0,1-.129.188A.588.588,0,0,1,43.877,54.659Z" fill="#ffa500"/>
        </g>
        <g id="Group_2479" data-name="Group 2479">
          <path id="Path_24906" data-name="Path 24906" d="M44.724,55.706a.586.586,0,0,1,.289-.777h0a.591.591,0,0,1,.782.289h0a.592.592,0,0,1-.288.782h0a.614.614,0,0,1-.247.053h0A.59.59,0,0,1,44.724,55.706Z" fill="#ffa500"/>
        </g>
        <g id="Group_2480" data-name="Group 2480">
          <path id="Path_24907" data-name="Path 24907" d="M45.942,57.947a.572.572,0,0,1-.223-.047.506.506,0,0,1-.189-.129.523.523,0,0,1-.129-.188.575.575,0,0,1,.129-.642.371.371,0,0,1,.089-.076c.029-.018.064-.035.1-.053s.07-.024.111-.035a.739.739,0,0,1,.23,0l.106.035.1.053a1,1,0,0,1,.089.076.612.612,0,0,1,.17.418.546.546,0,0,1-.17.412.532.532,0,0,1-.194.129A.58.58,0,0,1,45.942,57.947Z" fill="#ffa500"/>
        </g>
        <g id="Group_2481" data-name="Group 2481">
          <path id="Path_24908" data-name="Path 24908" d="M47.007,57.353a.586.586,0,0,1,.588-.588h0a.59.59,0,0,1,.588.588h0a.59.59,0,0,1-.588.594h0A.587.587,0,0,1,47.007,57.353Z" fill="#ffa500"/>
        </g>
        <g id="Group_2482" data-name="Group 2482">
          <path id="Path_24909" data-name="Path 24909" d="M49.242,57.947a.587.587,0,0,1-.418-.176.713.713,0,0,1-.129-.188.7.7,0,0,1-.041-.224.747.747,0,0,1,.041-.23.713.713,0,0,1,.129-.188,1,1,0,0,1,.089-.076l.105-.053.107-.035a.56.56,0,0,1,.341.035.588.588,0,0,1,.194.129.578.578,0,0,1,.123.188.61.61,0,0,1,.047.23.612.612,0,0,1-.17.412A.587.587,0,0,1,49.242,57.947Z" fill="#ffa500"/>
        </g>
        <g id="Group_2483" data-name="Group 2483">
          <path id="Path_24910" data-name="Path 24910" d="M49.913,55.353a.59.59,0,0,1-.13-.823h0v.005h0a.594.594,0,0,1,.824-.135h0a.586.586,0,0,1,.129.823h0a.578.578,0,0,1-.476.242h0A.588.588,0,0,1,49.913,55.353Zm2.611-.876a.6.6,0,0,1-.488-.677h0a.6.6,0,0,1,.677-.488h0a.587.587,0,0,1,.488.676h0a.585.585,0,0,1-.576.494h0A.684.684,0,0,1,52.524,54.477Z" fill="#ffa500"/>
        </g>
        <g id="Group_2484" data-name="Group 2484">
          <path id="Path_24911" data-name="Path 24911" d="M55.089,55.524a.592.592,0,0,1-.582-.595.689.689,0,0,1,.006-.111c.011-.041.023-.077.035-.112s.035-.071.053-.1a.386.386,0,0,1,.076-.088.375.375,0,0,1,.089-.077.556.556,0,0,1,.1-.053.906.906,0,0,1,.112-.035.668.668,0,0,1,.34.035.521.521,0,0,1,.189.13.567.567,0,0,1,.17.411.581.581,0,0,1-.041.23.5.5,0,0,1-.129.188A.588.588,0,0,1,55.089,55.524Z" fill="#ffa500"/>
        </g>
        <g id="Group_2485" data-name="Group 2485">
          <path id="Path_24912" data-name="Path 24912" d="M55.842,54.183a.593.593,0,0,1,0-.836h0a.593.593,0,0,1,.835,0h0a.593.593,0,0,1,0,.836h0a.613.613,0,0,1-.417.17h0A.607.607,0,0,1,55.842,54.183Z" fill="#ffa500"/>
        </g>
        <g id="Group_2486" data-name="Group 2486">
          <path id="Path_24913" data-name="Path 24913" d="M57.424,53.188a.572.572,0,0,1-.223-.047.5.5,0,0,1-.188-.129.509.509,0,0,1-.13-.189.59.59,0,0,1-.047-.223.6.6,0,0,1,.177-.418.584.584,0,0,1,.188-.129.606.606,0,0,1,.341-.029.792.792,0,0,1,.106.029l.106.053a1.16,1.16,0,0,1,.088.076.6.6,0,0,1,.17.418.584.584,0,0,1-.04.223.607.607,0,0,1-.13.189.48.48,0,0,1-.194.129A.551.551,0,0,1,57.424,53.188Z" fill="#ffa500"/>
        </g>
        <g id="Group_2487" data-name="Group 2487">
          <path id="Path_24914" data-name="Path 24914" d="M55.813,50.223a.586.586,0,0,1,.482-.676h0a.587.587,0,0,1,.676.489h0a.587.587,0,0,1-.488.676h0a.5.5,0,0,1-.094.006h0A.582.582,0,0,1,55.813,50.223Zm1.076-2.111a.6.6,0,0,1,.13-.823h0a.59.59,0,0,1,.823.135h0a.587.587,0,0,1-.129.823h0a.616.616,0,0,1-.347.106h0A.588.588,0,0,1,56.889,48.112Z" fill="#ffa500"/>
        </g>
        <g id="Group_2488" data-name="Group 2488">
          <path id="Path_24915" data-name="Path 24915" d="M59.848,47.336a.572.572,0,0,1-.224-.042.532.532,0,0,1-.194-.129.583.583,0,0,1-.171-.412.546.546,0,0,1,.048-.23.563.563,0,0,1,.123-.187.89.89,0,0,1,.089-.077l.1-.053.106-.035a.665.665,0,0,1,.341.035.7.7,0,0,1,.194.13.566.566,0,0,1,.124.187.634.634,0,0,1,.047.23.584.584,0,0,1-.588.583Z" fill="#ffa500"/>
        </g>
        <g id="Group_2489" data-name="Group 2489">
          <path id="Path_24916" data-name="Path 24916" d="M59.259,45.1a.59.59,0,0,1,.589-.588h0a.59.59,0,0,1,.588.588h0a.59.59,0,0,1-.588.588h0A.59.59,0,0,1,59.259,45.1Z" fill="#ffa500"/>
        </g>
        <g id="Group_2490" data-name="Group 2490">
          <path id="Path_24917" data-name="Path 24917" d="M59.848,44.036a.59.59,0,0,1-.224-.042.621.621,0,0,1-.194-.129.587.587,0,0,1-.171-.418.594.594,0,0,1,.171-.412,1.026,1.026,0,0,1,.089-.076.862.862,0,0,1,.1-.053.377.377,0,0,1,.106-.035.772.772,0,0,1,.235,0,.357.357,0,0,1,.106.035.5.5,0,0,1,.1.053.4.4,0,0,1,.089.076.574.574,0,0,1,.176.412.582.582,0,0,1-.588.589Z" fill="#ffa500"/>
        </g>
        <g id="Group_2491" data-name="Group 2491">
          <path id="Path_24918" data-name="Path 24918" d="M57.024,42.912a.592.592,0,0,1-.135-.824h0a.593.593,0,0,1,.824-.129h0a.586.586,0,0,1,.129.824h0a.582.582,0,0,1-.476.241h0A.582.582,0,0,1,57.024,42.912Zm-.729-2.259a.594.594,0,0,1-.489-.67h.007a.578.578,0,0,1,.67-.489h0a.587.587,0,0,1,.488.671h0a.588.588,0,0,1-.582.494h0A.527.527,0,0,1,56.295,40.653Z" fill="#ffa500"/>
        </g>
        <g id="Group_2492" data-name="Group 2492">
          <path id="Path_24919" data-name="Path 24919" d="M57.424,38.188a.566.566,0,0,1-.223-.041.684.684,0,0,1-.194-.129.653.653,0,0,1-.124-.188.626.626,0,0,1-.047-.23.59.59,0,0,1,.171-.411.536.536,0,0,1,.094-.077.321.321,0,0,1,.1-.053.367.367,0,0,1,.112-.035.545.545,0,0,1,.335.035.472.472,0,0,1,.194.13.564.564,0,0,1,.17.411.619.619,0,0,1-.04.23.613.613,0,0,1-.324.317A.568.568,0,0,1,57.424,38.188Z" fill="#ffa500"/>
        </g>
        <g id="Group_2493" data-name="Group 2493">
          <path id="Path_24920" data-name="Path 24920" d="M55.842,36.853a.591.591,0,0,1,0-.835h0a.591.591,0,0,1,.835,0h0a.584.584,0,0,1,0,.829h0a.59.59,0,0,1-.417.177h0A.6.6,0,0,1,55.842,36.853Z" fill="#ffa500"/>
        </g>
        <g id="Group_2494" data-name="Group 2494">
          <path id="Path_24921" data-name="Path 24921" d="M55.089,35.853a.579.579,0,0,1-.412-.171.573.573,0,0,1-.129-.188.578.578,0,0,1,.129-.641.593.593,0,0,1,.959.188.6.6,0,0,1,.047.224.579.579,0,0,1-.047.229.5.5,0,0,1-.129.188.509.509,0,0,1-.189.13A.576.576,0,0,1,55.089,35.853Z" fill="#ffa500"/>
        </g>
        <g id="Group_2495" data-name="Group 2495">
          <path id="Path_24922" data-name="Path 24922" d="M52.042,36.394a.587.587,0,0,1,.488-.676h0a.587.587,0,0,1,.671.494h0a.584.584,0,0,1-.488.67h0a.439.439,0,0,1-.088.006h0A.583.583,0,0,1,52.042,36.394Zm-2.259-.723a.6.6,0,0,1,.13-.824h0a.591.591,0,0,1,.823.136h0a.589.589,0,0,1-.129.817h0a.592.592,0,0,1-.347.112h0A.589.589,0,0,1,49.783,35.671Z" fill="#ffa500"/>
        </g>
      </g>
      <g id="Group_2497" data-name="Group 2497">
        <path id="Path_24923" data-name="Path 24923" d="M47.613,49.777H47.6a.587.587,0,0,1-.588-.589h0A.583.583,0,0,1,47.6,48.6h.035a.587.587,0,0,1,.6.583h0a.594.594,0,0,1-.582.594h-.035Zm-2.542-.741h0a.58.58,0,0,1-.176-.812h0a.582.582,0,0,1,.812-.177h0a.593.593,0,0,1,.176.812h0a.588.588,0,0,1-.494.271h0A.564.564,0,0,1,45.071,49.036Zm4.277-.2a.58.58,0,0,1,.165-.812h0a.589.589,0,0,1,.817.171h0a.587.587,0,0,1-.17.811h0a.6.6,0,0,1-.324.1h0A.578.578,0,0,1,49.348,48.836Zm-6.006-1.783h0a.59.59,0,0,1,.288-.782h0a.59.59,0,0,1,.782.288h0a.592.592,0,0,1-.287.782h0a.632.632,0,0,1-.248.053h0A.594.594,0,0,1,43.342,47.053Zm7.741.247a.586.586,0,0,1-.294-.777h0a.584.584,0,0,1,.776-.294h0a.584.584,0,0,1,.294.777h0a.582.582,0,0,1-.535.347h0A.587.587,0,0,1,51.083,47.3Zm-7.617-2.188a.581.581,0,0,1-.5-.659h0a.583.583,0,0,1,.665-.5h0a.584.584,0,0,1,.5.659h0a.588.588,0,0,1-.582.506h0A.347.347,0,0,1,43.466,45.112Zm7.582-.541h0a.6.6,0,0,1,.494-.671h0a.592.592,0,0,1,.671.5h0a.585.585,0,0,1-.494.665h0a.444.444,0,0,1-.089.006h0A.592.592,0,0,1,51.048,44.571Zm-6.936-1.688a.588.588,0,0,1-.064-.83h0v.006h0a.588.588,0,0,1,.829-.065h0a.592.592,0,0,1,.065.829h0a.585.585,0,0,1-.447.2h0A.584.584,0,0,1,44.112,42.883Zm6.106-.089v-.006a.587.587,0,0,1,.054-.829h0a.586.586,0,0,1,.829.059h0v-.006h0a.589.589,0,0,1-.053.835h0a.6.6,0,0,1-.389.147h0A.594.594,0,0,1,50.218,42.794Zm-4.364-1.441a.591.591,0,0,1,.4-.729h0a.584.584,0,0,1,.729.394h0a.583.583,0,0,1-.394.729h0a.539.539,0,0,1-.171.03h0A.589.589,0,0,1,45.854,41.353Zm2.706.388a.59.59,0,0,1-.406-.729h0a.588.588,0,0,1,.729-.406h0a.594.594,0,0,1,.4.73h0a.585.585,0,0,1-.565.423h0A.716.716,0,0,1,48.56,41.741Z" fill="#ffa500"/>
      </g>
    </g>
  </g>
</svg>