<svg xmlns="http://www.w3.org/2000/svg" version="1.0" width="88.000000pt" height="86.000000pt" viewBox="0 0 88.000000 86.000000" preserveAspectRatio="xMidYMid meet">

<g transform="translate(0.000000,86.000000) scale(0.100000,-0.100000)" fill="#ffa500" stroke="none">
<path d="M513 688 c-27 -13 -29 -26 -6 -57 15 -22 17 -23 29 -6 12 15 16 13 58 -28 52 -52 71 -108 61 -175 -5 -34 -4 -43 7 -40 17 6 23 102 8 151 -13 43 -90 127 -116 127 -13 0 -14 3 -5 13 6 8 8 17 4 20 -8 9 -13 8 -40 -5z" fill="#ffa500"/>
<path d="M355 658 c-22 -11 -48 -28 -59 -37 -33 -29 -66 -107 -66 -157 0 -37 -3 -45 -15 -40 -28 10 -16 -23 14 -38 27 -14 29 -14 40 10 15 34 14 47 -4 40 -18 -7 -19 9 -4 68 14 57 58 108 114 135 25 12 43 26 40 31 -8 13 -14 12 -60 -12z" fill="#ffa500"/>
<path d="M423 570 c-6 -22 -14 -25 -29 -10 -7 7 -18 2 -34 -15 -18 -19 -20 -27 -11 -38 9 -12 7 -16 -9 -20 -29 -8 -28 -63 2 -70 18 -5 19 -8 8 -22 -19 -22 15 -58 47 -50 16 4 23 1 23 -10 0 -11 10 -15 35 -15 25 0 35 4 35 15 0 11 7 14 23 10 32 -8 66 28 47 50 -11 14 -10 17 8 22 30 7 31 62 2 70 -16 4 -18 8 -9 20 9 11 7 19 -11 38 -16 17 -27 22 -34 15 -15 -15 -23 -12 -29 10 -3 14 -14 20 -32 20 -18 0 -29 -6 -32 -20z m89 -47 c15 4 18 1 13 -13 -4 -12 2 -27 14 -39 21 -21 21 -21 2 -40 -12 -12 -17 -28 -14 -39 4 -16 1 -19 -20 -15 -19 4 -28 -1 -37 -17 l-12 -22 -15 22 c-11 15 -23 20 -40 17 -18 -3 -23 0 -22 12 3 35 -2 51 -16 51 -20 0 -19 6 6 31 13 13 18 27 14 40 -6 18 -4 20 14 14 13 -4 26 0 38 13 18 18 18 18 37 -1 11 -11 26 -17 38 -14z" fill="#ffa500"/>
<path d="M414 475 c-15 -23 -15 -27 0 -51 23 -33 64 -30 85 8 14 24 14 28 -3 47 -26 29 -62 27 -82 -4z m61 -21 c0 -10 -8 -20 -18 -22 -22 -4 -35 27 -16 39 20 12 34 5 34 -17z" fill="#ffa500"/>
<path d="M285 311 c-6 -11 48 -55 88 -70 47 -18 138 -13 182 9 23 12 41 16 43 10 2 -5 10 -10 18 -10 9 0 14 11 14 35 0 33 -2 35 -36 35 -30 0 -34 -3 -30 -18 5 -13 -1 -22 -19 -30 -70 -32 -159 -22 -213 23 -33 28 -38 29 -47 16z" fill="#ffa500"/>
</g>
</svg>