<svg xmlns="http://www.w3.org/2000/svg" version="1.0" width="600.000000pt" height="600.000000pt" viewBox="0 0 600.000000 600.000000" preserveAspectRatio="xMidYMid meet">

<g transform="translate(0.000000,600.000000) scale(0.100000,-0.100000)" fill="#ffa500" stroke="none">
<path d="M2434 4567 c-44 -40 -53 -80 -54 -228 l0 -106 -82 -28 c-46 -15 -118 -45 -161 -67 -53 -26 -82 -36 -90 -29 -7 5 -49 46 -94 90 -84 83 -113 101 -164 101 -49 0 -77 -21 -230 -177 -202 -204 -204 -219 -51 -375 l95 -98 -45 -97 c-25 -54 -55 -128 -67 -165 l-22 -66 -137 -4 c-153 -3 -176 -11 -212 -71 -18 -29 -20 -51 -20 -247 0 -196 2 -218 20 -247 36 -60 59 -68 212 -71 l137 -4 22 -66 c12 -37 42 -111 67 -165 l45 -97 -95 -98 c-153 -156 -151 -171 51 -375 153 -156 181 -177 230 -177 52 0 80 18 172 108 50 48 92 88 93 90 2 2 39 -14 82 -36 44 -22 116 -52 162 -67 l82 -28 0 -106 c1 -148 10 -188 54 -228 l36 -33 226 0 c255 0 270 4 305 72 16 31 19 59 19 166 l0 129 73 24 c56 19 73 29 75 45 6 44 -20 47 -120 16 l-93 -29 -5 -155 c-7 -214 13 -198 -250 -198 -188 0 -208 2 -223 18 -14 16 -17 43 -17 169 0 109 -3 153 -12 160 -7 6 -53 22 -101 37 -49 15 -137 52 -195 82 -59 30 -109 54 -111 54 -2 0 -54 -50 -116 -110 -78 -76 -120 -110 -136 -110 -17 0 -66 42 -172 149 -139 139 -149 151 -143 178 4 17 49 70 114 136 l107 107 -46 88 c-48 90 -91 196 -109 270 -6 24 -17 45 -25 48 -8 3 -80 6 -160 7 -197 3 -185 -14 -185 247 0 259 -10 244 172 247 73 1 143 2 156 2 25 1 29 9 61 116 12 39 47 121 78 183 l56 113 -106 107 c-64 65 -109 118 -113 135 -6 27 4 39 143 178 106 107 155 149 172 149 16 0 58 -34 136 -110 62 -60 114 -110 116 -110 2 0 52 24 111 54 58 30 146 67 195 82 48 15 94 31 101 37 9 7 12 52 12 162 0 134 2 154 18 168 16 15 47 17 224 17 261 0 241 15 248 -198 l5 -155 85 -27 c47 -14 111 -37 142 -49 64 -27 88 -23 88 14 0 29 -31 46 -172 92 l-78 26 0 130 c0 147 -11 184 -65 217 -30 18 -49 20 -259 20 l-226 0 -36 -33z" fill="#ffa500"/>
<path d="M3592 4578 c-9 -9 -12 -62 -12 -189 0 -186 5 -205 47 -197 17 3 18 19 18 198 0 188 -1 195 -20 198 -11 1 -26 -3 -33 -10z" fill="#ffa500"/>
<path d="M4211 4242 c-54 -95 -89 -166 -85 -175 10 -28 38 -30 59 -5 37 43 177 297 173 315 -2 11 -14 19 -29 21 -24 3 -33 -10 -118 -156z" fill="#ffa500"/>
<path d="M3445 3993 c-454 -97 -756 -530 -685 -983 21 -130 76 -264 155 -375 42 -59 122 -139 223 -223 89 -74 96 -97 100 -307 2 -104 8 -185 14 -192 15 -18 718 -19 736 -1 8 8 12 64 12 188 0 169 1 178 26 227 19 39 46 68 112 121 234 184 349 419 345 707 -1 147 -24 242 -88 372 -123 250 -364 429 -635 472 -90 15 -232 12 -315 -6z m317 -67 c161 -32 283 -94 400 -204 363 -342 331 -914 -68 -1217 -114 -87 -151 -148 -169 -277 l-6 -48 -148 0 c-159 0 -180 -6 -166 -50 6 -19 14 -20 159 -20 84 0 155 -2 157 -4 2 -2 2 -34 1 -70 l-4 -66 -304 0 -304 0 0 70 0 70 75 0 c61 0 77 3 82 16 13 34 -11 49 -84 52 l-70 3 -5 62 c-9 111 -45 163 -198 290 -211 174 -320 451 -281 717 66 450 495 761 933 676z" fill="#ffa500"/>
<path d="M3652 3741 c-8 -4 -12 -19 -10 -32 3 -20 13 -26 80 -41 43 -10 105 -32 140 -49 66 -33 159 -115 203 -180 30 -43 58 -50 75 -19 9 18 4 31 -34 84 -78 109 -214 199 -348 231 -73 17 -88 18 -106 6z" fill="#ffa500"/>
<path d="M4167 3247 c-23 -18 -19 -215 5 -230 28 -18 46 8 53 78 13 114 -15 185 -58 152z" fill="#ffa500"/>
<path d="M2565 3940 c-136 -21 -290 -82 -406 -161 -66 -45 -179 -149 -179 -166 0 -13 27 -43 38 -43 4 0 34 25 67 56 177 165 379 246 610 247 61 0 136 -5 169 -12 50 -11 60 -11 73 2 28 27 7 54 -50 67 -72 15 -250 21 -322 10z" fill="#ffa500"/>
<path d="M4819 3876 c-68 -36 -261 -150 -281 -166 -19 -15 -21 -22 -12 -37 6 -10 18 -19 26 -21 8 -2 84 37 169 86 112 65 155 95 157 110 4 29 -27 45 -59 28z" fill="#ffa500"/>
<path d="M2545 3735 c-278 -62 -497 -270 -571 -545 -25 -91 -25 -291 0 -380 70 -254 263 -453 516 -532 64 -20 95 -23 215 -22 124 0 149 3 221 27 80 27 99 42 88 71 -9 24 -30 26 -81 7 -172 -65 -384 -49 -558 42 -75 40 -220 182 -263 257 -17 30 -43 91 -58 135 -24 70 -27 95 -28 205 0 111 3 134 28 205 40 118 80 180 170 271 134 134 265 191 458 201 117 6 138 16 118 52 -10 19 -20 21 -103 20 -51 0 -119 -7 -152 -14z" fill="#ffa500"/>
<path d="M1858 3438 c-36 -56 -87 -213 -102 -314 -6 -46 9 -68 41 -62 19 3 20 6 52 141 11 49 32 114 47 146 14 32 24 69 22 82 -4 33 -41 37 -60 7z" fill="#ffa500"/>
<path d="M4682 3171 c-8 -4 -12 -19 -10 -32 l3 -24 189 0 c165 0 190 2 199 17 8 12 7 21 -2 32 -11 14 -41 16 -190 16 -97 0 -182 -4 -189 -9z" fill="#ffa500"/>
<path d="M1767 2903 c-18 -17 3 -130 44 -241 83 -227 267 -423 495 -528 118 -55 211 -76 359 -81 153 -6 272 14 397 66 75 32 93 47 82 75 -10 26 -30 25 -115 -9 -241 -96 -517 -83 -737 36 -233 125 -404 349 -452 594 -17 91 -19 95 -44 95 -12 0 -26 -3 -29 -7z" fill="#ffa500"/>
<path d="M4530 2625 c-6 -8 -10 -21 -8 -31 4 -19 305 -196 327 -192 23 5 37 34 23 51 -14 17 -306 187 -320 187 -5 0 -15 -7 -22 -15z" fill="#ffa500"/>
<path d="M3252 1748 c-17 -17 -15 -94 3 -155 19 -64 80 -134 147 -167 49 -25 60 -26 208 -26 178 0 223 10 288 66 23 19 52 58 66 87 30 62 43 155 26 186 -10 20 -17 22 -118 19 l-107 -3 0 -30 0 -30 79 -3 79 -3 -6 -46 c-6 -59 -50 -120 -106 -150 -40 -21 -56 -23 -190 -23 -165 0 -205 12 -255 71 -31 36 -41 59 -51 113 l-7 35 152 3 c130 3 154 6 163 20 8 12 7 21 -2 32 -11 13 -41 16 -185 16 -120 0 -176 -4 -184 -12z" fill="#ffa500"/>
</g>
</svg>