<svg xmlns="http://www.w3.org/2000/svg" version="1.0" width="88.000000pt" height="86.000000pt" viewBox="0 0 88.000000 86.000000" preserveAspectRatio="xMidYMid meet">

<g transform="translate(0.000000,86.000000) scale(0.100000,-0.100000)" fill="#ffa500" stroke="none">
<path d="M390 775 l0 -45 50 0 50 0 0 45 0 45 -50 0 -50 0 0 -45z m70 0 c0 -18 -5 -25 -20 -25 -15 0 -20 7 -20 25 0 18 5 25 20 25 15 0 20 -7 20 -25z" fill="#ffa500"/>
<path d="M270 744 c-78 -44 -138 -114 -169 -196 -19 -52 13 -31 38 23 30 66 92 127 159 158 28 14 52 28 52 33 0 15 -35 8 -80 -18z" fill="#ffa500"/>
<path d="M530 761 c0 -4 21 -16 46 -26 60 -23 146 -109 169 -169 10 -25 24 -46 31 -46 30 0 -36 119 -95 173 -61 55 -151 96 -151 68z" fill="#ffa500"/>
<path d="M430 665 c0 -8 5 -15 10 -15 6 0 10 7 10 15 0 8 -4 15 -10 15 -5 0 -10 -7 -10 -15z" fill="#ffa500"/>
<path d="M246 621 c-4 -5 -2 -12 3 -15 5 -4 12 -2 15 3 4 5 2 12 -3 15 -5 4 -12 2 -15 -3z" fill="#ffa500"/>
<path d="M430 615 c0 -8 5 -15 10 -15 6 0 10 7 10 15 0 8 -4 15 -10 15 -5 0 -10 -7 -10 -15z" fill="#ffa500"/>
<path d="M616 621 c-4 -5 -2 -12 3 -15 5 -4 12 -2 15 3 4 5 2 12 -3 15 -5 4 -12 2 -15 -3z" fill="#ffa500"/>
<path d="M407 558 c-32 -11 -42 -42 -33 -99 6 -37 4 -41 -29 -61 -32 -18 -36 -25 -33 -57 l3 -36 78 -8 c42 -4 99 -4 125 0 45 8 47 10 50 44 3 32 -1 39 -32 57 -34 20 -35 21 -29 74 4 44 2 56 -13 69 -27 23 -55 29 -87 17z m71 -30 c29 -29 1 -108 -38 -108 -39 0 -67 79 -38 108 7 7 24 12 38 12 14 0 31 -5 38 -12z m35 -145 c28 -12 37 -22 37 -40 0 -23 -1 -23 -110 -23 -104 0 -110 1 -110 20 0 50 106 75 183 43z" fill="#ffa500"/>
<path d="M68 469 c-28 -16 -23 -67 7 -81 21 -9 28 -8 45 7 25 23 26 47 2 68 -21 19 -30 20 -54 6z m47 -39 c0 -8 -10 -16 -22 -18 -18 -3 -23 2 -23 18 0 16 5 21 23 18 12 -2 22 -10 22 -18z" fill="#ffa500"/>
<path d="M744 465 c11 -25 11 -45 0 -70 -8 -20 -8 -20 20 -2 26 18 29 18 47 1 15 -14 19 -14 19 -3 0 8 -5 20 -12 27 -9 9 -9 15 0 24 7 7 12 19 12 27 0 11 -4 11 -19 -3 -18 -17 -21 -17 -47 1 -28 18 -28 18 -20 -2z" fill="#ffa500"/>
<path d="M190 430 c0 -5 7 -10 15 -10 8 0 15 5 15 10 0 6 -7 10 -15 10 -8 0 -15 -4 -15 -10z" fill="#ffa500"/>
<path d="M240 430 c0 -5 7 -10 15 -10 8 0 15 5 15 10 0 6 -7 10 -15 10 -8 0 -15 -4 -15 -10z" fill="#ffa500"/>
<path d="M610 430 c0 -5 7 -10 15 -10 8 0 15 5 15 10 0 6 -7 10 -15 10 -8 0 -15 -4 -15 -10z" fill="#ffa500"/>
<path d="M660 430 c0 -5 7 -10 15 -10 8 0 15 5 15 10 0 6 -7 10 -15 10 -8 0 -15 -4 -15 -10z" fill="#ffa500"/>
<path d="M100 325 c0 -26 38 -93 77 -136 53 -59 173 -125 173 -96 0 8 -24 24 -52 37 -66 30 -141 105 -163 165 -17 44 -35 60 -35 30z" fill="#ffa500"/>
<path d="M745 295 c-22 -58 -100 -137 -164 -167 -51 -23 -65 -38 -36 -38 26 0 93 38 136 77 59 54 125 173 95 173 -7 0 -21 -20 -31 -45z" fill="#ffa500"/>
<path d="M246 251 c-4 -5 -2 -12 3 -15 5 -4 12 -2 15 3 4 5 2 12 -3 15 -5 4 -12 2 -15 -3z" fill="#ffa500"/>
<path d="M430 245 c0 -8 5 -15 10 -15 6 0 10 7 10 15 0 8 -4 15 -10 15 -5 0 -10 -7 -10 -15z" fill="#ffa500"/>
<path d="M616 251 c-4 -5 -2 -12 3 -15 5 -4 12 -2 15 3 4 5 2 12 -3 15 -5 4 -12 2 -15 -3z" fill="#ffa500"/>
<path d="M430 195 c0 -8 5 -15 10 -15 6 0 10 7 10 15 0 8 -4 15 -10 15 -5 0 -10 -7 -10 -15z" fill="#ffa500"/>
<path d="M406 89 c-15 -22 -25 -44 -21 -47 7 -8 103 -8 110 0 7 7 -44 88 -55 88 -4 0 -20 -18 -34 -41z m52 -17 c2 -7 -6 -12 -17 -12 -21 0 -27 11 -14 24 9 9 26 2 31 -12z" fill="#ffa500"/>
</g>
</svg>