<svg xmlns="http://www.w3.org/2000/svg" version="1.0" width="88.000000pt" height="86.000000pt" viewBox="0 0 88.000000 86.000000" preserveAspectRatio="xMidYMid meet">

<g transform="translate(0.000000,86.000000) scale(0.100000,-0.100000)" fill="#ffa500" stroke="none">
<path d="M67 842 c-15 -16 -17 -53 -17 -313 0 -221 3 -299 12 -312 8 -10 31 -17 58 -19 l45 -3 5 -55 5 -55 118 -3 c93 -2 118 0 115 10 -3 9 -30 14 -84 16 -120 3 -126 6 -122 50 l3 37 103 3 c78 2 102 6 102 16 0 22 -24 26 -176 26 l-144 0 0 165 0 165 255 0 255 0 0 -37 c0 -63 12 -113 26 -113 10 0 14 31 16 138 l3 137 35 0 35 0 3 -138 c2 -125 4 -138 20 -135 15 3 17 20 20 142 2 92 -1 143 -9 152 -6 7 -33 17 -60 20 l-49 7 0 46 c0 26 -5 52 -12 59 -9 9 -85 12 -278 12 -246 0 -268 -1 -283 -18z m533 -127 l0 -105 -255 0 -255 0 0 105 0 105 255 0 255 0 0 -105z" fill="#ffa500"/>
<path d="M240 700 c0 -63 2 -70 20 -70 18 0 20 7 20 70 0 63 -2 70 -20 70 -18 0 -20 -7 -20 -70z" fill="#ffa500"/>
<path d="M400 700 c0 -63 2 -70 20 -70 18 0 20 7 20 70 0 63 -2 70 -20 70 -18 0 -20 -7 -20 -70z" fill="#ffa500"/>
<path d="M160 691 c0 -55 2 -61 20 -61 19 0 21 5 18 57 -2 46 -7 59 -20 61 -16 3 -18 -5 -18 -57z" fill="#ffa500"/>
<path d="M320 670 c0 -33 3 -40 20 -40 17 0 20 7 20 40 0 33 -3 40 -20 40 -17 0 -20 -7 -20 -40z" fill="#ffa500"/>
<path d="M487 703 c-4 -3 -7 -21 -7 -40 0 -26 4 -33 20 -33 17 0 20 7 20 40 0 38 -14 52 -33 33z" fill="#ffa500"/>
<path d="M342 473 l3 -58 58 -3 c64 -3 70 5 42 58 -16 30 -61 60 -90 60 -13 0 -15 -10 -13 -57z m75 12 c19 -19 33 -40 31 -47 -3 -7 -23 -14 -46 -16 l-42 -3 0 50 c0 31 4 51 11 51 6 0 27 -16 46 -35z" fill="#ffa500"/>
<path d="M251 474 c-27 -22 -31 -32 -31 -74 0 -42 4 -52 31 -74 29 -25 95 -36 112 -20 3 4 -5 26 -18 49 -14 23 -25 58 -25 78 0 72 -19 84 -69 41z" fill="#ffa500"/>
<path d="M360 380 c0 -9 22 -49 38 -70 6 -8 42 44 42 63 0 13 -8 17 -40 17 -22 0 -40 -5 -40 -10z" fill="#ffa500"/>
<path d="M550 342 c-108 -54 -108 -220 0 -274 40 -20 95 -23 137 -7 25 9 30 7 59 -25 l31 -35 22 23 22 24 -30 35 c-27 30 -30 39 -21 62 17 44 11 96 -15 140 -41 71 -129 95 -205 57z m156 -56 c29 -29 34 -41 34 -81 0 -40 -5 -52 -34 -81 -29 -29 -41 -34 -79 -34 -84 0 -144 80 -114 152 21 51 61 78 114 78 38 0 50 -5 79 -34z" fill="#ffa500"/>
</g>
</svg>