<svg xmlns="http://www.w3.org/2000/svg" version="1.0" width="88.000000pt" height="86.000000pt" viewBox="0 0 88.000000 86.000000" preserveAspectRatio="xMidYMid meet">

<g transform="translate(0.000000,86.000000) scale(0.100000,-0.100000)" fill="#ffa500" stroke="none">
<path d="M323 842 c-106 -38 -196 -125 -228 -222 -12 -35 -24 -53 -43 -62 -26 -13 -27 -16 -30 -111 -3 -103 6 -137 38 -137 41 0 50 25 50 135 0 82 5 116 21 162 27 70 95 145 164 181 43 22 63 26 140 27 79 0 97 -3 147 -28 137 -67 196 -195 185 -394 -8 -136 -50 -220 -145 -285 -47 -33 -48 -33 -153 -30 -88 3 -109 0 -123 -13 -19 -19 -20 -37 -4 -53 16 -16 172 -16 190 0 8 7 39 26 71 42 76 38 150 119 178 196 12 33 28 60 35 60 29 0 44 43 44 128 0 91 -10 122 -40 122 -14 0 -22 11 -30 39 -15 55 -83 153 -127 184 -105 72 -238 95 -340 59z m-256 -455 c-2 -23 -3 -1 -3 48 0 50 1 68 3 42 2 -26 2 -67 0 -90z m750 0 c-2 -23 -3 -1 -3 48 0 50 1 68 3 42 2 -26 2 -67 0 -90z" fill="#ffa500"/>
<path d="M525 528 c-24 -64 -51 -174 -43 -177 5 -1 11 -1 14 1 5 5 53 168 54 181 0 12 -20 8 -25 -5z" fill="#ffa500"/>
<path d="M213 523 c-27 -10 -13 -31 19 -29 48 2 47 -25 -1 -73 -23 -23 -41 -45 -41 -51 0 -6 27 -10 60 -10 47 0 60 3 60 15 0 10 -10 15 -32 15 l-32 0 26 28 c35 38 41 61 23 88 -15 23 -50 30 -82 17z" fill="#ffa500"/>
<path d="M361 476 c-17 -29 -31 -59 -31 -65 0 -6 15 -11 34 -11 25 0 35 -5 39 -20 3 -11 12 -20 21 -20 9 0 16 8 16 20 0 11 5 20 10 20 6 0 10 7 10 15 0 8 -4 15 -10 15 -5 0 -10 23 -10 50 0 46 -2 50 -24 50 -19 0 -31 -12 -55 -54z m39 -21 c0 -15 -6 -25 -15 -25 -12 0 -13 4 -3 25 6 14 13 25 15 25 1 0 3 -11 3 -25z" fill="#ffa500"/>
<path d="M570 510 c0 -16 7 -20 35 -20 l35 0 -30 -60 c-35 -70 -35 -70 -12 -70 19 0 82 115 82 150 0 18 -7 20 -55 20 -48 0 -55 -2 -55 -20z" fill="#ffa500"/>
</g>
</svg>