<svg xmlns="http://www.w3.org/2000/svg" width="59.966" height="60" viewBox="0 0 59.966 60">
  <g id="Team-events" transform="translate(-20.017 -20)">
    <g id="Group_2650" data-name="Group 2650">
      <g id="Group_2649" data-name="Group 2649">
        <g id="Group_2648" data-name="Group 2648">
          <g id="Group_2647" data-name="Group 2647">
            <g id="Group_2646" data-name="Group 2646">
              <rect id="Rectangle_59" data-name="Rectangle 59" width="59.936" height="59.936" transform="translate(20.03 20.064)" fill="none"/>
            </g>
          </g>
        </g>
      </g>
    </g>
    <g id="Group_2759" data-name="Group 2759">
      <g id="Group_2668" data-name="Group 2668">
        <g id="Group_2651" data-name="Group 2651">
          <path id="Path_25044" data-name="Path 25044" d="M74.424,38.355a.6.6,0,0,1-.224-.047.507.507,0,0,1-.194-.13.6.6,0,0,1-.129-.635.55.55,0,0,1,.129-.194.673.673,0,0,1,.194-.13.641.641,0,0,1,.107-.029.492.492,0,0,1,.229,0,.733.733,0,0,1,.112.029.716.716,0,0,1,.188.13.492.492,0,0,1,.13.194.566.566,0,0,1,0,.447.517.517,0,0,1-.13.188.526.526,0,0,1-.188.13A.6.6,0,0,1,74.424,38.355Z" fill="#ffa500"/>
        </g>
        <g id="Group_2652" data-name="Group 2652">
          <path id="Path_25045" data-name="Path 25045" d="M72.165,37.355v.005h0a.588.588,0,0,1-.365-.746h0a.581.581,0,0,1,.742-.372h.006a.588.588,0,0,1,.364.748h0a.586.586,0,0,1-.559.4h0A.574.574,0,0,1,72.165,37.355Zm-4.894-.795a.592.592,0,0,1,.47-.688h0a.59.59,0,0,1,.689.477h0a.587.587,0,0,1-.477.682h0a.626.626,0,0,1-.106.012h0A.59.59,0,0,1,67.271,36.56Zm2.806.359a.586.586,0,0,1-.542-.629h0a.6.6,0,0,1,.636-.542h0a.59.59,0,0,1,.541.636h0a.59.59,0,0,1-.588.541h0A.124.124,0,0,1,70.077,36.919Z" fill="#ffa500"/>
        </g>
        <g id="Group_2653" data-name="Group 2653">
          <path id="Path_25046" data-name="Path 25046" d="M65.67,37.731a.59.59,0,0,1-.223-.047.581.581,0,0,1-.318-.318.587.587,0,0,1,.13-.641.607.607,0,0,1,.829,0,.725.725,0,0,1,.13.194.644.644,0,0,1,0,.447.7.7,0,0,1-.13.194A.583.583,0,0,1,65.67,37.731Z" fill="#ffa500"/>
        </g>
        <g id="Group_2654" data-name="Group 2654">
          <path id="Path_25047" data-name="Path 25047" d="M59.358,53.115a.589.589,0,0,1-.059-.83h0a.588.588,0,0,1,.835-.052h0a.591.591,0,0,1,.054.829h0a.608.608,0,0,1-.442.2h0A.6.6,0,0,1,59.358,53.115ZM60.9,51.25a.586.586,0,0,1-.141-.818h0a.586.586,0,0,1,.818-.141h0a.586.586,0,0,1,.141.818h0a.573.573,0,0,1-.482.247h0A.58.58,0,0,1,60.9,51.25Zm1.342-2.018a.587.587,0,0,1-.224-.8h0a.587.587,0,0,1,.8-.223h0a.585.585,0,0,1,.223.8h0a.575.575,0,0,1-.511.3h0A.555.555,0,0,1,62.247,49.232Zm1.129-2.141a.59.59,0,0,1-.306-.777v.006a.59.59,0,0,1,.777-.306h0a.586.586,0,0,1,.3.771h0a.58.58,0,0,1-.536.353h0A.549.549,0,0,1,63.376,47.091Zm.906-2.248A.589.589,0,0,1,63.9,44.1v.006a.589.589,0,0,1,.742-.382h0a.588.588,0,0,1,.376.741h0a.592.592,0,0,1-.559.406h0A.506.506,0,0,1,64.282,44.843Zm.688-2.323a.588.588,0,0,1-.453-.7h0a.586.586,0,0,1,.7-.447h0a.593.593,0,0,1,.453.7h0a.588.588,0,0,1-.576.465h0A.441.441,0,0,1,64.97,42.52Zm.453-2.377a.584.584,0,0,1-.512-.653h0a.594.594,0,0,1,.653-.518h0a.589.589,0,0,1,.512.659h.006a.6.6,0,0,1-.588.518h0C65.47,40.149,65.447,40.143,65.423,40.143Z" fill="#ffa500"/>
        </g>
        <g id="Group_2655" data-name="Group 2655">
          <path id="Path_25048" data-name="Path 25048" d="M58.04,54.986a.582.582,0,0,1-.417-.171.526.526,0,0,1-.13-.188.63.63,0,0,1-.047-.23.7.7,0,0,1,.012-.111c.012-.042.023-.077.035-.112a.528.528,0,0,1,.053-.1.374.374,0,0,1,.077-.089.6.6,0,0,1,.529-.164c.035.012.077.024.112.035l.1.053c.029.024.059.047.088.076a.571.571,0,0,1,.171.412.584.584,0,0,1-.042.23.623.623,0,0,1-.317.317A.572.572,0,0,1,58.04,54.986Z" fill="#ffa500"/>
        </g>
        <g id="Group_2656" data-name="Group 2656">
          <path id="Path_25049" data-name="Path 25049" d="M58.834,58.3a.591.591,0,0,1,.236-.8h0a.585.585,0,0,1,.794.229h0a.589.589,0,0,1-.23.806h0a.608.608,0,0,1-.282.071h0A.6.6,0,0,1,58.834,58.3Zm-.823-1.842h0a.587.587,0,0,1,.353-.753h0a.588.588,0,0,1,.753.353h0a.6.6,0,0,1-.353.753h0a.614.614,0,0,1-.2.036h0A.575.575,0,0,1,58.011,56.456Z" fill="#ffa500"/>
        </g>
        <g id="Group_2657" data-name="Group 2657">
          <path id="Path_25050" data-name="Path 25050" d="M60.446,60.192a.582.582,0,0,1-.412-.17.608.608,0,0,1-.129-.195.59.59,0,0,1,.129-.641.6.6,0,0,1,.189-.124.558.558,0,0,1,.453,0,.6.6,0,0,1,.188.124.71.71,0,0,1,.13.194.63.63,0,0,1,0,.447.73.73,0,0,1-.13.195A.586.586,0,0,1,60.446,60.192Z" fill="#ffa500"/>
        </g>
        <g id="Group_2658" data-name="Group 2658">
          <path id="Path_25051" data-name="Path 25051" d="M58.47,60.81a.593.593,0,0,1,.2-.812h0a.586.586,0,0,1,.806.2h0a.587.587,0,0,1-.2.806h0a.566.566,0,0,1-.3.088h0A.591.591,0,0,1,58.47,60.81Z" fill="#ffa500"/>
        </g>
        <g id="Group_2659" data-name="Group 2659">
          <path id="Path_25052" data-name="Path 25052" d="M57.5,61.992a.591.591,0,0,1-.418-.176.6.6,0,0,1-.129-.189.576.576,0,0,1-.041-.229.566.566,0,0,1,.041-.223.6.6,0,0,1,.659-.354c.041.012.076.024.112.036s.07.035.1.053a.371.371,0,0,1,.089.076.506.506,0,0,1,.129.189.6.6,0,0,1,.047.223.579.579,0,0,1-.047.229.506.506,0,0,1-.129.189A.588.588,0,0,1,57.5,61.992Z" fill="#ffa500"/>
        </g>
        <g id="Group_2660" data-name="Group 2660">
          <path id="Path_25053" data-name="Path 25053" d="M59.282,63.063a.586.586,0,0,1-.541-.818.5.5,0,0,1,.129-.188.369.369,0,0,1,.088-.077c.03-.017.065-.035.1-.053s.07-.023.112-.035a.632.632,0,0,1,.341.035.592.592,0,0,1,.188.13.543.543,0,0,1,.171.418.575.575,0,0,1-.171.411A.588.588,0,0,1,59.282,63.063Z" fill="#ffa500"/>
        </g>
        <g id="Group_2661" data-name="Group 2661">
          <path id="Path_25054" data-name="Path 25054" d="M57.44,79.547a.584.584,0,0,1,.306-.771h0a.591.591,0,0,1,.777.306h0a.6.6,0,0,1-.312.777h0a.651.651,0,0,1-.229.047h0A.589.589,0,0,1,57.44,79.547Zm-1.753-1.224a.593.593,0,0,1,.547-.63h0a.593.593,0,0,1,.63.548h0a.592.592,0,0,1-.547.629h-.042A.591.591,0,0,1,55.687,78.323Zm2.406-1.012a.587.587,0,0,1,.571-.606h0a.586.586,0,0,1,.606.565h0a.592.592,0,0,1-.565.612h-.024A.591.591,0,0,1,58.093,77.311Zm-1.883-.764a.591.591,0,0,1-.582-.595h0a.582.582,0,0,1,.589-.582h0a.591.591,0,0,1,.588.594h0a.6.6,0,0,1-.6.583Zm2.454-.995a.591.591,0,0,1-.571-.612h0a.59.59,0,0,1,.612-.564h0a.591.591,0,0,1,.565.611h0a.586.586,0,0,1-.589.565h-.017Zm-2.4-1.335a.587.587,0,0,1-.542-.63h0a.588.588,0,0,1,.63-.541h0a.588.588,0,0,1,.541.63h0a.584.584,0,0,1-.583.541h-.046Zm2.524-.989a.588.588,0,0,1-.524-.647h0a.593.593,0,0,1,.653-.523h0a.59.59,0,0,1,.518.653h0a.587.587,0,0,1-.583.524h0C58.828,73.235,58.811,73.228,58.788,73.228ZM56.475,71.9a.59.59,0,0,1-.5-.665h0a.588.588,0,0,1,.664-.5h0a.594.594,0,0,1,.506.665h0a.59.59,0,0,1-.588.506h0A.334.334,0,0,1,56.475,71.9Zm2.6-.982a.585.585,0,0,1-.47-.683h0a.589.589,0,0,1,.688-.47h0a.586.586,0,0,1,.471.682h0a.591.591,0,0,1-.576.482h0A.415.415,0,0,1,59.075,70.917ZM56.834,69.6a.582.582,0,0,1-.453-.694h0a.578.578,0,0,1,.695-.454h0a.586.586,0,0,1,.452.7h0a.589.589,0,0,1-.576.465h0A.4.4,0,0,1,56.834,69.6Zm2.706-.959a.591.591,0,0,1-.412-.724h0a.582.582,0,0,1,.718-.411h0a.584.584,0,0,1,.418.717h0a.586.586,0,0,1-.571.436h0A.714.714,0,0,1,59.54,68.64Zm-2.188-1.312a.586.586,0,0,1-.4-.724h0a.593.593,0,0,1,.735-.4h0a.589.589,0,0,1,.4.73h-.005a.591.591,0,0,1-.559.423h0A.6.6,0,0,1,57.352,67.328ZM60.2,66.4a.583.583,0,0,1-.341-.759h0a.582.582,0,0,1,.759-.341h0a.6.6,0,0,1,.341.759h0a.6.6,0,0,1-.553.383h0A.606.606,0,0,1,60.2,66.4Zm-2.141-1.288a.587.587,0,0,1-.323-.765h0a.588.588,0,0,1,.764-.329h0a.594.594,0,0,1,.329.765h0a.6.6,0,0,1-.546.37h0A.571.571,0,0,1,58.058,65.116Z" fill="#ffa500"/>
        </g>
        <g id="Group_2662" data-name="Group 2662">
          <path id="Path_25055" data-name="Path 25055" d="M61.382,64.322a.605.605,0,0,1-.589-.588.652.652,0,0,1,.047-.23.526.526,0,0,1,.13-.188.416.416,0,0,1,.088-.077c.029-.017.065-.035.1-.052s.071-.024.112-.036a.583.583,0,0,1,.335.036.55.55,0,0,1,.194.129.581.581,0,0,1,.124.188.63.63,0,0,1,.047.23.578.578,0,0,1-.171.411A.584.584,0,0,1,61.382,64.322Z" fill="#ffa500"/>
        </g>
        <g id="Group_2663" data-name="Group 2663">
          <path id="Path_25056" data-name="Path 25056" d="M63.253,65.44a.553.553,0,0,1-.418-.171.6.6,0,0,1-.13-.194.588.588,0,0,1-.041-.223.594.594,0,0,1,.041-.225.625.625,0,0,1,.13-.193.6.6,0,0,1,.641-.124.57.57,0,0,1,.188.124.523.523,0,0,1,.13.193.6.6,0,0,1,.047.225.588.588,0,0,1-.177.417A.575.575,0,0,1,63.253,65.44Z" fill="#ffa500"/>
        </g>
        <g id="Group_2664" data-name="Group 2664">
          <path id="Path_25057" data-name="Path 25057" d="M63.258,63.651a.586.586,0,0,1-.588-.588h0a.6.6,0,0,1,.594-.588h0a.59.59,0,0,1,.583.594h0a.585.585,0,0,1-.589.582Z" fill="#ffa500"/>
        </g>
        <g id="Group_2665" data-name="Group 2665">
          <path id="Path_25058" data-name="Path 25058" d="M63.27,61.869a.6.6,0,0,1-.224-.047.607.607,0,0,1-.194-.13.562.562,0,0,1-.17-.412.575.575,0,0,1,.047-.223.611.611,0,0,1,.123-.194.572.572,0,0,1,.194-.124.548.548,0,0,1,.336-.035.626.626,0,0,1,.212.088.488.488,0,0,1,.217.265.555.555,0,0,1,0,.447.568.568,0,0,1-.123.188.607.607,0,0,1-.194.13A.6.6,0,0,1,63.27,61.869Z" fill="#ffa500"/>
        </g>
        <g id="Group_2666" data-name="Group 2666">
          <path id="Path_25059" data-name="Path 25059" d="M65,61.463a.584.584,0,0,1,.554-.624h0a.586.586,0,0,1,.623.547h0a.591.591,0,0,1-.553.624h0c-.012,0-.023.006-.035.006h0A.589.589,0,0,1,65,61.463Zm2.319-.265a.583.583,0,0,1,.423-.718h0a.59.59,0,0,1,.718.418h0a.587.587,0,0,1-.424.718h0a.681.681,0,0,1-.147.023h0A.588.588,0,0,1,67.324,61.2Zm2.229-.689a.588.588,0,0,1,.3-.776h0a.589.589,0,0,1,.777.294h0a.594.594,0,0,1-.294.783h0a.746.746,0,0,1-.242.047h0A.592.592,0,0,1,69.553,60.509Zm2.094-1.035a.591.591,0,0,1,.177-.817h0a.583.583,0,0,1,.811.176h0a.583.583,0,0,1-.176.812h.006a.589.589,0,0,1-.324.094h0A.6.6,0,0,1,71.647,59.474Zm1.912-1.341a.6.6,0,0,1,.047-.836h0a.594.594,0,0,1,.83.054h0a.586.586,0,0,1-.047.829h0a.584.584,0,0,1-.389.147h0A.579.579,0,0,1,73.559,58.133Zm1.689-1.612a.589.589,0,0,1-.071-.829h0a.589.589,0,0,1,.83-.071h0a.594.594,0,0,1,.07.83h0a.6.6,0,0,1-.453.211h0A.589.589,0,0,1,75.248,56.521Zm1.441-1.835a.587.587,0,0,1-.176-.812h0a.588.588,0,0,1,.806-.183h0a.593.593,0,0,1,.188.812h0a.6.6,0,0,1-.5.277h0A.578.578,0,0,1,76.689,54.686Zm1.188-2.012a.584.584,0,0,1-.294-.777h0a.584.584,0,0,1,.777-.294h0a.582.582,0,0,1,.294.777h0a.585.585,0,0,1-.535.347h0A.583.583,0,0,1,77.877,52.674Zm.883-2.159a.591.591,0,0,1-.412-.724h0a.586.586,0,0,1,.724-.412h0a.589.589,0,0,1,.412.724h0a.586.586,0,0,1-.565.429h0A.781.781,0,0,1,78.76,50.515Zm.524-2.277a.588.588,0,0,1-.53-.641h0a.588.588,0,0,1,.641-.53h0a.589.589,0,0,1,.53.641h0a.588.588,0,0,1-.583.536h0A.208.208,0,0,1,79.284,48.238Zm-.542-2.854a.587.587,0,0,1,.524-.646h0a.587.587,0,0,1,.647.517h0a.593.593,0,0,1-.524.653h-.065A.589.589,0,0,1,78.742,45.384Zm-.482-2.141a.6.6,0,0,1,.365-.753h0a.589.589,0,0,1,.747.365h0a.581.581,0,0,1-.359.747h0a.557.557,0,0,1-.194.035h0A.6.6,0,0,1,78.26,43.243ZM77.3,41.279h0a.588.588,0,0,1,.171-.812h0a.576.576,0,0,1,.811.17h0a.588.588,0,0,1-.17.812h0a.592.592,0,0,1-.318.094h0A.589.589,0,0,1,77.3,41.279ZM75.895,39.6a.581.581,0,0,1-.03-.829h0a.588.588,0,0,1,.836-.03h0a.585.585,0,0,1,.023.829h0a.566.566,0,0,1-.429.189h0A.586.586,0,0,1,75.895,39.6Z" fill="#ffa500"/>
        </g>
        <g id="Group_2667" data-name="Group 2667">
          <path id="Path_25060" data-name="Path 25060" d="M74.424,38.355a.6.6,0,0,1-.224-.047.507.507,0,0,1-.194-.13.6.6,0,0,1-.129-.635.55.55,0,0,1,.129-.194.673.673,0,0,1,.194-.13.641.641,0,0,1,.107-.029.492.492,0,0,1,.229,0,.733.733,0,0,1,.112.029.716.716,0,0,1,.188.13.492.492,0,0,1,.13.194.566.566,0,0,1,0,.447.517.517,0,0,1-.13.188.526.526,0,0,1-.188.13A.6.6,0,0,1,74.424,38.355Z" fill="#ffa500"/>
        </g>
      </g>
      <g id="Group_2684" data-name="Group 2684">
        <g id="Group_2669" data-name="Group 2669">
          <path id="Path_25061" data-name="Path 25061" d="M63.5,37.008a.626.626,0,0,1-.23-.047.584.584,0,0,1-.188-.13.6.6,0,0,1-.13-.188.589.589,0,0,1-.041-.224.615.615,0,0,1,.041-.229.6.6,0,0,1,.13-.188.582.582,0,0,1,.529-.159.524.524,0,0,1,.112.029.548.548,0,0,1,.1.059.257.257,0,0,1,.089.071.515.515,0,0,1,.129.188.646.646,0,0,1,.047.229.6.6,0,0,1-.047.224.515.515,0,0,1-.129.188A.585.585,0,0,1,63.5,37.008Z" fill="#ffa500"/>
        </g>
        <g id="Group_2670" data-name="Group 2670">
          <path id="Path_25062" data-name="Path 25062" d="M45.5,54.856a.592.592,0,0,1-.235-.8h0a.589.589,0,0,1,.8-.229h0a.581.581,0,0,1,.23.8h0a.579.579,0,0,1-.512.3h0A.59.59,0,0,1,45.5,54.856ZM43.462,53.5a.587.587,0,0,1-.1-.823h0a.6.6,0,0,1,.83-.1h0a.588.588,0,0,1,.1.823h0a.6.6,0,0,1-.465.23h0A.581.581,0,0,1,43.462,53.5Zm-1.8-1.617a.582.582,0,0,1,.012-.83h0a.581.581,0,0,1,.829.011h0a.581.581,0,0,1-.011.83h0a.569.569,0,0,1-.406.165h0A.591.591,0,0,1,41.662,51.886ZM40.086,50.05a.591.591,0,0,1,.117-.824h0a.586.586,0,0,1,.824.118h0v-.006h0a.6.6,0,0,1-.118.83h0a.607.607,0,0,1-.353.117h0A.594.594,0,0,1,40.086,50.05ZM38.75,48.044a.587.587,0,0,1,.212-.806h0a.58.58,0,0,1,.8.212h0a.592.592,0,0,1-.206.806h0a.614.614,0,0,1-.3.076h0A.59.59,0,0,1,38.75,48.044Zm-1.094-2.153a.577.577,0,0,1,.3-.771h0a.585.585,0,0,1,.776.3h0a.593.593,0,0,1-.305.777h0a.656.656,0,0,1-.236.046h0A.58.58,0,0,1,37.656,45.891Zm-.847-2.254a.592.592,0,0,1,.382-.741h0a.6.6,0,0,1,.742.389h0a.587.587,0,0,1-.389.735h0a.641.641,0,0,1-.176.029h0A.592.592,0,0,1,36.809,43.637ZM36.215,41.3v.006a.585.585,0,0,1,.458-.694h0a.59.59,0,0,1,.695.458h0a.6.6,0,0,1-.465.695h0a.717.717,0,0,1-.118.011h0A.584.584,0,0,1,36.215,41.3Zm-.353-2.377a.582.582,0,0,1,.523-.641h0a.6.6,0,0,1,.647.529h0a.586.586,0,0,1-.529.641h0c-.018,0-.041.007-.059.007h0A.583.583,0,0,1,35.862,38.925Zm-.124-2.394h0a.592.592,0,0,1,.588-.594h0a.59.59,0,0,1,.589.588h0a.586.586,0,0,1-.589.588h0A.585.585,0,0,1,35.738,36.531Zm.641-1.759a.6.6,0,0,1-.529-.647h0A.588.588,0,0,1,36.5,33.6h0a.592.592,0,0,1,.53.647h0a.593.593,0,0,1-.589.524h-.059Zm26.409-.635a.589.589,0,0,1,.523-.648h0a.588.588,0,0,1,.647.524h0a.587.587,0,0,1-.523.647h0c-.018,0-.042.006-.059.006h0A.6.6,0,0,1,62.788,34.137ZM36.68,32.448a.6.6,0,0,1-.448-.706h0a.593.593,0,0,1,.706-.447h0a.592.592,0,0,1,.447.7h0a.6.6,0,0,1-.576.465h0A1.033,1.033,0,0,1,36.68,32.448Zm25.737-.559V31.9h0a.589.589,0,0,1,.442-.706h0a.59.59,0,0,1,.7.441h0a.591.591,0,0,1-.447.706h0a.449.449,0,0,1-.129.012h0A.583.583,0,0,1,62.417,31.889ZM37.262,30.172a.587.587,0,0,1-.353-.754h0a.587.587,0,0,1,.753-.352h0a.586.586,0,0,1,.353.752h0a.587.587,0,0,1-.553.389h0A.611.611,0,0,1,37.262,30.172Zm24.508-.454h0a.591.591,0,0,1,.347-.759h0a.6.6,0,0,1,.759.354h0a.589.589,0,0,1-.347.752h0a.653.653,0,0,1-.206.036h0A.589.589,0,0,1,61.77,29.718ZM38.138,28A.586.586,0,0,1,37.9,27.2h0a.586.586,0,0,1,.8-.241h0a.586.586,0,0,1,.241.794h0a.582.582,0,0,1-.518.312h0A.591.591,0,0,1,38.138,28Zm22.7-.329a.588.588,0,0,1,.23-.8h0a.585.585,0,0,1,.8.235h0a.579.579,0,0,1-.235.8h0a.591.591,0,0,1-.277.071h0A.586.586,0,0,1,60.84,27.666ZM39.327,25.977a.59.59,0,0,1-.106-.829h0a.587.587,0,0,1,.823-.107h0a.59.59,0,0,1,.106.824h0a.579.579,0,0,1-.465.229h0A.572.572,0,0,1,39.327,25.977ZM59.6,25.783a.591.591,0,0,1,.106-.83h0a.591.591,0,0,1,.824.106h0a.589.589,0,0,1-.1.824h0a.6.6,0,0,1-.365.124h0A.6.6,0,0,1,59.6,25.783ZM40.833,24.177a.587.587,0,0,1,.041-.83h0a.586.586,0,0,1,.83.042h0a.593.593,0,0,1-.042.835h0a.585.585,0,0,1-.394.147h0A.586.586,0,0,1,40.833,24.177Zm17.249-.03h0a.581.581,0,0,1-.053-.829h0a.586.586,0,0,1,.829-.047h.006a.592.592,0,0,1,.047.829h0a.594.594,0,0,1-.441.2h0A.586.586,0,0,1,58.082,24.147ZM42.645,22.695a.587.587,0,0,1,.2-.812h0a.591.591,0,0,1,.806.2h0a.591.591,0,0,1-.2.806h0a.583.583,0,0,1-.306.088h0A.587.587,0,0,1,42.645,22.695Zm13.636.14h0a.582.582,0,0,1-.206-.8h0a.585.585,0,0,1,.806-.206h0a.59.59,0,0,1,.206.806h0a.6.6,0,0,1-.505.288h0A.6.6,0,0,1,56.281,22.835ZM44.7,21.577a.588.588,0,0,1,.352-.754h0a.59.59,0,0,1,.754.348h0a.591.591,0,0,1-.353.759h0a.589.589,0,0,1-.2.035h0A.587.587,0,0,1,44.7,21.577Zm9.559.317a.6.6,0,0,1-.359-.753h0a.593.593,0,0,1,.754-.358h0a.592.592,0,0,1,.359.752h0a.6.6,0,0,1-.559.389h0A.733.733,0,0,1,54.263,21.894Zm-7.324-1.017a.591.591,0,0,1,.483-.677h0a.6.6,0,0,1,.682.483h0a.588.588,0,0,1-.482.676h0v.006h0c-.035,0-.071.006-.1.006h0A.6.6,0,0,1,46.939,20.877Zm5.16.465a.584.584,0,0,1-.489-.671h0a.582.582,0,0,1,.671-.489h0a.586.586,0,0,1,.488.671h0a.582.582,0,0,1-.577.494h0A.58.58,0,0,1,52.1,21.342Zm-2.83-.754A.581.581,0,0,1,49.851,20h0a.589.589,0,0,1,.594.583h0a.59.59,0,0,1-.588.588h0A.582.582,0,0,1,49.269,20.588Z" fill="#ffa500"/>
        </g>
        <g id="Group_2671" data-name="Group 2671">
          <path id="Path_25063" data-name="Path 25063" d="M47.974,55.874a.588.588,0,0,1-.417-.177.509.509,0,0,1-.13-.188.586.586,0,0,1-.041-.224.392.392,0,0,1,.012-.117.884.884,0,0,1,.029-.106c.018-.035.036-.071.053-.106a1.01,1.01,0,0,1,.077-.088.584.584,0,0,1,.188-.129.6.6,0,0,1,.453,0,.584.584,0,0,1,.188.129,1.01,1.01,0,0,1,.077.088c.017.035.035.071.053.106a.729.729,0,0,1,.029.106.392.392,0,0,1,.012.117.586.586,0,0,1-.041.224.637.637,0,0,1-.318.318A.573.573,0,0,1,47.974,55.874Z" fill="#ffa500"/>
        </g>
        <g id="Group_2672" data-name="Group 2672">
          <path id="Path_25064" data-name="Path 25064" d="M46.492,57.674a.59.59,0,0,1-.188-.812h0a.59.59,0,0,1,.806-.188h0a.592.592,0,0,1,.194.812h0a.6.6,0,0,1-.5.276h0A.61.61,0,0,1,46.492,57.674Z" fill="#ffa500"/>
        </g>
        <g id="Group_2673" data-name="Group 2673">
          <path id="Path_25065" data-name="Path 25065" d="M45.633,59.651a.579.579,0,0,1-.417-.171.57.57,0,0,1-.124-.188.622.622,0,0,1-.047-.23.834.834,0,0,1,.011-.111.368.368,0,0,1,.036-.112.321.321,0,0,1,.053-.1.512.512,0,0,1,.071-.088.586.586,0,0,1,.194-.13.6.6,0,0,1,.641.13.374.374,0,0,1,.071.088.34.34,0,0,1,.052.1.319.319,0,0,1,.035.112.6.6,0,0,1,.013.111.587.587,0,0,1-.171.418.725.725,0,0,1-.194.13A.589.589,0,0,1,45.633,59.651Z" fill="#ffa500"/>
        </g>
        <g id="Group_2674" data-name="Group 2674">
          <path id="Path_25066" data-name="Path 25066" d="M46.457,59.062a.59.59,0,0,1,.588-.588h0a.59.59,0,0,1,.588.588h0a.59.59,0,0,1-.588.589h0A.59.59,0,0,1,46.457,59.062Z" fill="#ffa500"/>
        </g>
        <g id="Group_2675" data-name="Group 2675">
          <path id="Path_25067" data-name="Path 25067" d="M48.457,59.651a.594.594,0,0,1-.229-.041.607.607,0,0,1-.189-.13.515.515,0,0,1-.129-.188.617.617,0,0,1-.041-.23.566.566,0,0,1,.17-.411.521.521,0,0,1,.189-.13.6.6,0,0,1,.641.13.575.575,0,0,1,.176.411.591.591,0,0,1-.176.418A.579.579,0,0,1,48.457,59.651Z" fill="#ffa500"/>
        </g>
        <g id="Group_2676" data-name="Group 2676">
          <path id="Path_25068" data-name="Path 25068" d="M49.539,79.994a.592.592,0,0,1-.464-.689h0a.59.59,0,0,1,.688-.47h0a.588.588,0,0,1,.465.688h0a.581.581,0,0,1-.577.477h0A.746.746,0,0,1,49.539,79.994Zm1.383-1.671a.581.581,0,0,1-.359-.747h0a.584.584,0,0,1,.747-.365h0a.591.591,0,0,1,.359.754h0a.588.588,0,0,1-.553.394h0A.55.55,0,0,1,50.922,78.323Zm-2.612-.047a.587.587,0,0,1-.341-.759h0a.587.587,0,0,1,.759-.341h0a.587.587,0,0,1,.341.759h0a.591.591,0,0,1-.553.377h0A.62.62,0,0,1,48.31,78.276Zm3.347-2.23a.6.6,0,0,1-.441-.706h0a.587.587,0,0,1,.706-.441h0a.588.588,0,0,1,.441.706h0a.59.59,0,0,1-.576.453h0A.884.884,0,0,1,51.657,76.046Zm-2.541-.023A.591.591,0,0,1,48.7,75.3h0a.581.581,0,0,1,.718-.411h0a.584.584,0,0,1,.417.717h0a.589.589,0,0,1-.57.436h0A.706.706,0,0,1,49.116,76.023Zm3-2.33a.591.591,0,0,1-.553-.623h0a.587.587,0,0,1,.629-.547h0a.583.583,0,0,1,.548.623h0a.587.587,0,0,1-.588.547h-.036Zm-2.465-.006a.582.582,0,0,1-.541-.629h0a.583.583,0,0,1,.629-.547h0a.59.59,0,0,1,.541.629h0v.006h0a.589.589,0,0,1-.588.541h-.041Zm1.812-2.87a.584.584,0,0,1,.482-.677h0a.591.591,0,0,1,.677.482h0a.588.588,0,0,1-.488.677h0a.5.5,0,0,1-.094.006h0A.581.581,0,0,1,51.463,70.817Zm-2.5.023a.584.584,0,0,1,.453-.694h0a.59.59,0,0,1,.7.447h0a.589.589,0,0,1-.453.7h0a.432.432,0,0,1-.124.012h0A.591.591,0,0,1,48.963,70.84Zm-.7-2.194h0a.584.584,0,0,1,.341-.759h0a.59.59,0,0,1,.759.347h0a.592.592,0,0,1-.347.759h0a.623.623,0,0,1-.206.035h0A.588.588,0,0,1,48.263,68.646Zm2.6-.036h0a.586.586,0,0,1,.353-.753h0a.6.6,0,0,1,.753.359h0a.581.581,0,0,1-.359.747h0a.554.554,0,0,1-.194.036h0A.582.582,0,0,1,50.863,68.61ZM47.5,66.3a.6.6,0,0,1,.441-.712h0a.593.593,0,0,1,.706.441h0v-.006h0a.59.59,0,0,1-.435.712h0a.574.574,0,0,1-.142.017h0A.589.589,0,0,1,47.5,66.3Zm2.553.017h0a.592.592,0,0,1,.4-.729h0a.59.59,0,0,1,.729.4h0a.587.587,0,0,1-.4.729h0a.524.524,0,0,1-.165.024h0A.58.58,0,0,1,50.057,66.316Zm-.406-2.5V63.81h0a.581.581,0,0,1,.571-.6h0a.587.587,0,0,1,.606.571h0a.591.591,0,0,1-.571.606H50.24A.592.592,0,0,1,49.651,63.816ZM47.186,63.8a.591.591,0,0,1,.577-.6h0a.583.583,0,0,1,.6.577h0a.594.594,0,0,1-.577.6h-.012A.591.591,0,0,1,47.186,63.8Zm3.142-1.812a.6.6,0,0,1-.477-.682h0a.592.592,0,0,1,.683-.477h0a.587.587,0,0,1,.476.682h0a.585.585,0,0,1-.576.489h0A.626.626,0,0,1,50.328,61.992Zm-2.477-.006a.582.582,0,0,1-.488-.671h0a.592.592,0,0,1,.671-.494h0a.59.59,0,0,1,.488.671h0l.006.006h0a.594.594,0,0,1-.589.494h0A.5.5,0,0,1,47.851,61.986Z" fill="#ffa500"/>
        </g>
        <g id="Group_2677" data-name="Group 2677">
          <path id="Path_25069" data-name="Path 25069" d="M51.016,59.651a.589.589,0,0,1-.224-.041.615.615,0,0,1-.188-.13.588.588,0,0,1-.177-.418.7.7,0,0,1,.013-.111c.011-.042.023-.077.035-.112s.035-.071.053-.1a.389.389,0,0,1,.076-.088.6.6,0,0,1,.642-.13.526.526,0,0,1,.188.13.366.366,0,0,1,.076.088c.018.029.035.065.053.1a.59.59,0,0,1,.03.112.381.381,0,0,1,.011.111.6.6,0,0,1-.041.23.5.5,0,0,1-.129.188A.583.583,0,0,1,51.016,59.651Z" fill="#ffa500"/>
        </g>
        <g id="Group_2678" data-name="Group 2678">
          <path id="Path_25070" data-name="Path 25070" d="M52.052,59.062a.591.591,0,0,1,.594-.588h0a.59.59,0,0,1,.588.588h0a.59.59,0,0,1-.588.589h0A.591.591,0,0,1,52.052,59.062Z" fill="#ffa500"/>
        </g>
        <g id="Group_2679" data-name="Group 2679">
          <path id="Path_25071" data-name="Path 25071" d="M54.269,59.651a.6.6,0,0,1-.229-.041.591.591,0,0,1-.188-.13.517.517,0,0,1-.13-.188.617.617,0,0,1-.041-.23.567.567,0,0,1,.171-.411.509.509,0,0,1,.188-.13.6.6,0,0,1,.641.13.571.571,0,0,1,.176.411.587.587,0,0,1-.176.418A.579.579,0,0,1,54.269,59.651Z" fill="#ffa500"/>
        </g>
        <g id="Group_2680" data-name="Group 2680">
          <path id="Path_25072" data-name="Path 25072" d="M52.587,57.468a.585.585,0,0,1,.194-.806h0a.583.583,0,0,1,.806.188h0a.585.585,0,0,1-.188.812h0a.575.575,0,0,1-.306.089h0A.589.589,0,0,1,52.587,57.468Z" fill="#ffa500"/>
        </g>
        <g id="Group_2681" data-name="Group 2681">
          <path id="Path_25073" data-name="Path 25073" d="M51.916,55.85a.579.579,0,0,1-.229-.047.506.506,0,0,1-.189-.129.518.518,0,0,1-.129-.189.6.6,0,0,1,.318-.77.561.561,0,0,1,.341-.029.685.685,0,0,1,.112.029c.035.018.07.035.1.053a.371.371,0,0,1,.089.076.579.579,0,0,1,.176.418.572.572,0,0,1-.047.223.62.62,0,0,1-.317.318A.58.58,0,0,1,51.916,55.85Z" fill="#ffa500"/>
        </g>
        <g id="Group_2682" data-name="Group 2682">
          <path id="Path_25074" data-name="Path 25074" d="M53.54,54.591a.587.587,0,0,1,.224-.8h0a.581.581,0,0,1,.8.218h0a.581.581,0,0,1-.217.8h0a.606.606,0,0,1-.3.082h0A.6.6,0,0,1,53.54,54.591Zm1.994-1.247a.582.582,0,0,1,.094-.823h0a.578.578,0,0,1,.824.094h0a.576.576,0,0,1-.094.823h0a.562.562,0,0,1-.365.13h0A.59.59,0,0,1,55.534,53.344Zm1.789-1.523a.588.588,0,0,1-.018-.836h0a.586.586,0,0,1,.829-.012h0a.586.586,0,0,1,.018.83h0a.573.573,0,0,1-.424.183h0A.565.565,0,0,1,57.323,51.821Zm1.57-1.742a.585.585,0,0,1-.112-.824h0a.591.591,0,0,1,.824-.117h0a.591.591,0,0,1,.118.824h0a.6.6,0,0,1-.477.235h0A.6.6,0,0,1,58.893,50.079Zm1.359-1.917a.587.587,0,0,1-.211-.806h0a.586.586,0,0,1,.806-.212h0a.587.587,0,0,1,.211.806h0a.583.583,0,0,1-.5.288h0A.609.609,0,0,1,60.252,48.162Zm1.13-2.059a.591.591,0,0,1-.3-.783h0a.583.583,0,0,1,.776-.294h0a.585.585,0,0,1,.3.77h0a.593.593,0,0,1-.541.354h0A.678.678,0,0,1,61.382,46.1Zm.888-2.177a.587.587,0,0,1-.382-.741h0a.6.6,0,0,1,.741-.383h0a.6.6,0,0,1,.382.741h0a.6.6,0,0,1-.564.412h0A.6.6,0,0,1,62.27,43.926Zm.653-2.259a.587.587,0,0,1-.465-.688h0v-.007h0a.59.59,0,0,1,.695-.458h0a.588.588,0,0,1,.458.694h0a.586.586,0,0,1-.576.47h0A.708.708,0,0,1,62.923,41.667Zm.406-2.312a.581.581,0,0,1-.53-.642h0a.581.581,0,0,1,.642-.529h0a.587.587,0,0,1,.529.641h0a.586.586,0,0,1-.582.53h-.059Z" fill="#ffa500"/>
        </g>
        <g id="Group_2683" data-name="Group 2683">
          <path id="Path_25075" data-name="Path 25075" d="M63.5,37.008a.626.626,0,0,1-.23-.047.584.584,0,0,1-.188-.13.6.6,0,0,1-.13-.188.589.589,0,0,1-.041-.224.615.615,0,0,1,.041-.229.6.6,0,0,1,.13-.188.582.582,0,0,1,.529-.159.524.524,0,0,1,.112.029.548.548,0,0,1,.1.059.257.257,0,0,1,.089.071.515.515,0,0,1,.129.188.646.646,0,0,1,.047.229.6.6,0,0,1-.047.224.515.515,0,0,1-.129.188A.585.585,0,0,1,63.5,37.008Z" fill="#ffa500"/>
        </g>
      </g>
      <g id="Group_2700" data-name="Group 2700">
        <g id="Group_2685" data-name="Group 2685">
          <path id="Path_25076" data-name="Path 25076" d="M40.656,63.069a.576.576,0,0,1-.229-.042.5.5,0,0,1-.188-.129.526.526,0,0,1-.13-.188.6.6,0,0,1-.047-.224.646.646,0,0,1,.047-.229.509.509,0,0,1,.13-.188.583.583,0,0,1,.529-.159.769.769,0,0,1,.112.029c.035.018.07.035.1.053s.058.047.088.077a.591.591,0,0,1,.13.188.615.615,0,0,1,.041.229.589.589,0,0,1-.041.224.615.615,0,0,1-.13.188A.579.579,0,0,1,40.656,63.069Z" fill="#ffa500"/>
        </g>
        <g id="Group_2686" data-name="Group 2686">
          <path id="Path_25077" data-name="Path 25077" d="M42.463,61.992a.606.606,0,0,1-.548-.365.615.615,0,0,1-.041-.229.55.55,0,0,1,.17-.412.6.6,0,0,1,.642-.129.584.584,0,0,1,.188.129.521.521,0,0,1,.13.189.59.59,0,0,1,.047.223.6.6,0,0,1-.047.229.521.521,0,0,1-.13.189A.588.588,0,0,1,42.463,61.992Z" fill="#ffa500"/>
        </g>
        <g id="Group_2687" data-name="Group 2687">
          <path id="Path_25078" data-name="Path 25078" d="M40.662,61.057a.587.587,0,0,1-.223-.8h0a.589.589,0,0,1,.8-.224h0a.588.588,0,0,1,.223.8h0a.577.577,0,0,1-.512.3h0A.573.573,0,0,1,40.662,61.057Z" fill="#ffa500"/>
        </g>
        <g id="Group_2688" data-name="Group 2688">
          <path id="Path_25079" data-name="Path 25079" d="M39.444,60.28a.582.582,0,0,1-.547-.365.63.63,0,0,1,0-.447.746.746,0,0,1,.129-.194.587.587,0,0,1,.53-.158.372.372,0,0,1,.112.035.311.311,0,0,1,.1.053.564.564,0,0,1,.088.07.7.7,0,0,1,.129.194.616.616,0,0,1,0,.447.582.582,0,0,1-.129.195.612.612,0,0,1-.412.17Z" fill="#ffa500"/>
        </g>
        <g id="Group_2689" data-name="Group 2689">
          <path id="Path_25080" data-name="Path 25080" d="M40.727,57.833a.58.58,0,0,1-.288-.783h0v.007h0a.575.575,0,0,1,.776-.289h0a.59.59,0,0,1,.294.776h0a.589.589,0,0,1-.535.342h0A.586.586,0,0,1,40.727,57.833Z" fill="#ffa500"/>
        </g>
        <g id="Group_2690" data-name="Group 2690">
          <path id="Path_25081" data-name="Path 25081" d="M41.874,55.186a.589.589,0,0,1-.224-.041.526.526,0,0,1-.188-.13.574.574,0,0,1-.129-.641.514.514,0,0,1,.129-.189.573.573,0,0,1,.636-.129.559.559,0,0,1,.194.129.557.557,0,0,1,.171.418.583.583,0,0,1-.171.412.5.5,0,0,1-.194.13A.572.572,0,0,1,41.874,55.186Z" fill="#ffa500"/>
        </g>
        <g id="Group_2691" data-name="Group 2691">
          <path id="Path_25082" data-name="Path 25082" d="M39.691,53.262a.587.587,0,0,1,.042-.83h0a.594.594,0,0,1,.835.048h0a.592.592,0,0,1-.047.829h0a.593.593,0,0,1-.394.153h0A.586.586,0,0,1,39.691,53.262Zm-1.576-1.977v.006h0a.585.585,0,0,1,.141-.823h0a.586.586,0,0,1,.818.141h0a.587.587,0,0,1-.141.818h0a.566.566,0,0,1-.336.111h0A.578.578,0,0,1,38.115,51.285Zm-1.347-2.129h0a.588.588,0,0,1,.223-.8h0a.587.587,0,0,1,.8.223h0a.6.6,0,0,1-.223.806h0a.62.62,0,0,1-.289.07h0A.578.578,0,0,1,36.768,49.156ZM35.65,46.891a.587.587,0,0,1,.312-.771h0a.584.584,0,0,1,.77.306h0a.589.589,0,0,1-.306.777h0a.672.672,0,0,1-.235.046h0A.594.594,0,0,1,35.65,46.891Zm-.877-2.359a.6.6,0,0,1,.389-.742h0a.593.593,0,0,1,.735.389h0a.588.588,0,0,1-.382.735h0a.607.607,0,0,1-.177.029h0A.591.591,0,0,1,34.773,44.532ZM34.138,42.1a.58.58,0,0,1,.453-.694h0a.581.581,0,0,1,.694.453h0a.581.581,0,0,1-.453.694h0a.428.428,0,0,1-.123.012h0A.584.584,0,0,1,34.138,42.1Zm-.406-2.482a.59.59,0,0,1,.517-.654h0a.594.594,0,0,1,.654.518h0a.589.589,0,0,1-.518.653h0c-.023,0-.047.006-.071.006h0A.589.589,0,0,1,33.732,39.614Z" fill="#ffa500"/>
        </g>
        <g id="Group_2692" data-name="Group 2692">
          <path id="Path_25083" data-name="Path 25083" d="M34.15,37.672a.584.584,0,0,1-.23-.047.623.623,0,0,1-.317-.317.581.581,0,0,1-.048-.224.588.588,0,0,1,.177-.418.577.577,0,0,1,.829,0,.514.514,0,0,1,.13.188.606.606,0,0,1,.047.23.58.58,0,0,1-.047.224.513.513,0,0,1-.13.188.5.5,0,0,1-.187.129A.577.577,0,0,1,34.15,37.672Z" fill="#ffa500"/>
        </g>
        <g id="Group_2693" data-name="Group 2693">
          <path id="Path_25084" data-name="Path 25084" d="M33.879,61.4a.59.59,0,0,1,.618-.559h0a.6.6,0,0,1,.559.624h0a.594.594,0,0,1-.618.553h-.006A.588.588,0,0,1,33.879,61.4Zm-1.847.247h0a.594.594,0,0,1-.43-.718h0a.592.592,0,0,1,.718-.424h0a.585.585,0,0,1,.424.712h0a.591.591,0,0,1-.571.448h0A.619.619,0,0,1,32.032,61.651Zm-2.288-.788a.588.588,0,0,1-.3-.777h0a.583.583,0,0,1,.771-.3h0a.584.584,0,0,1,.306.771h0a.589.589,0,0,1-.541.353h0A.561.561,0,0,1,29.744,60.863ZM27.62,59.728a.586.586,0,0,1-.182-.813h0a.585.585,0,0,1,.811-.182h0a.585.585,0,0,1,.183.812h0a.592.592,0,0,1-.5.27h0A.6.6,0,0,1,27.62,59.728Zm-1.93-1.442h0a.587.587,0,0,1-.059-.829h0a.588.588,0,0,1,.83-.06h0a.588.588,0,0,1,.059.83h0a.574.574,0,0,1-.442.2h0A.6.6,0,0,1,25.69,58.286Zm-1.7-1.706a.588.588,0,0,1,.065-.83h0a.588.588,0,0,1,.829.065h0a.593.593,0,0,1-.059.83h0a.606.606,0,0,1-.388.141h0A.594.594,0,0,1,23.99,56.58Zm-1.436-1.918a.593.593,0,0,1,.171-.817h0a.589.589,0,0,1,.818.176h0a.584.584,0,0,1-.177.812h0a.563.563,0,0,1-.317.094h0A.59.59,0,0,1,22.554,54.662Zm-1.164-2.1a.587.587,0,0,1,.282-.783h0a.591.591,0,0,1,.782.283h0a.59.59,0,0,1-.287.782h0a.533.533,0,0,1-.248.059h0A.592.592,0,0,1,21.39,52.562Zm-.859-2.253a.587.587,0,0,1,.4-.729h0a.583.583,0,0,1,.729.4h0a.587.587,0,0,1-.4.73h0a.536.536,0,0,1-.165.024h0A.6.6,0,0,1,20.531,50.309Zm-.477-2.371a.589.589,0,0,1,.518-.653h0a.588.588,0,0,1,.653.523h0a.6.6,0,0,1-.523.648h-.065A.587.587,0,0,1,20.054,47.938Zm.5-1.8a.588.588,0,0,1-.535-.636h0a.589.589,0,0,1,.641-.535h0a.583.583,0,0,1,.53.635h0a.589.589,0,0,1-.583.541h0C20.59,46.143,20.572,46.138,20.554,46.138Zm.324-2.294A.592.592,0,0,1,20.5,43.1h0a.581.581,0,0,1,.735-.382h0a.588.588,0,0,1,.382.741h0a.592.592,0,0,1-.559.406h0A.668.668,0,0,1,20.878,43.844Zm.841-2.166a.585.585,0,0,1-.194-.811h0a.585.585,0,0,1,.806-.195h0a.591.591,0,0,1,.194.812h0a.58.58,0,0,1-.5.283h0A.567.567,0,0,1,21.719,41.678Zm1.33-1.9a.586.586,0,0,1,.006-.835h0a.579.579,0,0,1,.829.006h0a.584.584,0,0,1,0,.829h0a.584.584,0,0,1-.417.171h0A.589.589,0,0,1,23.049,39.778Zm1.735-1.541a.588.588,0,0,1,.183-.812h0a.582.582,0,0,1,.811.182h0a.585.585,0,0,1-.182.812h0a.6.6,0,0,1-.312.089h0A.593.593,0,0,1,24.784,38.237ZM26.8,37.09a.593.593,0,0,1,.353-.759v.006a.581.581,0,0,1,.753.347h0a.586.586,0,0,1-.347.753h0a.675.675,0,0,1-.206.035h0A.59.59,0,0,1,26.8,37.09Zm5.03-.082h0a.591.591,0,0,1-.488-.677h0a.586.586,0,0,1,.676-.488h0a.586.586,0,0,1,.482.676h0a.586.586,0,0,1-.576.494h0C31.891,37.013,31.861,37.008,31.832,37.008Zm-2.806-.589a.581.581,0,0,1,.523-.647h0a.588.588,0,0,1,.647.524h0a.588.588,0,0,1-.523.647h-.059A.587.587,0,0,1,29.026,36.419Z" fill="#ffa500"/>
        </g>
        <g id="Group_2694" data-name="Group 2694">
          <path id="Path_25085" data-name="Path 25085" d="M36.8,61.851a.6.6,0,0,1-.224-.047.7.7,0,0,1-.194-.124.55.55,0,0,1-.123-.194.555.555,0,0,1,0-.447.685.685,0,0,1,.123-.194.7.7,0,0,1,.194-.124.555.555,0,0,1,.336-.035.385.385,0,0,1,.112.035.356.356,0,0,1,.1.053.616.616,0,0,1,.088.071.583.583,0,0,1,0,.835A.559.559,0,0,1,36.8,61.851Z" fill="#ffa500"/>
        </g>
        <g id="Group_2695" data-name="Group 2695">
          <path id="Path_25086" data-name="Path 25086" d="M36.738,63.645a.581.581,0,0,1-.57-.6h0a.591.591,0,0,1,.6-.577h0a.591.591,0,0,1,.576.6h0a.591.591,0,0,1-.588.576h-.018Z" fill="#ffa500"/>
        </g>
        <g id="Group_2696" data-name="Group 2696">
          <path id="Path_25087" data-name="Path 25087" d="M36.709,65.44a.559.559,0,0,1-.412-.171.575.575,0,0,1-.129-.642.574.574,0,0,1,.129-.193.347.347,0,0,1,.088-.071.626.626,0,0,1,.212-.088.567.567,0,0,1,.341.035.574.574,0,0,1,.189.124.7.7,0,0,1,.129.193.609.609,0,0,1-.129.642A.584.584,0,0,1,36.709,65.44Z" fill="#ffa500"/>
        </g>
        <g id="Group_2697" data-name="Group 2697">
          <path id="Path_25088" data-name="Path 25088" d="M38.556,64.328a.615.615,0,0,1-.229-.041.521.521,0,0,1-.189-.13.562.562,0,0,1-.17-.412.637.637,0,0,1,.041-.229.617.617,0,0,1,.318-.318.564.564,0,0,1,.341-.029.691.691,0,0,1,.111.029.573.573,0,0,1,.1.059.376.376,0,0,1,.095.07.6.6,0,0,1,.123.189.646.646,0,0,1,.047.229.612.612,0,0,1-.17.412A.583.583,0,0,1,38.556,64.328Z" fill="#ffa500"/>
        </g>
        <g id="Group_2698" data-name="Group 2698">
          <path id="Path_25089" data-name="Path 25089" d="M41.88,79.847h-.006a.593.593,0,0,1-.3-.777h0a.6.6,0,0,1,.777-.3h0a.591.591,0,0,1,.3.777h0a.589.589,0,0,1-.535.352h0A.551.551,0,0,1,41.88,79.847Zm1.9-.971a.587.587,0,0,1-.536-.635h0v-.006h0a.589.589,0,0,1,.642-.53h0a.582.582,0,0,1,.529.636h0a.583.583,0,0,1-.582.535H43.78Zm-2.365-1.018a.591.591,0,0,1-.559-.617h0a.588.588,0,0,1,.624-.559h0a.585.585,0,0,1,.553.617h0a.588.588,0,0,1-.588.559h-.03Zm2.524-1.318a.585.585,0,0,1-.588-.588h0a.581.581,0,0,1,.588-.582h0a.586.586,0,0,1,.588.588h0a.58.58,0,0,1-.588.582Zm-3.053-1.588a.585.585,0,0,1,.564-.606h0a.588.588,0,0,1,.612.571h0a.594.594,0,0,1-.57.606h-.018A.586.586,0,0,1,40.886,74.952Zm2.388-1.294a.588.588,0,0,1,.547-.624h0a.584.584,0,0,1,.624.548h.006a.587.587,0,0,1-.548.623h0a.093.093,0,0,1-.04.006h0A.6.6,0,0,1,43.274,73.658Zm-2.553-.988a.592.592,0,0,1,.518-.653h0a.594.594,0,0,1,.653.523h0a.589.589,0,0,1-.524.648h0a.26.26,0,0,1-.065,0h0A.586.586,0,0,1,40.721,72.67Zm2.312-1.289a.577.577,0,0,1,.494-.664h0a.592.592,0,0,1,.671.494h0a.6.6,0,0,1-.5.67h0c-.03,0-.059.006-.089.006h0A.587.587,0,0,1,43.033,71.381ZM40.374,70.4a.583.583,0,0,1,.464-.689h0a.584.584,0,0,1,.689.465h0a.583.583,0,0,1-.465.688h0a.7.7,0,0,1-.112.012h0A.585.585,0,0,1,40.374,70.4Zm2.241-1.277a.582.582,0,0,1,.442-.7h0a.587.587,0,0,1,.706.441h0a.6.6,0,0,1-.448.706h0a.857.857,0,0,1-.129.012h0A.584.584,0,0,1,42.615,69.128Zm-2.782-.935a.58.58,0,0,1,.4-.73h0a.586.586,0,0,1,.729.394h0a.59.59,0,0,1-.4.73h0a.531.531,0,0,1-.165.029h0A.6.6,0,0,1,39.833,68.193Zm2.176-1.265a.587.587,0,0,1,.383-.741h0a.591.591,0,0,1,.741.376h0a.588.588,0,0,1-.383.742h0a.629.629,0,0,1-.176.029h0A.593.593,0,0,1,42.009,66.928Zm-2.941-.876.006,0a.591.591,0,0,1,.312-.776h0a.6.6,0,0,1,.77.312h0a.6.6,0,0,1-.311.776h0a.634.634,0,0,1-.23.047h0A.608.608,0,0,1,39.068,66.052ZM41.2,64.8h0a.584.584,0,0,1,.294-.776h0a.584.584,0,0,1,.777.294h0a.585.585,0,0,1-.294.777h0a.578.578,0,0,1-.241.052h0A.583.583,0,0,1,41.2,64.8Z" fill="#ffa500"/>
        </g>
        <g id="Group_2699" data-name="Group 2699">
          <path id="Path_25090" data-name="Path 25090" d="M40.656,63.069a.576.576,0,0,1-.229-.042.5.5,0,0,1-.188-.129.526.526,0,0,1-.13-.188.6.6,0,0,1-.047-.224.646.646,0,0,1,.047-.229.509.509,0,0,1,.13-.188.583.583,0,0,1,.529-.159.769.769,0,0,1,.112.029c.035.018.07.035.1.053s.058.047.088.077a.591.591,0,0,1,.13.188.615.615,0,0,1,.041.229.589.589,0,0,1-.041.224.615.615,0,0,1-.13.188A.579.579,0,0,1,40.656,63.069Z" fill="#ffa500"/>
        </g>
      </g>
      <g id="Group_2721" data-name="Group 2721">
        <g id="Group_2701" data-name="Group 2701">
          <path id="Path_25091" data-name="Path 25091" d="M73.959,29.771a.566.566,0,0,1-.223-.041.592.592,0,0,1-.195-.129.507.507,0,0,1-.123-.188.583.583,0,0,1,.123-.641,1,1,0,0,1,.089-.077l.106-.053c.035-.012.07-.024.112-.035a.6.6,0,0,1,.529.165.593.593,0,0,1,0,.829A.582.582,0,0,1,73.959,29.771Z" fill="#ffa500"/>
        </g>
        <g id="Group_2702" data-name="Group 2702">
          <path id="Path_25092" data-name="Path 25092" d="M71.924,29.2a.589.589,0,0,1,.582-.594h0a.593.593,0,0,1,.594.582h0a.586.586,0,0,1-.582.594h-.012A.583.583,0,0,1,71.924,29.2Z" fill="#ffa500"/>
        </g>
        <g id="Group_2703" data-name="Group 2703">
          <path id="Path_25093" data-name="Path 25093" d="M71.065,29.8a.594.594,0,0,1-.229-.041.586.586,0,0,1-.189-.13.515.515,0,0,1-.129-.188.6.6,0,0,1-.047-.23.577.577,0,0,1,.176-.411.6.6,0,0,1,.83,0,.386.386,0,0,1,.076.088c.018.029.036.065.053.1s.024.076.036.112a.834.834,0,0,1,.011.111.58.58,0,0,1-.047.23.5.5,0,0,1-.129.188A.579.579,0,0,1,71.065,29.8Z" fill="#ffa500"/>
        </g>
        <g id="Group_2704" data-name="Group 2704">
          <path id="Path_25094" data-name="Path 25094" d="M71.371,30.742a.594.594,0,0,1,.165-.817h0a.593.593,0,0,1,.817.164h0a.594.594,0,0,1-.165.818h0a.592.592,0,0,1-.323.094h0A.59.59,0,0,1,71.371,30.742Z" fill="#ffa500"/>
        </g>
        <g id="Group_2705" data-name="Group 2705">
          <path id="Path_25095" data-name="Path 25095" d="M72.665,32.207a.579.579,0,0,1-.417-.171.555.555,0,0,1-.171-.411.583.583,0,0,1,.7-.577.811.811,0,0,1,.112.03.58.58,0,0,1,.1.058.268.268,0,0,1,.088.071,1.01,1.01,0,0,1,.077.088c.017.035.035.065.053.1s.023.077.035.112a.924.924,0,0,1,.012.118.594.594,0,0,1-.047.223.509.509,0,0,1-.13.188.526.526,0,0,1-.188.13A.589.589,0,0,1,72.665,32.207Z" fill="#ffa500"/>
        </g>
        <g id="Group_2706" data-name="Group 2706">
          <path id="Path_25096" data-name="Path 25096" d="M72.047,33.566a.593.593,0,0,1-.382-.741h0a.583.583,0,0,1,.735-.383h0a.592.592,0,0,1,.389.735h0a.591.591,0,0,1-.565.412h0A.6.6,0,0,1,72.047,33.566Z" fill="#ffa500"/>
        </g>
        <g id="Group_2707" data-name="Group 2707">
          <path id="Path_25097" data-name="Path 25097" d="M71.789,34.972a.612.612,0,0,1-.412-.17.611.611,0,0,1-.13-.195.59.59,0,0,1-.047-.223.592.592,0,0,1,.706-.577.481.481,0,0,1,.112.036.491.491,0,0,1,.1.053.793.793,0,0,1,.088.07.573.573,0,0,1,.171.418.584.584,0,0,1-.041.223.73.73,0,0,1-.13.195A.585.585,0,0,1,71.789,34.972Z" fill="#ffa500"/>
        </g>
        <g id="Group_2708" data-name="Group 2708">
          <path id="Path_25098" data-name="Path 25098" d="M72.618,34.154a.581.581,0,0,1,.406-.723h0a.585.585,0,0,1,.729.4h0a.585.585,0,0,1-.411.724h0a.488.488,0,0,1-.159.024h0A.59.59,0,0,1,72.618,34.154Z" fill="#ffa500"/>
        </g>
        <g id="Group_2709" data-name="Group 2709">
          <path id="Path_25099" data-name="Path 25099" d="M74.583,34.195a.579.579,0,0,1-.229-.047.62.62,0,0,1-.318-.317.555.555,0,0,1,0-.447.473.473,0,0,1,.129-.194.58.58,0,0,1,.529-.16c.036.007.071.018.113.03a.737.737,0,0,1,.1.059A.433.433,0,0,1,75,33.19a.541.541,0,0,1,.129.194.616.616,0,0,1,0,.447.6.6,0,0,1-.129.188A.56.56,0,0,1,74.583,34.195Z" fill="#ffa500"/>
        </g>
        <g id="Group_2710" data-name="Group 2710">
          <path id="Path_25100" data-name="Path 25100" d="M75.418,34.925a.58.58,0,0,1-.135-.818h0a.58.58,0,0,1,.818-.135h0a.58.58,0,0,1,.135.818h0a.585.585,0,0,1-.476.247h0A.575.575,0,0,1,75.418,34.925Z" fill="#ffa500"/>
        </g>
        <g id="Group_2711" data-name="Group 2711">
          <path id="Path_25101" data-name="Path 25101" d="M76.942,35.878a.621.621,0,0,1-.229-.047.605.605,0,0,1-.189-.123.7.7,0,0,1-.129-.195.63.63,0,0,1,0-.447.862.862,0,0,1,.129-.194.906.906,0,0,1,.089-.07.392.392,0,0,1,.1-.054.432.432,0,0,1,.111-.035.586.586,0,0,1,.53.159.6.6,0,0,1,.129.194.555.555,0,0,1,0,.447.565.565,0,0,1-.318.318A.59.59,0,0,1,76.942,35.878Z" fill="#ffa500"/>
        </g>
        <g id="Group_2712" data-name="Group 2712">
          <path id="Path_25102" data-name="Path 25102" d="M76.978,34.431a.594.594,0,0,1-.565-.612h0a.593.593,0,0,1,.612-.565h0a.59.59,0,0,1,.564.612h0a.59.59,0,0,1-.588.565h-.023Z" fill="#ffa500"/>
        </g>
        <g id="Group_2713" data-name="Group 2713">
          <path id="Path_25103" data-name="Path 25103" d="M77.065,32.983a.582.582,0,0,1-.588-.588.593.593,0,0,1,.171-.418.58.58,0,0,1,.529-.158.427.427,0,0,1,.112.035.331.331,0,0,1,.1.053.467.467,0,0,1,.088.07.5.5,0,0,1,.13.2l.035.106a.764.764,0,0,1,.006.117.589.589,0,0,1-.041.224.607.607,0,0,1-.13.194A.578.578,0,0,1,77.065,32.983Z" fill="#ffa500"/>
        </g>
        <g id="Group_2714" data-name="Group 2714">
          <path id="Path_25104" data-name="Path 25104" d="M77.754,31.884a.592.592,0,0,1,.123-.824h0a.591.591,0,0,1,.824.123h0a.591.591,0,0,1-.123.824h0a.6.6,0,0,1-.347.117h0A.588.588,0,0,1,77.754,31.884Z" fill="#ffa500"/>
        </g>
        <g id="Group_2715" data-name="Group 2715">
          <path id="Path_25105" data-name="Path 25105" d="M79.389,31.266a.573.573,0,0,1-.223-.048.506.506,0,0,1-.189-.129.523.523,0,0,1-.129-.188.6.6,0,0,1-.047-.23.7.7,0,0,1,.012-.111.762.762,0,0,1,.035-.112c.018-.035.035-.071.053-.1a.586.586,0,0,1,.076-.088.375.375,0,0,1,.089-.077c.029-.017.064-.035.1-.053l.111-.035a.592.592,0,0,1,.53.165.534.534,0,0,1,.076.088c.018.029.036.065.053.1a.742.742,0,0,1,.03.112.357.357,0,0,1,.017.111.58.58,0,0,1-.047.23.6.6,0,0,1-.129.188.511.511,0,0,1-.188.129A.611.611,0,0,1,79.389,31.266Z" fill="#ffa500"/>
        </g>
        <g id="Group_2716" data-name="Group 2716">
          <path id="Path_25106" data-name="Path 25106" d="M77.83,30.719a.587.587,0,0,1-.347-.754h0a.592.592,0,0,1,.759-.347h0a.584.584,0,0,1,.341.754h0a.581.581,0,0,1-.552.382h0A.616.616,0,0,1,77.83,30.719Z" fill="#ffa500"/>
        </g>
        <g id="Group_2717" data-name="Group 2717">
          <path id="Path_25107" data-name="Path 25107" d="M76.677,30.254a.59.59,0,0,1-.223-.047.517.517,0,0,1-.188-.13.5.5,0,0,1-.13-.188.6.6,0,0,1-.047-.229.575.575,0,0,1,.177-.412.586.586,0,1,1,.829.829.492.492,0,0,1-.194.13A.6.6,0,0,1,76.677,30.254Z" fill="#ffa500"/>
        </g>
        <g id="Group_2718" data-name="Group 2718">
          <path id="Path_25108" data-name="Path 25108" d="M75.66,28.477a.592.592,0,0,1,.376-.747h0a.588.588,0,0,1,.741.371h0a.589.589,0,0,1-.371.747h0a.714.714,0,0,1-.187.029h0A.586.586,0,0,1,75.66,28.477Z" fill="#ffa500"/>
        </g>
        <g id="Group_2719" data-name="Group 2719">
          <path id="Path_25109" data-name="Path 25109" d="M75.76,27.507a.578.578,0,0,1-.224-.048.5.5,0,0,1-.188-.129.526.526,0,0,1-.13-.188.6.6,0,0,1-.047-.224.592.592,0,0,1,.706-.576.769.769,0,0,1,.112.029.615.615,0,0,1,.188.13.582.582,0,0,1,.171.417.589.589,0,0,1-.041.224.614.614,0,0,1-.13.188.511.511,0,0,1-.188.129A.606.606,0,0,1,75.76,27.507Z" fill="#ffa500"/>
        </g>
        <g id="Group_2720" data-name="Group 2720">
          <path id="Path_25110" data-name="Path 25110" d="M74.5,28.512a.589.589,0,0,1-.1-.829v.006a.584.584,0,0,1,.824-.1h0a.589.589,0,0,1,.094.829h0a.571.571,0,0,1-.459.224h0A.561.561,0,0,1,74.5,28.512Z" fill="#ffa500"/>
        </g>
      </g>
      <g id="Group_2742" data-name="Group 2742">
        <g id="Group_2722" data-name="Group 2722">
          <path id="Path_25111" data-name="Path 25111" d="M26.9,67.352a.581.581,0,0,1-.411-.177.505.505,0,0,1-.13-.188.577.577,0,0,1-.047-.224.6.6,0,0,1,.047-.229.505.505,0,0,1,.13-.188.567.567,0,0,1,.187-.13.67.67,0,0,1,.342-.035l.112.035c.035.018.07.036.1.053a.989.989,0,0,1,.088.077.584.584,0,0,1,.129.188.621.621,0,0,1,.047.229.577.577,0,0,1-.047.224.584.584,0,0,1-.129.188.526.526,0,0,1-.188.13A.6.6,0,0,1,26.9,67.352Z" fill="#ffa500"/>
        </g>
        <g id="Group_2723" data-name="Group 2723">
          <path id="Path_25112" data-name="Path 25112" d="M24.86,66.775a.6.6,0,0,1,.589-.594h0a.585.585,0,0,1,.588.588h0a.581.581,0,0,1-.582.588h-.006A.59.59,0,0,1,24.86,66.775Z" fill="#ffa500"/>
        </g>
        <g id="Group_2724" data-name="Group 2724">
          <path id="Path_25113" data-name="Path 25113" d="M24,67.375a.6.6,0,0,1-.224-.047.581.581,0,0,1-.194-.13.6.6,0,0,1-.171-.417.852.852,0,0,1,.012-.112.452.452,0,0,1,.035-.112.356.356,0,0,1,.053-.1.564.564,0,0,1,.071-.088.578.578,0,0,1,.194-.129.617.617,0,0,1,.341-.036l.112.036a.956.956,0,0,1,.1.052.881.881,0,0,1,.088.077.582.582,0,0,1,.13.188.685.685,0,0,1,.029.112.357.357,0,0,1,.012.112.579.579,0,0,1-.171.417.505.505,0,0,1-.188.13A.6.6,0,0,1,24,67.375Z" fill="#ffa500"/>
        </g>
        <g id="Group_2725" data-name="Group 2725">
          <path id="Path_25114" data-name="Path 25114" d="M24.313,68.316a.6.6,0,0,1,.165-.817h0a.594.594,0,0,1,.818.164h0a.594.594,0,0,1-.165.818h0a.608.608,0,0,1-.323.1h0A.589.589,0,0,1,24.313,68.316Z" fill="#ffa500"/>
        </g>
        <g id="Group_2726" data-name="Group 2726">
          <path id="Path_25115" data-name="Path 25115" d="M25.6,69.787a.59.59,0,0,1-.223-.047.518.518,0,0,1-.189-.129.506.506,0,0,1-.129-.189.572.572,0,0,1-.047-.223.621.621,0,0,1,.047-.229.506.506,0,0,1,.129-.189.565.565,0,0,1,.529-.159.741.741,0,0,1,.112.03.544.544,0,0,1,.1.058.5.5,0,0,1,.089.071.588.588,0,0,1,.129.189.633.633,0,0,1,.041.229.565.565,0,0,1-.17.412A.591.591,0,0,1,25.6,69.787Z" fill="#ffa500"/>
        </g>
        <g id="Group_2727" data-name="Group 2727">
          <path id="Path_25116" data-name="Path 25116" d="M24.99,71.14a.592.592,0,0,1-.382-.741h0a.588.588,0,0,1,.735-.383h0a.6.6,0,0,1,.388.742h0a.6.6,0,0,1-.564.411h0A.607.607,0,0,1,24.99,71.14Z" fill="#ffa500"/>
        </g>
        <g id="Group_2728" data-name="Group 2728">
          <path id="Path_25117" data-name="Path 25117" d="M24.731,72.552a.613.613,0,0,1-.418-.176.586.586,0,0,1-.17-.418.6.6,0,0,1,.17-.412.611.611,0,0,1,.195-.13.6.6,0,0,1,.447,0,.5.5,0,0,1,.194.13.593.593,0,0,1,.17.412.582.582,0,0,1-.17.418.7.7,0,0,1-.194.129A.6.6,0,0,1,24.731,72.552Z" fill="#ffa500"/>
        </g>
        <g id="Group_2729" data-name="Group 2729">
          <path id="Path_25118" data-name="Path 25118" d="M25.561,71.728A.582.582,0,0,1,25.967,71h0a.59.59,0,0,1,.729.406h0a.591.591,0,0,1-.411.723h0a.5.5,0,0,1-.16.024h0A.583.583,0,0,1,25.561,71.728Z" fill="#ffa500"/>
        </g>
        <g id="Group_2730" data-name="Group 2730">
          <path id="Path_25119" data-name="Path 25119" d="M27.52,71.77a.605.605,0,0,1-.589-.589.577.577,0,0,1,.048-.223.8.8,0,0,1,.052-.106,1.032,1.032,0,0,1,.077-.088.6.6,0,0,1,.188-.124.349.349,0,0,1,.112-.035.562.562,0,0,1,.341.035.575.575,0,0,1,.188.124.882.882,0,0,1,.077.088l.053.106a.63.63,0,0,1,0,.447.6.6,0,0,1-.13.188.509.509,0,0,1-.188.13A.621.621,0,0,1,27.52,71.77Z" fill="#ffa500"/>
        </g>
        <g id="Group_2731" data-name="Group 2731">
          <path id="Path_25120" data-name="Path 25120" d="M28.361,72.5a.586.586,0,0,1-.141-.818h0a.592.592,0,0,1,.823-.135h0a.585.585,0,0,1,.136.818h0a.57.57,0,0,1-.477.247h0A.56.56,0,0,1,28.361,72.5Z" fill="#ffa500"/>
        </g>
        <g id="Group_2732" data-name="Group 2732">
          <path id="Path_25121" data-name="Path 25121" d="M29.879,73.458a.6.6,0,0,1-.589-.588.647.647,0,0,1,.047-.23.586.586,0,0,1,.124-.188.725.725,0,0,1,.194-.13.6.6,0,0,1,.447,0,.492.492,0,0,1,.194.13.57.57,0,0,1,.124.188.539.539,0,0,1,.047.23.5.5,0,0,1-.047.223.5.5,0,0,1-.124.188A.584.584,0,0,1,29.879,73.458Z" fill="#ffa500"/>
        </g>
        <g id="Group_2733" data-name="Group 2733">
          <path id="Path_25122" data-name="Path 25122" d="M29.914,72a.581.581,0,0,1-.559-.612h0a.583.583,0,0,1,.612-.559h0a.591.591,0,0,1,.565.612h0a.6.6,0,0,1-.588.565h0A.054.054,0,0,1,29.914,72Z" fill="#ffa500"/>
        </g>
        <g id="Group_2734" data-name="Group 2734">
          <path id="Path_25123" data-name="Path 25123" d="M30,70.557a.561.561,0,0,1-.412-.17.591.591,0,0,1-.176-.418.575.575,0,0,1,.176-.411.586.586,0,0,1,.189-.13.6.6,0,0,1,.453,0,.582.582,0,0,1,.188.13.6.6,0,0,1,.13.188.578.578,0,0,1-.13.641A.582.582,0,0,1,30,70.557Z" fill="#ffa500"/>
        </g>
        <g id="Group_2735" data-name="Group 2735">
          <path id="Path_25124" data-name="Path 25124" d="M30.7,69.457a.59.59,0,0,1,.123-.823h0a.593.593,0,0,1,.824.129h0a.6.6,0,0,1-.124.824h0a.6.6,0,0,1-.353.112h0A.576.576,0,0,1,30.7,69.457Z" fill="#ffa500"/>
        </g>
        <g id="Group_2736" data-name="Group 2736">
          <path id="Path_25125" data-name="Path 25125" d="M32.332,68.84a.6.6,0,0,1-.224-.047.607.607,0,0,1-.194-.13.612.612,0,0,1-.17-.412.575.575,0,0,1,.047-.223.6.6,0,0,1,.123-.194.552.552,0,0,1,.094-.071.626.626,0,0,1,.212-.088.5.5,0,0,1,.23,0,.361.361,0,0,1,.1.035.483.483,0,0,1,.107.053.9.9,0,0,1,.087.071.607.607,0,0,1,.124.194.484.484,0,0,1,.047.223.568.568,0,0,1-.041.224.6.6,0,0,1-.13.188A.584.584,0,0,1,32.332,68.84Z" fill="#ffa500"/>
        </g>
        <g id="Group_2737" data-name="Group 2737">
          <path id="Path_25126" data-name="Path 25126" d="M30.767,68.3a.6.6,0,0,1-.347-.759h0a.592.592,0,0,1,.759-.347h0a.59.59,0,0,1,.347.759h0a.59.59,0,0,1-.553.382h0A.675.675,0,0,1,30.767,68.3Z" fill="#ffa500"/>
        </g>
        <g id="Group_2738" data-name="Group 2738">
          <path id="Path_25127" data-name="Path 25127" d="M29.62,67.828a.6.6,0,0,1-.23-.047.523.523,0,0,1-.188-.129.566.566,0,0,1-.129-.636.559.559,0,0,1,.129-.194.713.713,0,0,1,.188-.129.61.61,0,0,1,.342-.03.81.81,0,0,1,.112.03.58.58,0,0,1,.1.058.264.264,0,0,1,.087.071.561.561,0,0,1,.13.194.63.63,0,0,1,0,.447.509.509,0,0,1-.13.189A.564.564,0,0,1,29.62,67.828Z" fill="#ffa500"/>
        </g>
        <g id="Group_2739" data-name="Group 2739">
          <path id="Path_25128" data-name="Path 25128" d="M28.6,66.052a.579.579,0,0,1,.371-.742h0a.587.587,0,0,1,.747.371h0a.587.587,0,0,1-.377.741h0a.48.48,0,0,1-.182.03h0A.586.586,0,0,1,28.6,66.052Z" fill="#ffa500"/>
        </g>
        <g id="Group_2740" data-name="Group 2740">
          <path id="Path_25129" data-name="Path 25129" d="M28.7,65.081a.646.646,0,0,1-.229-.047.521.521,0,0,1-.189-.13.562.562,0,0,1-.17-.412.588.588,0,0,1,.041-.223.677.677,0,0,1,.129-.194.6.6,0,0,1,.642-.129.713.713,0,0,1,.188.129.487.487,0,0,1,.129.194.575.575,0,0,1,.047.223.564.564,0,0,1-.176.412A.585.585,0,0,1,28.7,65.081Z" fill="#ffa500"/>
        </g>
        <g id="Group_2741" data-name="Group 2741">
          <path id="Path_25130" data-name="Path 25130" d="M27.431,66.087a.59.59,0,0,1-.094-.824h0a.585.585,0,0,1,.83-.094h0a.587.587,0,0,1,.094.823h0a.587.587,0,0,1-.459.224h0A.6.6,0,0,1,27.431,66.087Z" fill="#ffa500"/>
        </g>
      </g>
      <g id="Group_2746" data-name="Group 2746">
        <g id="Group_2743" data-name="Group 2743">
          <path id="Path_25131" data-name="Path 25131" d="M27.9,25.112a.572.572,0,0,1-.223-.047.592.592,0,0,1-.195-.129.562.562,0,0,1-.17-.412.652.652,0,0,1,.047-.23.6.6,0,0,1,.123-.188.7.7,0,0,1,.195-.129.6.6,0,0,1,.641.129.619.619,0,0,1,.17.418.618.618,0,0,1-.17.412.588.588,0,0,1-.194.129A.58.58,0,0,1,27.9,25.112Z" fill="#ffa500"/>
        </g>
        <g id="Group_2744" data-name="Group 2744">
          <path id="Path_25132" data-name="Path 25132" d="M30.614,28.465a.589.589,0,0,1-.476-.682h0a.579.579,0,0,1,.682-.476h0a.589.589,0,0,1,.477.682h0a.592.592,0,0,1-.583.482h0A.6.6,0,0,1,30.614,28.465Zm1.888-.688a.6.6,0,0,1,.218-.806h0a.6.6,0,0,1,.806.218h0a.594.594,0,0,1-.218.806h0a.592.592,0,0,1-.294.076h0A.6.6,0,0,1,32.5,27.777Zm-4.259-.682h0a.589.589,0,0,1,.077-.83h0a.593.593,0,0,1,.829.071h0a.587.587,0,0,1-.076.829h0a.564.564,0,0,1-.377.142h0A.592.592,0,0,1,28.243,27.095Zm6.077-.841a.583.583,0,0,1-.347-.754h0a.58.58,0,0,1,.753-.347h0a.584.584,0,0,1,.347.754h0a.6.6,0,0,1-.552.388h0A.5.5,0,0,1,34.32,26.254Zm-.341-2.683a.584.584,0,0,1,.353-.753h0a.587.587,0,0,1,.753.353h0a.587.587,0,0,1-.353.753h0a.606.606,0,0,1-.2.035h0A.6.6,0,0,1,33.979,23.571Zm-5.647-.818a.587.587,0,0,1-.059-.829h0a.581.581,0,0,1,.829-.065h0a.585.585,0,0,1,.059.823h0a.555.555,0,0,1-.447.207h0A.587.587,0,0,1,28.332,22.753Zm4.412-.67a.593.593,0,0,1-.212-.806h0a.6.6,0,0,1,.806-.212h0a.589.589,0,0,1,.212.806h0a.593.593,0,0,1-.512.294h0A.6.6,0,0,1,32.744,22.083Zm-2.577-.83a.588.588,0,0,1,.483-.677h0a.58.58,0,0,1,.676.477h0a.59.59,0,0,1-.482.683h0a.6.6,0,0,1-.094,0h0A.593.593,0,0,1,30.167,21.253Z" fill="#ffa500"/>
        </g>
        <g id="Group_2745" data-name="Group 2745">
          <path id="Path_25133" data-name="Path 25133" d="M27.9,25.112a.572.572,0,0,1-.223-.047.592.592,0,0,1-.195-.129.562.562,0,0,1-.17-.412.652.652,0,0,1,.047-.23.6.6,0,0,1,.123-.188.7.7,0,0,1,.195-.129.6.6,0,0,1,.641.129.619.619,0,0,1,.17.418.618.618,0,0,1-.17.412.588.588,0,0,1-.194.129A.58.58,0,0,1,27.9,25.112Z" fill="#ffa500"/>
        </g>
      </g>
      <g id="Group_2750" data-name="Group 2750">
        <g id="Group_2747" data-name="Group 2747">
          <path id="Path_25134" data-name="Path 25134" d="M22.99,32.783a.589.589,0,0,1-.224-.04.615.615,0,0,1-.188-.13.524.524,0,0,1-.129-.194.58.58,0,0,1-.047-.224.6.6,0,0,1,.176-.418.563.563,0,0,1,.088-.07.332.332,0,0,1,.1-.053.376.376,0,0,1,.112-.035.5.5,0,0,1,.23,0,.393.393,0,0,1,.1.035.444.444,0,0,1,.107.053l.087.07a.62.62,0,0,1,.171.418.488.488,0,0,1-.047.224.524.524,0,0,1-.124.194A.578.578,0,0,1,22.99,32.783Z" fill="#ffa500"/>
        </g>
        <g id="Group_2748" data-name="Group 2748">
          <path id="Path_25135" data-name="Path 25135" d="M25.414,34.719a.591.591,0,0,1,.447-.706h-.006a.593.593,0,0,1,.706.447h0a.585.585,0,0,1-.441.7h-.006a.443.443,0,0,1-.124.018h0A.59.59,0,0,1,25.414,34.719Zm-1.865-.147h0a.582.582,0,0,1-.089-.823h0a.577.577,0,0,1,.824-.1h0a.6.6,0,0,1,.094.83h0a.6.6,0,0,1-.459.218h0A.592.592,0,0,1,23.549,34.572ZM27.4,33.8a.592.592,0,0,1-.276-.789h0v.006h0a.591.591,0,0,1,.788-.277h0a.59.59,0,0,1,.271.789h0a.582.582,0,0,1-.53.329h0A.583.583,0,0,1,27.4,33.8Zm-.27-2.4a.59.59,0,0,1,.282-.782h0a.584.584,0,0,1,.782.276h0a.584.584,0,0,1-.276.783h0a.569.569,0,0,1-.253.058h0A.593.593,0,0,1,27.126,31.4Zm-3.659-.765a.586.586,0,0,1,.1-.823h0a.589.589,0,0,1,.829.1h0a.589.589,0,0,1-.1.824h0a.578.578,0,0,1-.365.129h0A.594.594,0,0,1,23.467,30.63Zm2.406-.247a.594.594,0,0,1-.442-.7h0a.59.59,0,0,1,.707-.442h0a.592.592,0,0,1,.441.706h0a.59.59,0,0,1-.571.453h0A.928.928,0,0,1,25.873,30.383Z" fill="#ffa500"/>
        </g>
        <g id="Group_2749" data-name="Group 2749">
          <path id="Path_25136" data-name="Path 25136" d="M22.99,32.783a.589.589,0,0,1-.224-.04.615.615,0,0,1-.188-.13.524.524,0,0,1-.129-.194.58.58,0,0,1-.047-.224.6.6,0,0,1,.176-.418.563.563,0,0,1,.088-.07.332.332,0,0,1,.1-.053.376.376,0,0,1,.112-.035.5.5,0,0,1,.23,0,.393.393,0,0,1,.1.035.444.444,0,0,1,.107.053l.087.07a.62.62,0,0,1,.171.418.488.488,0,0,1-.047.224.524.524,0,0,1-.124.194A.578.578,0,0,1,22.99,32.783Z" fill="#ffa500"/>
        </g>
      </g>
      <g id="Group_2754" data-name="Group 2754">
        <g id="Group_2751" data-name="Group 2751">
          <path id="Path_25137" data-name="Path 25137" d="M65.57,23.624a.59.59,0,0,1-.417-.171.53.53,0,0,1-.124-.194.555.555,0,0,1,0-.447.681.681,0,0,1,.124-.194.615.615,0,0,1,.835,0,.677.677,0,0,1,.123.194.574.574,0,0,1,.048.224.584.584,0,0,1-.589.588Z" fill="#ffa500"/>
        </g>
        <g id="Group_2752" data-name="Group 2752">
          <path id="Path_25138" data-name="Path 25138" d="M67.994,25.553a.586.586,0,0,1,.441-.7h0a.589.589,0,0,1,.706.442h0a.592.592,0,0,1-.447.706h0a.489.489,0,0,1-.129.011h0A.583.583,0,0,1,67.994,25.553Zm-1.865-.141h0a.587.587,0,0,1-.094-.823h0a.586.586,0,0,1,.83-.1h0a.583.583,0,0,1,.088.824h0a.573.573,0,0,1-.459.224h0A.569.569,0,0,1,66.129,25.412Zm3.842-.776a.594.594,0,0,1-.271-.788h0a.588.588,0,0,1,.789-.271h0a.593.593,0,0,1,.27.788h0a.591.591,0,0,1-.53.329h0A.575.575,0,0,1,69.971,24.636Zm-.265-2.4a.582.582,0,0,1,.276-.782h0a.591.591,0,0,1,.789.276h0a.6.6,0,0,1-.277.783h0a.573.573,0,0,1-.258.059h0A.587.587,0,0,1,69.706,22.235Zm-3.659-.764a.584.584,0,0,1,.1-.824h0a.587.587,0,0,1,.823.094h0a.6.6,0,0,1-.093.83h0a.585.585,0,0,1-.365.123h0A.589.589,0,0,1,66.047,21.471Zm2.4-.247a.59.59,0,0,1-.435-.706h0a.583.583,0,0,1,.706-.441h0a.582.582,0,0,1,.435.706h0a.59.59,0,0,1-.571.458h0A.568.568,0,0,1,68.447,21.224Z" fill="#ffa500"/>
        </g>
        <g id="Group_2753" data-name="Group 2753">
          <path id="Path_25139" data-name="Path 25139" d="M65.57,23.624a.59.59,0,0,1-.417-.171.53.53,0,0,1-.124-.194.555.555,0,0,1,0-.447.681.681,0,0,1,.124-.194.615.615,0,0,1,.835,0,.677.677,0,0,1,.123.194.574.574,0,0,1,.048.224.584.584,0,0,1-.589.588Z" fill="#ffa500"/>
        </g>
      </g>
      <g id="Group_2758" data-name="Group 2758">
        <g id="Group_2755" data-name="Group 2755">
          <path id="Path_25140" data-name="Path 25140" d="M71.382,65.587a.588.588,0,0,1-.223-.041.6.6,0,0,1-.194-.13A.579.579,0,0,1,70.794,65a.625.625,0,0,1,.047-.229.586.586,0,0,1,.124-.188.71.71,0,0,1,.194-.13.665.665,0,0,1,.341-.035l.106.035.106.053a.881.881,0,0,1,.088.077.7.7,0,0,1,.13.188.619.619,0,0,1,.041.229.579.579,0,0,1-.171.412.492.492,0,0,1-.194.13A.586.586,0,0,1,71.382,65.587Z" fill="#ffa500"/>
        </g>
        <g id="Group_2756" data-name="Group 2756">
          <path id="Path_25141" data-name="Path 25141" d="M70.812,72.358a.586.586,0,0,1,.588-.588h0a.581.581,0,0,1,.589.582h0a.586.586,0,0,1-.583.589h0A.587.587,0,0,1,70.812,72.358Zm-1.918-.218a.583.583,0,0,1-.129-.817h0a.585.585,0,0,1,.818-.136h0a.593.593,0,0,1,.135.824h0a.589.589,0,0,1-.477.241h0A.579.579,0,0,1,68.894,72.14Zm4.189-.147a.59.59,0,0,1,.124-.824h0a.585.585,0,0,1,.823.13h0a.59.59,0,0,1-.124.823h0v-.005h0a.6.6,0,0,1-.352.117h0A.576.576,0,0,1,73.083,71.993Zm-5.748-1.965a.59.59,0,0,1,.371-.747h0a.584.584,0,0,1,.741.37h.006a.594.594,0,0,1-.377.748h0a.635.635,0,0,1-.182.029h0A.582.582,0,0,1,67.335,70.028Zm7.372.335a.583.583,0,0,1-.383-.735v-.006a.592.592,0,0,1,.742-.376h0a.6.6,0,0,1,.382.741h0a.593.593,0,0,1-.559.406h0A.461.461,0,0,1,74.707,70.363Zm-7.013-2.229a.6.6,0,0,1-.382-.741h0a.588.588,0,0,1,.741-.383h0a.584.584,0,0,1,.382.736h0a.588.588,0,0,1-.559.411h0A.673.673,0,0,1,67.694,68.134Zm6.63-.412a.581.581,0,0,1,.37-.741h0a.588.588,0,0,1,.748.371h0a.59.59,0,0,1-.376.741h0a.529.529,0,0,1-.183.029h0A.587.587,0,0,1,74.324,67.722Zm-5.6-1.647a.59.59,0,0,1,.117-.824h0a.585.585,0,0,1,.824.124h0a.591.591,0,0,1-.118.824h0a.6.6,0,0,1-.353.111h0A.586.586,0,0,1,68.724,66.075Zm4.477.106a.587.587,0,0,1-.13-.824h0a.578.578,0,0,1,.818-.129h0a.587.587,0,0,1,.129.824h0a.582.582,0,0,1-.477.24h0A.564.564,0,0,1,73.2,66.181Z" fill="#ffa500"/>
        </g>
        <g id="Group_2757" data-name="Group 2757">
          <path id="Path_25142" data-name="Path 25142" d="M71.382,65.587a.588.588,0,0,1-.223-.041.6.6,0,0,1-.194-.13A.579.579,0,0,1,70.794,65a.625.625,0,0,1,.047-.229.586.586,0,0,1,.124-.188.71.71,0,0,1,.194-.13.665.665,0,0,1,.341-.035l.106.035.106.053a.881.881,0,0,1,.088.077.7.7,0,0,1,.13.188.619.619,0,0,1,.041.229.579.579,0,0,1-.171.412.492.492,0,0,1-.194.13A.586.586,0,0,1,71.382,65.587Z" fill="#ffa500"/>
        </g>
      </g>
    </g>
  </g>
</svg>