<?xml version="1.0" encoding="UTF-8"?>
<!DOCTYPE svg PUBLIC "-//W3C//DTD SVG 1.1//EN" "http://www.w3.org/Graphics/SVG/1.1/DTD/svg11.dtd">
<svg xmlns="http://www.w3.org/2000/svg" version="1.1" width="88px" height="86px" style="shape-rendering:geometricPrecision; text-rendering:geometricPrecision; image-rendering:optimizeQuality; fill-rule:evenodd; clip-rule:evenodd" xmlns:xlink="http://www.w3.org/1999/xlink">
<g><path style="opacity:0.995" fill="#f9a811" d="M 36.5,19.5 C 40.7891,21.1847 45.4557,22.3514 50.5,23C 52.316,25.3169 54.316,27.4835 56.5,29.5C 57.3265,33.4592 57.8265,37.4592 58,41.5C 58.3826,42.056 58.8826,42.3893 59.5,42.5C 59.4406,44.7645 60.2739,45.0978 62,43.5C 64.9768,43.9884 67.4768,45.3217 69.5,47.5C 70.2483,49.4159 70.2483,51.4159 69.5,53.5C 63.3364,54.8401 59.5031,52.5068 58,46.5C 56,49.1667 54,51.8333 52,54.5C 51.7883,57.7577 51.2883,60.9243 50.5,64C 45.8333,64.6667 41.1667,64.6667 36.5,64C 34.2711,61.447 33.9377,58.6136 35.5,55.5C 32.0665,52.2622 29.3998,48.5955 27.5,44.5C 27.2287,42.6883 26.562,41.0217 25.5,39.5C 21.9684,40.8031 18.4684,40.8031 15,39.5C 14.2419,37.2305 14.4086,35.0639 15.5,33C 18.7603,32.2165 21.9269,32.3832 25,33.5C 25.4017,32.1279 25.9017,30.7946 26.5,29.5C 23.9991,29.2863 21.3324,28.4529 18.5,27C 15.6395,18.5486 18.3062,16.5486 26.5,21C 27.1552,22.4866 28.1552,23.6533 29.5,24.5C 31.3263,22.0901 33.6596,20.4234 36.5,19.5 Z"/></g>
<g><path style="opacity:0.988" fill="#efaf2a" d="M 59.5,42.5 C 58.8826,42.3893 58.3826,42.056 58,41.5C 57.8265,37.4592 57.3265,33.4592 56.5,29.5C 54.316,27.4835 52.316,25.3169 50.5,23C 45.4557,22.3514 40.7891,21.1847 36.5,19.5C 45.0836,16.6903 52.2503,18.6903 58,25.5C 59.2915,23.7513 60.4582,21.918 61.5,20C 65.1472,17.5087 68.1472,18.0087 70.5,21.5C 69.5502,25.6166 67.0502,28.2832 63,29.5C 61.7387,29.2409 60.7387,28.5742 60,27.5C 59.5576,29.684 60.0576,31.684 61.5,33.5C 64.4212,32.5934 67.4212,32.2601 70.5,32.5C 70.5,35.1667 70.5,37.8333 70.5,40.5C 67.4212,40.7399 64.4212,40.4066 61.5,39.5C 60.5748,40.3569 59.9081,41.3569 59.5,42.5 Z"/></g>
<g><path style="opacity:0.944" fill="#f6ac1c" d="M 27.5,44.5 C 27.6015,49.7194 25.1015,53.0527 20,54.5C 18.7387,54.2409 17.7387,53.5742 17,52.5C 17.2155,45.634 20.7155,42.9673 27.5,44.5 Z"/></g>
</svg>
