<svg version="1.1" xmlns="http://www.w3.org/2000/svg" width="88px" height="86px" transform="rotate(0) scale(1, 1)">
<path d="M0 0 C2.57997744 1.40817482 4.73029156 3.06799058 6.9375 5 C10.01014573 7.5263976 11.83859635 8.03311403 15.75 8.3125 C14.875 16.0625 14.875 16.0625 13.75 18.3125 C5.74061767 17.54236708 5.74061767 17.54236708 2.75 14.3125 C2.75 12.9925 2.75 11.6725 2.75 10.3125 C-1.62693381 5.93556619 -7.53066942 5.01101392 -13.5 4.9375 C-20.80982097 5.08735966 -26.97279967 6.22391551 -32.421875 11.359375 C-34.13079713 13.28703916 -35.72762742 15.23562085 -37.25 17.3125 C-38.9 16.9825 -40.55 16.6525 -42.25 16.3125 C-41.92 14.3325 -41.59 12.3525 -41.25 10.3125 C-40.59 10.3125 -39.93 10.3125 -39.25 10.3125 C-39.03214844 9.72855469 -38.81429687 9.14460937 -38.58984375 8.54296875 C-36.81412825 5.58689425 -34.7407477 4.41772535 -31.8125 2.625 C-30.84441406 2.02300781 -29.87632813 1.42101562 -28.87890625 0.80078125 C-21.33626703 -3.46927156 -8.03255732 -3.42280793 0 0 Z " fill="orange" transform="translate(57.25,3.6875)"/>
<path d="M0 0 C4.09789669 0.37943488 6.53958935 0.69305957 10 3 C9.67 4.65 9.34 6.3 9 8 C17.50857528 12.60881161 25.74144532 14.75783779 35.37109375 12.42578125 C40.72826647 10.51178192 44.94710427 8.67805256 48 3.8125 C48.66 2.884375 49.32 1.95625 50 1 C52.75 0.625 52.75 0.625 55 1 C55.7109375 3.25 55.7109375 3.25 56 6 C51.84105256 12.42083114 44.38036148 17.1633777 37.21484375 19.609375 C28.0838752 21.2197751 17.90682602 21.208089 10 16 C7.88640095 14.44420896 5.82699218 12.86814432 3.82421875 11.171875 C1.80046297 9.63967707 1.80046297 9.63967707 -2 10 C-1.85950482 8.52031676 -1.71245174 7.04125484 -1.5625 5.5625 C-1.48128906 4.73878906 -1.40007813 3.91507812 -1.31640625 3.06640625 C-1 1 -1 1 0 0 Z " fill="orange" transform="translate(17,64)"/>
<path d="M0 0 C0.74886475 0.00523682 1.49772949 0.01047363 2.26928711 0.01586914 C3.07817383 0.0190918 3.88706055 0.02231445 4.72045898 0.02563477 C5.5705957 0.03401367 6.42073242 0.04239258 7.29663086 0.05102539 C8.15063477 0.05553711 9.00463867 0.06004883 9.88452148 0.06469727 C12.00108749 0.07652166 14.11761771 0.0944577 16.23413086 0.11352539 C16.87665469 1.37818746 17.51682095 2.64404748 18.15600586 3.91040039 C18.51275391 4.61519531 18.86950195 5.31999023 19.23706055 6.04614258 C21.24540409 10.21035734 22.23413086 13.48071109 22.23413086 18.11352539 C12.00413086 18.11352539 1.77413086 18.11352539 -8.76586914 18.11352539 C-7.9727308 13.35469537 -7.24410602 10.50477875 -5.26586914 6.30102539 C-4.82243164 5.34583008 -4.37899414 4.39063477 -3.92211914 3.40649414 C-2.27821965 0.14646373 -2.27821965 0.14646373 0 0 Z M6.23413086 4.11352539 C5.57413086 6.75352539 4.91413086 9.39352539 4.23413086 12.11352539 C6.21413086 13.10352539 6.21413086 13.10352539 8.23413086 14.11352539 C8.89413086 13.12352539 9.55413086 12.13352539 10.23413086 11.11352539 C9.42764398 7.45682008 9.42764398 7.45682008 8.23413086 4.11352539 C7.57413086 4.11352539 6.91413086 4.11352539 6.23413086 4.11352539 Z " fill="orange" transform="translate(64.765869140625,42.886474609375)"/>
<path d="M0 0 C0.74886475 0.00523682 1.49772949 0.01047363 2.26928711 0.01586914 C3.07817383 0.0190918 3.88706055 0.02231445 4.72045898 0.02563477 C5.5705957 0.03401367 6.42073242 0.04239258 7.29663086 0.05102539 C8.15063477 0.05553711 9.00463867 0.06004883 9.88452148 0.06469727 C12.00108749 0.07652166 14.11761771 0.0944577 16.23413086 0.11352539 C19.41877105 6.04522163 21.88756111 11.50309209 23.23413086 18.11352539 C15.56746419 18.11352539 7.90079753 18.11352539 0.23413086 18.11352539 C-0.09586914 17.45352539 -0.42586914 16.79352539 -0.76586914 16.11352539 C-1.09586914 16.77352539 -1.42586914 17.43352539 -1.76586914 18.11352539 C-3.74586914 18.11352539 -5.72586914 18.11352539 -7.76586914 18.11352539 C-7.35235139 13.35807121 -5.84485201 0.3757578 0 0 Z M6.23413086 4.11352539 C5.57413086 6.75352539 4.91413086 9.39352539 4.23413086 12.11352539 C6.21413086 13.10352539 6.21413086 13.10352539 8.23413086 14.11352539 C8.89413086 13.12352539 9.55413086 12.13352539 10.23413086 11.11352539 C9.42764398 7.45682008 9.42764398 7.45682008 8.23413086 4.11352539 C7.57413086 4.11352539 6.91413086 4.11352539 6.23413086 4.11352539 Z " fill="orange" transform="translate(8.765869140625,42.886474609375)"/>
<path d="M0 0 C2.21875 1.21484375 2.21875 1.21484375 4 3 C4.53125 5.375 4.53125 5.375 4.5 8 C4.5103125 8.86625 4.520625 9.7325 4.53125 10.625 C4 13 4 13 2.21875 14.78515625 C-1.22474782 16.67059256 -4.17808444 16.68136609 -8 16 C-10.5 14.5 -10.5 14.5 -12 12 C-12.791013 7.97901723 -12.62153384 5.03588973 -10.5 1.5 C-7.06329153 -0.56202508 -3.91763474 -0.84933097 0 0 Z " fill="orange" transform="translate(20,25)"/>
<path d="M0 0 C2.76142665 1.01736771 3.68085371 1.36170741 5 4 C5.56872038 11.0521327 5.56872038 11.0521327 3.5 14.5 C0.06329153 16.56202508 -3.08236526 16.84933097 -7 16 C-9.21875 14.78515625 -9.21875 14.78515625 -11 13 C-11.53125 10.625 -11.53125 10.625 -11.5 8 C-11.5103125 7.13375 -11.520625 6.2675 -11.53125 5.375 C-11 3 -11 3 -9.1875 1.20703125 C-6.0172967 -0.54224164 -3.56115586 -0.31796034 0 0 Z " fill="orange" transform="translate(75,25)"/>
</svg>