<?xml version="1.0" encoding="utf-8"?>
<!-- Generator: Adobe Illustrator 24.3.0, SVG Export Plug-In . SVG Version: 6.00 Build 0)  -->
<svg version="1.1" id="Layer_1" xmlns="http://www.w3.org/2000/svg" xmlns:xlink="http://www.w3.org/1999/xlink" x="0px" y="0px"
	 viewBox="0 0 512 512" style="enable-background:new 0 0 512 512;" xml:space="preserve">
<style type="text/css">
	.st0{fill:#FFFFFF;}
</style>
<path class="st0" d="M495.45,16.51c-14.29-14.24-35.71-14.24-50,0L256.17,205.17L66.88,16.51c-14.29-14.24-35.71-14.24-50,0
	s-14.29,35.6,0,49.83L206.17,255L16.88,443.65c-14.29,14.24-14.29,35.6,0,49.83c7.14,7.12,14.29,10.68,25,10.68s17.86-3.56,25-10.68
	l189.29-188.65l189.29,188.65c7.14,7.12,17.86,10.68,25,10.68s17.86-3.56,25-10.68c14.25-14.24,14.25-35.6,0-49.83L306.17,255
	L495.45,66.35C509.74,52.11,509.74,30.75,495.45,16.51z"/>
</svg>
